<?xml version="1.0" standalone="no"?>
<!DOCTYPE svg PUBLIC "-//W3C//DTD SVG 1.1//EN"
  "http://www.w3.org/Graphics/SVG/1.1/DTD/svg11.dtd">
<svg width="2125.98px" height="1771.65px" version="1.1"
    xmlns="http://www.w3.org/2000/svg"
    xmlns:xlink="http://www.w3.org/1999/xlink">
<desc>Veusz output document</desc>
<defs>
<clipPath id="c0">
<path d="m0,0l2125.98,0l0,1771.65l-2125.98,0l0,-1771.65"/>
</clipPath>
<clipPath id="c1">
<path d="m94.48,23.62l2007.87,0l0,1547.24l-2007.87,0l0,-1547.24"/>
</clipPath>
</defs>
<g stroke-linejoin="bevel" stroke-linecap="square" stroke="#000000" fill-rule="evenodd">
<g clip-path="url(#c0)">
<g fill="#ffffff" stroke-width="2.08">
<path d="m94.48,23.62l2007.87,0l0,1547.24l-2007.87,0l0,-1547.24"/>
</g>
<g fill="none" stroke-width="0.1">
<path d="m314.75,1658.43c0,3.22,2.77,5.85,6.15,5.85c7.95,0,16.2,-9.3,20.62,-23.17l10.57,-33l-0.82,-0.67c-2.17,0.82,-3.9,1.27,-5.55,1.42l-2.62,9.9c-0.9,3.52,-3.52,9,-6,12.67c-2.62,3.82,-6.3,7.12,-7.95,7.12c-1.65,0,-1.5,-3.6,-1.42,-4.57l1.12,-14.55c0.15,-2.32,0.3,-5.17,0.3,-7.27c0,-3.37,-0.52,-4.72,-1.8,-4.72c-0.97,0,-2.02,0.52,-5.62,3l-6.15,4.2l0.82,1.35l3.75,-2.25c0.37,-0.3,1.35,-0.9,1.87,-0.9c1.95,0,1.65,3.82,1.57,5.02l-1.27,18.22l-0.07,3c-0.07,3.15,1.35,5.32,3.22,5.32c2.77,0,9.07,-6.37,14.7,-14.85l-3.67,12.82c-3.82,13.27,-7.57,18.75,-12.82,18.75c-2.62,0,-4.65,-2.02,-4.65,-4.65c0,-0.37,0.07,-0.97,0.15,-1.65l-0.75,-0.3l-3.6,2.55c-0.07,0.52,-0.07,0.97,-0.07,1.35" fill="#000000" stroke="none" fill-opacity="1"/>
</g>
<g fill="#000000" stroke-linecap="butt" stroke-width="2.08">
<g transform="matrix(0 -1 1 0 335.43 1570.86)">
<path d="M0,0l1406.58,0"/>
</g>
</g>
<g fill="none" stroke-width="0.1">
<path d="m926.32,125.96c2.77,-0.15,5.62,-0.22,8.4,-0.22c2.77,0,5.55,0.07,8.25,0.22l0.22,-2.1l-2.85,-0.22c-2.4,-0.22,-3.67,-0.9,-3.67,-2.02c0,-0.75,0.15,-1.72,0.52,-3.07l9.3,-34.8l11.17,43.35l1.72,0l4.27,-7.8l17.92,-31.05l3.9,-6.52l-2.77,39c-0.15,2.1,-1.2,2.55,-5.02,2.92l-2.32,0.22l-0.22,2.1c3.37,-0.15,6.67,-0.22,10.05,-0.22c3.37,0,6.67,0.07,9.97,0.22l0.22,-2.1l-2.77,-0.22c-2.7,-0.22,-4.12,-1.05,-4.05,-2.62l0.07,-2.77l3.07,-39.82c0.07,-1.42,1.27,-2.17,3.45,-2.32l2.85,-0.15l0.22,-2.1c-2.1,0.15,-4.2,0.22,-6.3,0.22c-2.1,0,-4.2,-0.07,-6.22,-0.22c-1.42,2.77,0,0.75,-6.37,11.7l-18.45,31.65l-11.25,-43.35c-2.1,0.15,-4.2,0.22,-6.3,0.22c-2.1,0,-4.2,-0.07,-6.22,-0.22l-0.22,2.1l1.95,0.15c3.9,0.3,5.25,1.05,5.25,3c0,0.45,-0.07,0.97,-0.22,1.5l-10.87,38.17c-1.12,3.9,-2.32,4.87,-6.45,5.25l-0.22,1.95m96.97,-4.65c0.6,0.37,1.2,0.9,1.72,1.42c0.52,0.52,1.05,1.12,1.42,1.72l14.32,-14.32l14.32,14.32c0.45,-0.6,0.9,-1.2,1.42,-1.72c0.52,-0.52,1.12,-1.05,1.8,-1.42l-14.32,-14.32l14.32,-14.32c-0.67,-0.37,-1.27,-0.9,-1.8,-1.42c-0.52,-0.52,-0.97,-1.12,-1.42,-1.72l-14.32,14.32l-14.32,-14.32c-0.37,0.6,-0.9,1.2,-1.42,1.72c-0.52,0.52,-1.12,1.05,-1.72,1.42l14.32,14.32l-14.32,14.32m57,16.35c0,5.32,5.25,8.77,13.42,8.77c9.67,0,18.15,-5.4,18.15,-11.62c0,-2.7,-1.57,-5.4,-4.8,-8.02l-4.5,-3.67c-2.55,-2.02,-3.52,-3.45,-3.52,-4.87c0,-0.67,0.45,-1.42,1.57,-2.85c0.22,-0.3,0.3,-0.37,0.45,-0.6c7.35,-1.8,12.67,-8.02,12.67,-14.7c0,-0.67,0,-1.35,-0.22,-2.47l-0.07,-0.22l2.55,0c1.27,0,2.02,-0.07,3.75,-0.3l0.67,-3.37l-0.22,-0.45c-2.1,0.52,-3.6,0.67,-7.65,0.67c-1.2,-1.95,-1.95,-2.62,-3.82,-3.37c-1.57,-0.6,-3.45,-0.97,-5.02,-0.97c-3.07,0,-6.82,1.42,-10.12,3.9c-4.2,3.15,-6.37,7.5,-6.37,12.82c0,5.77,3.37,9.22,9.15,9.22c0.6,0,1.42,0,2.25,-0.07l-3.07,2.85c-1.2,1.12,-2.02,2.47,-2.02,3.52c0,0.75,0.52,1.57,1.57,2.47c-5.7,1.87,-8.02,3,-10.8,5.32c-2.55,2.1,-3.97,5.02,-3.97,8.02m4.8,-1.05c0,-2.85,1.35,-5.47,3.75,-7.5c1.95,-1.57,3.6,-2.32,7.42,-3.45l5.77,4.42c3.45,2.7,4.87,4.72,4.87,7.2c0,3.9,-5.17,7.05,-11.4,7.05c-6.15,0,-10.42,-3.15,-10.42,-7.72m7.42,-32.47c0,-7.12,3.82,-12,9.3,-12c4.35,0,6.52,2.7,6.52,8.02c0,7.72,-3.6,12.97,-8.85,12.97c-4.57,0,-6.97,-3.07,-6.97,-9m37.35,5.85c0,12,6.3,23.7,16.65,34.05c0.22,-0.45,0.52,-0.82,0.9,-1.2c0.37,-0.37,0.75,-0.67,1.2,-0.9c-9.52,-9.52,-13.95,-20.92,-13.95,-31.95l0,-6c0,-11.02,4.42,-22.42,13.95,-31.95c-0.45,-0.22,-0.82,-0.52,-1.2,-0.9c-0.37,-0.37,-0.67,-0.75,-0.9,-1.2c-10.35,10.35,-16.65,22.05,-16.65,34.05l0,6m25.57,15.67c1.12,0.6,2.32,0.9,3.22,0.9c2.47,0,5.4,-2.17,7.72,-5.7l5.7,-8.77l0.82,5.17c1.05,6.37,2.7,9.3,5.4,9.3c1.65,0,4.05,-1.27,6.45,-3.45l3.67,-3.3l-0.67,-1.42c-2.7,2.25,-4.57,3.37,-5.77,3.37c-1.12,0,-2.1,-0.75,-2.85,-2.25c-0.67,-1.42,-1.5,-4.2,-1.87,-6.37l-1.35,-7.57l2.62,-3.67c3.52,-4.87,5.55,-6.6,7.87,-6.6c1.2,0,2.1,0.6,2.47,1.72l1.05,-0.3l1.12,-6.37c-0.9,-0.52,-1.57,-0.75,-2.25,-0.75c-3,0,-6,2.7,-10.65,9.6l-2.77,4.12l-0.45,-3.6c-0.9,-7.42,-2.92,-10.12,-7.35,-10.12c-1.95,0,-3.6,0.6,-4.27,1.57l-4.35,6.22l1.27,0.75c2.25,-2.55,3.75,-3.6,5.17,-3.6c2.47,0,4.12,3.07,5.4,10.42l0.82,4.65l-3,4.65c-3.22,5.02,-5.77,7.42,-7.87,7.42c-1.12,0,-1.95,-0.3,-2.1,-0.67l-0.82,-2.1l-1.5,0.22c0,1.5,-0.15,2.47,-0.6,4.87c-0.15,0.9,-0.22,1.12,-0.3,1.65m42.97,16.27c0.45,0.22,0.82,0.52,1.2,0.9c0.37,0.37,0.67,0.75,0.9,1.2c10.35,-10.35,16.65,-22.05,16.65,-34.05l0,-6c0,-12,-6.3,-23.7,-16.65,-34.05c-0.22,0.45,-0.52,0.82,-0.9,1.2c-0.37,0.37,-0.75,0.67,-1.2,0.9c9.52,9.52,13.95,20.92,13.95,31.95l0,6c0,11.02,-4.42,22.42,-13.95,31.95" fill="#000000" stroke="none" fill-opacity="1"/>
<path d="m889.5,910.17c0.67,0.37,1.8,0.6,2.62,0.6c3.07,0,7.12,-2.32,10.05,-5.85c4.57,-5.4,6.15,-10.57,11.7,-36.97c0.37,-1.87,0.97,-4.12,1.42,-6.6l7.8,0c0.3,-1.42,0.82,-3.15,1.27,-4.2l-0.3,-0.52l-0.52,0.15c-1.8,0.52,-2.62,0.52,-6.3,0.52l-1.2,0l1.57,-8.4c1.2,-6.45,3.3,-9.3,6.75,-9.3c2.25,0,4.27,1.12,5.4,2.92l0.75,-0.3l1.72,-5.02l0.37,-1.12c-1.27,-0.6,-3.45,-0.97,-5.25,-0.97c-0.82,0,-2.02,0.22,-2.62,0.52c-1.8,0.82,-7.95,5.4,-9.67,7.2c-1.65,1.65,-2.55,3.9,-3.37,8.17l-1.12,5.92c-3.07,1.5,-4.57,2.1,-6.45,2.77l-0.37,1.65l6.07,0l-0.67,4.2c-2.32,14.62,-5.02,28.57,-6.67,33.75c-1.42,4.42,-3.6,6.75,-6.3,6.75c-1.72,0,-2.62,-0.52,-3.9,-2.17l-1.05,0.3c-0.3,1.72,-1.35,5.32,-1.72,6m42.3,-35.85c0,12,6.3,23.7,16.65,34.05c0.22,-0.45,0.52,-0.82,0.9,-1.2c0.37,-0.37,0.75,-0.67,1.2,-0.9c-9.52,-9.52,-13.95,-20.92,-13.95,-31.95l0,-6c0,-11.02,4.42,-22.42,13.95,-31.95c-0.45,-0.22,-0.82,-0.52,-1.2,-0.9c-0.37,-0.37,-0.67,-0.75,-0.9,-1.2c-10.35,10.35,-16.65,22.05,-16.65,34.05l0,6m25.57,15.67c1.12,0.6,2.32,0.9,3.22,0.9c2.47,0,5.4,-2.17,7.72,-5.7l5.7,-8.77l0.82,5.17c1.05,6.37,2.7,9.3,5.4,9.3c1.65,0,4.05,-1.27,6.45,-3.45l3.67,-3.3l-0.67,-1.42c-2.7,2.25,-4.57,3.37,-5.77,3.37c-1.12,0,-2.1,-0.75,-2.85,-2.25c-0.67,-1.42,-1.5,-4.2,-1.87,-6.37l-1.35,-7.57l2.62,-3.67c3.52,-4.87,5.55,-6.6,7.87,-6.6c1.2,0,2.1,0.6,2.47,1.72l1.05,-0.3l1.12,-6.37c-0.9,-0.52,-1.57,-0.75,-2.25,-0.75c-3,0,-6,2.7,-10.65,9.6l-2.77,4.12l-0.45,-3.6c-0.9,-7.42,-2.92,-10.12,-7.35,-10.12c-1.95,0,-3.6,0.6,-4.27,1.57l-4.35,6.22l1.27,0.75c2.25,-2.55,3.75,-3.6,5.17,-3.6c2.47,0,4.12,3.07,5.4,10.42l0.82,4.65l-3,4.65c-3.22,5.02,-5.77,7.42,-7.87,7.42c-1.12,0,-1.95,-0.3,-2.1,-0.67l-0.82,-2.1l-1.5,0.22c0,1.5,-0.15,2.47,-0.6,4.87c-0.15,0.9,-0.22,1.12,-0.3,1.65m42.97,16.27c0.45,0.22,0.82,0.52,1.2,0.9c0.37,0.37,0.67,0.75,0.9,1.2c10.35,-10.35,16.65,-22.05,16.65,-34.05l0,-6c0,-12,-6.3,-23.7,-16.65,-34.05c-0.22,0.45,-0.52,0.82,-0.9,1.2c-0.37,0.37,-0.75,0.67,-1.2,0.9c9.52,9.52,13.95,20.92,13.95,31.95l0,6c0,11.02,-4.42,22.42,-13.95,31.95" fill="#000000" stroke="none" fill-opacity="1"/>
</g>
</g>
<g clip-path="url(#c1)">
<g fill="none" stroke="#377eb8" stroke-width="8.33">
<polyline fill="none" points="94.48,164.28 135.46,164.28 176.44,164.28 217.41,164.28 258.39,164.28 299.37,164.28 340.35,164.28 381.32,164.28 422.3,164.28 463.28,164.28 504.25,164.28 545.23,164.28 586.21,164.28 627.18,164.28 668.16,164.28 709.14,164.28 750.12,164.28 791.09,164.28 832.07,164.28 873.05,164.28 914.02,164.28 955,164.28 995.98,164.28 1036.95,164.28 1077.93,164.28 1118.91,164.28 1159.89,164.28 1200.86,164.28 1241.84,164.28 1282.82,164.28 1323.79,164.28 1364.77,164.28 1405.75,164.28 1446.72,164.28 1487.7,164.28 1528.68,164.28 1569.66,164.28 1610.63,164.28 1651.61,164.28 1692.59,164.28 1733.56,164.28 1774.54,164.28 1815.52,164.28 1856.5,164.28 1897.47,164.28 1938.45,164.28 1979.43,164.28 2020.4,164.28 2061.38,164.28 2102.36,164.28"/>
</g>
<g fill="none" stroke="#e41a1c" stroke-width="8.33">
<polyline fill="none" points="94.48,164.28 96.49,171.26 98.5,178.15 100.51,184.93 102.52,191.62 104.53,198.21 106.54,204.7 108.55,211.11 110.56,217.42 112.57,223.65 114.58,229.8 116.59,235.86 118.6,241.83 120.61,247.73 122.62,253.55 124.63,259.3 126.64,264.97 128.65,270.57 130.66,276.09 132.67,281.55 134.68,286.94 136.69,292.26 138.7,297.51 140.71,302.7 142.72,307.83 144.73,312.9 146.74,317.9 148.75,322.85 150.76,327.74 152.77,332.57 154.78,337.35 156.79,342.07 158.8,346.73 160.81,351.35 162.82,355.91 164.83,360.42 166.84,364.88 168.85,369.3 170.86,373.66 172.87,377.98 174.88,382.25 176.89,386.47 178.9,390.66 180.91,394.79 182.92,398.89 184.93,402.94 186.94,406.95 188.95,410.91 190.96,414.84 192.97,418.73 194.98,422.58 196.99,426.39 199,430.16 201.01,433.9 203.02,437.6 205.03,441.27 207.04,444.89 209.05,448.49 211.06,452.05 213.07,455.57 215.08,459.07 217.09,462.53 219.1,465.95 221.11,469.35 223.12,472.72 225.13,476.05 227.14,479.36 229.15,482.63 231.16,485.88 233.17,489.09 235.18,492.28 237.18,495.44 239.19,498.57 241.2,501.68 243.21,504.76 245.22,507.81 247.23,510.84 249.24,513.84 251.25,516.81 253.26,519.76 255.27,522.69 257.28,525.59 259.29,528.47 261.3,531.32 263.31,534.15 265.32,536.96 267.33,539.74 269.34,542.5 271.35,545.24 273.36,547.96 275.37,550.66 277.38,553.33 279.39,555.99 281.4,558.62 283.41,561.24 285.42,563.83 287.43,566.4 289.44,568.96 291.45,571.49 293.46,574.01 295.47,576.5 297.48,578.98 299.49,581.44 301.5,583.88 303.51,586.31 305.52,588.71 307.53,591.1 309.54,593.47 311.55,595.82 313.56,598.16 315.57,600.48 317.58,602.78 319.59,605.07 321.6,607.34 323.61,609.6 325.62,611.83 327.63,614.06 329.64,616.27 331.65,618.46 333.66,620.64 335.67,622.8 337.68,624.95 339.69,627.08 341.7,629.2 343.71,631.31 345.72,633.4 347.73,635.48 349.74,637.54 351.75,639.59 353.76,641.63 355.77,643.65 357.78,645.66 359.79,647.66 361.8,649.64 363.81,651.61 365.82,653.57 367.83,655.52 369.84,657.45 371.85,659.37 373.86,661.28 375.87,663.18 377.88,665.06 379.89,666.94 381.9,668.8 383.91,670.65 385.92,672.49 387.93,674.32 389.94,676.14 391.95,677.94 393.96,679.74 395.97,681.52 397.98,683.3 399.99,685.06 402,686.81 404.01,688.55 406.02,690.28 408.03,692 410.04,693.71 412.04,695.42 414.05,697.11 416.06,698.79 418.07,700.46 420.08,702.12 422.09,703.77 424.1,705.41 426.11,707.04 428.12,708.66 430.13,710.27 432.14,711.87 434.15,713.47 436.16,715.05 438.17,716.62 440.18,718.18 442.19,719.74 444.2,721.28 446.21,722.81 448.22,724.33 450.23,725.85 452.24,727.35 454.25,728.84 456.26,730.32 458.27,731.79 460.28,733.25 462.29,734.7 464.3,736.13 466.31,737.56 468.32,738.97 470.33,740.37 472.34,741.75 474.35,743.12 476.36,744.48 478.37,745.82 480.38,747.15 482.39,748.46 484.4,749.75 486.41,751.03 488.42,752.28 490.43,753.52 492.44,754.74 494.45,755.93 496.46,757.11 498.47,758.25 500.48,759.38 502.49,760.47 504.5,761.54 506.51,762.58 508.52,763.58 510.53,764.55 512.54,765.49 514.55,766.39 516.56,767.25 518.57,768.07 520.58,768.84 522.59,769.57 524.6,770.25 526.61,770.88 528.62,771.45 530.63,771.97 532.64,772.43 534.65,772.83 536.66,773.16 538.67,773.42 540.68,773.61 542.69,773.72 544.7,773.76 546.71,773.72 548.72,773.59 550.73,773.37 552.74,773.06 554.75,772.66 556.76,772.16 558.77,771.56 560.78,770.86 562.79,770.04 564.8,769.12 566.81,768.09 568.82,766.94 570.83,765.67 572.84,764.28 574.85,762.76 576.86,761.13 578.87,759.36 580.88,757.47 582.89,755.45 584.89,753.3 586.9,751.02 588.91,748.61 590.92,746.07 592.93,743.39 594.94,740.59 596.95,737.67 598.96,734.61 600.97,731.44 602.98,728.14 604.99,724.73 607,721.21 609.01,717.58 611.02,713.84 613.03,710.01 615.04,706.08 617.05,702.07 619.06,697.98 621.07,693.82 623.08,689.6 625.09,685.32 627.1,681 629.11,676.64 631.12,672.26 633.13,667.86 635.14,663.45 637.15,659.05 639.16,654.67 641.17,650.31 643.18,646 645.19,641.74 647.2,637.54 649.21,633.42 651.22,629.39 653.23,625.46 655.24,621.64 657.25,617.96 659.26,614.4 661.27,611 663.28,607.76 665.29,604.7 667.3,601.81 669.31,599.12 671.32,596.64 673.33,594.37 675.34,592.32 677.35,590.51 679.36,588.94 681.37,587.61 683.38,586.54 685.39,585.72 687.4,585.17 689.41,584.9 691.42,584.89 693.43,585.16 695.44,585.7 697.45,586.53 699.46,587.63 701.47,589.01 703.48,590.67 705.49,592.6 707.5,594.8 709.51,597.27 711.52,600 713.53,602.99 715.54,606.22 717.55,609.71 719.56,613.42 721.57,617.37 723.58,621.53 725.59,625.9 727.6,630.47 729.61,635.23 731.62,640.17 733.63,645.27 735.64,650.54 737.65,655.94 739.66,661.47 741.67,667.13 743.68,672.89 745.69,678.75 747.7,684.69 749.71,690.7 751.72,696.77 753.73,702.89 755.74,709.04 757.74,715.21 759.75,721.39 761.76,727.58 763.77,733.75 765.78,739.91 767.79,746.03 769.8,752.11 771.81,758.15 773.82,764.12 775.83,770.03 777.84,775.87 779.85,781.62 781.86,787.29 783.87,792.87 785.88,798.34 787.89,803.71 789.9,808.97 791.91,814.12 793.92,819.15 795.93,824.06 797.94,828.85 799.95,833.52 801.96,838.06 803.97,842.47 805.98,846.76 807.99,850.91 810,854.94 812.01,858.84 814.02,862.62 816.03,866.27 818.04,869.79 820.05,873.19 822.06,876.47 824.07,879.63 826.08,882.68 828.09,885.61 830.1,888.43 832.11,891.14 834.12,893.75 836.13,896.25 838.14,898.65 840.15,900.96 842.16,903.18 844.17,905.31 846.18,907.35 848.19,909.31 850.2,911.19 852.21,912.99 854.22,914.72 856.23,916.38 858.24,917.98 860.25,919.51 862.26,920.98 864.27,922.4 866.28,923.76 868.29,925.07 870.3,926.33 872.31,927.55 874.32,928.72 876.33,929.86 878.34,930.95 880.35,932.01 882.36,933.04 884.37,934.03 886.38,934.99 888.39,935.93 890.4,936.84 892.41,937.72 894.42,938.59 896.43,939.43 898.44,940.25 900.45,941.05 902.46,941.84 904.47,942.61 906.48,943.36 908.49,944.1 910.5,944.83 912.51,945.55 914.52,946.25 916.53,946.95 918.54,947.63 920.55,948.31 922.56,948.98 924.57,949.64 926.58,950.29 928.59,950.94 930.59,951.58 932.6,952.21 934.61,952.84 936.62,953.46 938.63,954.08 940.64,954.7 942.65,955.31 944.66,955.91 946.67,956.52 948.68,957.12 950.69,957.71 952.7,958.31 954.71,958.9 956.72,959.49 958.73,960.07 960.74,960.65 962.75,961.23 964.76,961.81 966.77,962.39 968.78,962.96 970.79,963.53 972.8,964.1 974.81,964.67 976.82,965.23 978.83,965.8 980.84,966.36 982.85,966.92 984.86,967.47 986.87,968.03 988.88,968.59 990.89,969.14 992.9,969.69 994.91,970.24 996.92,970.79 998.93,971.33 1000.94,971.88 1002.95,972.42 1004.96,972.96 1006.97,973.5 1008.98,974.04 1010.99,974.58 1013,975.12 1015.01,975.65 1017.02,976.18 1019.03,976.71 1021.04,977.24 1023.05,977.77 1025.06,978.3 1027.07,978.83 1029.08,979.35 1031.09,979.87 1033.1,980.39 1035.11,980.91 1037.12,981.43 1039.13,981.95 1041.14,982.47 1043.15,982.98 1045.16,983.49 1047.17,984.01 1049.18,984.52 1051.19,985.03 1053.2,985.53 1055.21,986.04 1057.22,986.55 1059.23,987.05 1061.24,987.55 1063.25,988.05 1065.26,988.55 1067.27,989.05 1069.28,989.55 1071.29,990.05 1073.3,990.54 1075.31,991.04 1077.32,991.53 1079.33,992.02 1081.34,992.51 1083.35,993 1085.36,993.49 1087.37,993.97 1089.38,994.46 1091.39,994.94 1093.4,995.42 1095.41,995.91 1097.42,996.39 1099.43,996.86 1101.44,997.34 1103.44,997.82 1105.45,998.29 1107.46,998.77 1109.47,999.24 1111.48,999.71 1113.49,1000.18 1115.5,1000.65 1117.51,1001.12 1119.52,1001.59 1121.53,1002.06 1123.54,1002.52 1125.55,1002.98 1127.56,1003.45 1129.57,1003.91 1131.58,1004.37 1133.59,1004.83 1135.6,1005.29 1137.61,1005.74 1139.62,1006.2 1141.63,1006.65 1143.64,1007.11 1145.65,1007.56 1147.66,1008.01 1149.67,1008.46 1151.68,1008.91 1153.69,1009.36 1155.7,1009.81 1157.71,1010.25 1159.72,1010.7 1161.73,1011.14 1163.74,1011.59 1165.75,1012.03 1167.76,1012.47 1169.77,1012.91 1171.78,1013.35 1173.79,1013.79 1175.8,1014.22 1177.81,1014.66 1179.82,1015.09 1181.83,1015.53 1183.84,1015.96 1185.85,1016.39 1187.86,1016.82 1189.87,1017.25 1191.88,1017.68 1193.89,1018.11 1195.9,1018.54 1197.91,1018.96 1199.92,1019.39 1201.93,1019.81 1203.94,1020.23 1205.95,1020.65 1207.96,1021.08 1209.97,1021.5 1211.98,1021.91 1213.99,1022.33 1216,1022.75 1218.01,1023.17 1220.02,1023.58 1222.03,1024 1224.04,1024.41 1226.05,1024.82 1228.06,1025.23 1230.07,1025.64 1232.08,1026.05 1234.09,1026.46 1236.1,1026.87 1238.11,1027.28 1240.12,1027.68 1242.13,1028.09 1244.14,1028.49 1246.15,1028.89 1248.16,1029.3 1250.17,1029.7 1252.18,1030.1 1254.19,1030.5 1256.2,1030.9 1258.21,1031.29 1260.22,1031.69 1262.23,1032.09 1264.24,1032.48 1266.25,1032.88 1268.26,1033.27 1270.27,1033.66 1272.28,1034.05 1274.29,1034.44 1276.29,1034.83 1278.3,1035.22 1280.31,1035.61 1282.32,1036 1284.33,1036.39 1286.34,1036.77 1288.35,1037.16 1290.36,1037.54 1292.37,1037.92 1294.38,1038.31 1296.39,1038.69 1298.4,1039.07 1300.41,1039.45 1302.42,1039.83 1304.43,1040.21 1306.44,1040.59 1308.45,1040.96 1310.46,1041.34 1312.47,1041.71 1314.48,1042.09 1316.49,1042.46 1318.5,1042.83 1320.51,1043.21 1322.52,1043.58 1324.53,1043.95 1326.54,1044.32 1328.55,1044.69 1330.56,1045.05 1332.57,1045.42 1334.58,1045.79 1336.59,1046.15 1338.6,1046.52 1340.61,1046.88 1342.62,1047.25 1344.63,1047.61 1346.64,1047.97 1348.65,1048.33 1350.66,1048.69 1352.67,1049.05 1354.68,1049.41 1356.69,1049.77 1358.7,1050.13 1360.71,1050.49 1362.72,1050.84 1364.73,1051.2 1366.74,1051.55 1368.75,1051.91 1370.76,1052.26 1372.77,1052.61 1374.78,1052.96 1376.79,1053.31 1378.8,1053.66 1380.81,1054.01 1382.82,1054.36 1384.83,1054.71 1386.84,1055.06 1388.85,1055.41 1390.86,1055.75 1392.87,1056.1 1394.88,1056.44 1396.89,1056.79 1398.9,1057.13 1400.91,1057.47 1402.92,1057.81 1404.93,1058.15 1406.94,1058.5 1408.95,1058.84 1410.96,1059.17 1412.97,1059.51 1414.98,1059.85 1416.99,1060.19 1419,1060.52 1421.01,1060.86 1423.02,1061.2 1425.03,1061.53 1427.04,1061.86 1429.05,1062.2 1431.06,1062.53 1433.07,1062.86 1435.08,1063.19 1437.09,1063.52 1439.1,1063.85 1441.11,1064.18 1443.12,1064.51 1445.13,1064.84 1447.14,1065.17 1449.14,1065.49 1451.15,1065.82 1453.16,1066.15 1455.17,1066.47 1457.18,1066.8 1459.19,1067.12 1461.2,1067.44 1463.21,1067.76 1465.22,1068.09 1467.23,1068.41 1469.24,1068.73 1471.25,1069.05 1473.26,1069.37 1475.27,1069.69 1477.28,1070 1479.29,1070.32 1481.3,1070.64 1483.31,1070.96 1485.32,1071.27 1487.33,1071.59 1489.34,1071.9 1491.35,1072.21 1493.36,1072.53 1495.37,1072.84 1497.38,1073.15 1499.39,1073.46 1501.4,1073.78 1503.41,1074.09 1505.42,1074.4 1507.43,1074.71 1509.44,1075.01 1511.45,1075.32 1513.46,1075.63 1515.47,1075.94 1517.48,1076.24 1519.49,1076.55 1521.5,1076.85 1523.51,1077.16 1525.52,1077.46 1527.53,1077.77 1529.54,1078.07 1531.55,1078.37 1533.56,1078.67 1535.57,1078.98 1537.58,1079.28 1539.59,1079.58 1541.6,1079.88 1543.61,1080.18 1545.62,1080.47 1547.63,1080.77 1549.64,1081.07 1551.65,1081.37 1553.66,1081.66 1555.67,1081.96 1557.68,1082.25 1559.69,1082.55 1561.7,1082.84 1563.71,1083.14 1565.72,1083.43 1567.73,1083.72 1569.74,1084.01 1571.75,1084.31 1573.76,1084.6 1575.77,1084.89 1577.78,1085.18 1579.79,1085.47 1581.8,1085.76 1583.81,1086.05 1585.82,1086.33 1587.83,1086.62 1589.84,1086.91 1591.85,1087.19 1593.86,1087.48 1595.87,1087.77 1597.88,1088.05 1599.89,1088.34 1601.9,1088.62 1603.91,1088.9 1605.92,1089.19 1607.93,1089.47 1609.94,1089.75 1611.95,1090.03 1613.96,1090.31 1615.97,1090.59 1617.98,1090.87 1619.99,1091.15 1622,1091.43 1624,1091.71 1626.01,1091.99 1628.02,1092.27 1630.03,1092.54 1632.04,1092.82 1634.05,1093.1 1636.06,1093.37 1638.07,1093.65 1640.08,1093.92 1642.09,1094.2 1644.1,1094.47 1646.11,1094.74 1648.12,1095.01 1650.13,1095.29 1652.14,1095.56 1654.15,1095.83 1656.16,1096.1 1658.17,1096.37 1660.18,1096.64 1662.19,1096.91 1664.2,1097.18 1666.21,1097.45 1668.22,1097.72 1670.23,1097.99 1672.24,1098.25 1674.25,1098.52 1676.26,1098.79 1678.27,1099.05 1680.28,1099.32 1682.29,1099.58 1684.3,1099.85 1686.31,1100.11 1688.32,1100.37 1690.33,1100.64 1692.34,1100.9 1694.35,1101.16 1696.36,1101.42 1698.37,1101.69 1700.38,1101.95 1702.39,1102.21 1704.4,1102.47 1706.41,1102.73 1708.42,1102.99 1710.43,1103.25 1712.44,1103.5 1714.45,1103.76 1716.46,1104.02 1718.47,1104.28 1720.48,1104.53 1722.49,1104.79 1724.5,1105.05 1726.51,1105.3 1728.52,1105.56 1730.53,1105.81 1732.54,1106.07 1734.55,1106.32 1736.56,1106.57 1738.57,1106.83 1740.58,1107.08 1742.59,1107.33 1744.6,1107.58 1746.61,1107.83 1748.62,1108.08 1750.63,1108.33 1752.64,1108.59 1754.65,1108.83 1756.66,1109.08 1758.67,1109.33 1760.68,1109.58 1762.69,1109.83 1764.7,1110.08 1766.71,1110.32 1768.72,1110.57 1770.73,1110.82 1772.74,1111.06 1774.75,1111.31 1776.76,1111.56 1778.77,1111.8 1780.78,1112.04 1782.79,1112.29 1784.8,1112.53 1786.81,1112.78 1788.82,1113.02 1790.83,1113.26 1792.84,1113.5 1794.85,1113.75 1796.85,1113.99 1798.86,1114.23 1800.87,1114.47 1802.88,1114.71 1804.89,1114.95 1806.9,1115.19 1808.91,1115.43 1810.92,1115.67 1812.93,1115.9 1814.94,1116.14 1816.95,1116.38 1818.96,1116.62 1820.97,1116.85 1822.98,1117.09 1824.99,1117.33 1827,1117.56 1829.01,1117.8 1831.02,1118.03 1833.03,1118.27 1835.04,1118.5 1837.05,1118.74 1839.06,1118.97 1841.07,1119.2 1843.08,1119.44 1845.09,1119.67 1847.1,1119.9 1849.11,1120.13 1851.12,1120.36 1853.13,1120.6 1855.14,1120.83 1857.15,1121.06 1859.16,1121.29 1861.17,1121.52 1863.18,1121.75 1865.19,1121.97 1867.2,1122.2 1869.21,1122.43 1871.22,1122.66 1873.23,1122.89 1875.24,1123.11 1877.25,1123.34 1879.26,1123.57 1881.27,1123.79 1883.28,1124.02 1885.29,1124.25 1887.3,1124.47 1889.31,1124.7 1891.32,1124.92 1893.33,1125.14 1895.34,1125.37 1897.35,1125.59 1899.36,1125.81 1901.37,1126.04 1903.38,1126.26 1905.39,1126.48 1907.4,1126.7 1909.41,1126.93 1911.42,1127.15 1913.43,1127.37 1915.44,1127.59 1917.45,1127.81 1919.46,1128.03 1921.47,1128.25 1923.48,1128.47 1925.49,1128.69 1927.5,1128.9 1929.51,1129.12 1931.52,1129.34 1933.53,1129.56 1935.54,1129.78 1937.55,1129.99 1939.56,1130.21 1941.57,1130.42 1943.58,1130.64 1945.59,1130.86 1947.6,1131.07 1949.61,1131.29 1951.62,1131.5 1953.63,1131.72 1955.64,1131.93 1957.65,1132.14 1959.66,1132.36 1961.67,1132.57 1963.68,1132.78 1965.69,1133 1967.7,1133.21 1969.7,1133.42 1971.71,1133.63 1973.72,1133.84 1975.73,1134.05 1977.74,1134.26 1979.75,1134.47 1981.76,1134.68 1983.77,1134.89 1985.78,1135.1 1987.79,1135.31 1989.8,1135.52 1991.81,1135.73 1993.82,1135.94 1995.83,1136.15 1997.84,1136.35 1999.85,1136.56 2001.86,1136.77 2003.87,1136.98 2005.88,1137.18 2007.89,1137.39 2009.9,1137.59 2011.91,1137.8 2013.92,1138.01 2015.93,1138.21 2017.94,1138.42 2019.95,1138.62 2021.96,1138.82 2023.97,1139.03 2025.98,1139.23 2027.99,1139.43 2030,1139.64 2032.01,1139.84 2034.02,1140.04 2036.03,1140.24 2038.04,1140.45 2040.05,1140.65 2042.06,1140.85 2044.07,1141.05 2046.08,1141.25 2048.09,1141.45 2050.1,1141.65 2052.11,1141.85 2054.12,1142.05 2056.13,1142.25 2058.14,1142.45 2060.15,1142.65 2062.16,1142.85 2064.17,1143.05 2066.18,1143.24 2068.19,1143.44 2070.2,1143.64 2072.21,1143.84 2074.22,1144.03 2076.23,1144.23 2078.24,1144.42 2080.25,1144.62 2082.26,1144.82 2084.27,1145.01 2086.28,1145.21 2088.29,1145.4 2090.3,1145.6 2092.31,1145.79 2094.32,1145.99 2096.33,1146.18 2098.34,1146.37 2100.35,1146.57 2102.36,1146.76"/>
</g>
</g>
<g clip-path="url(#c0)">
<g fill="none" stroke-linecap="butt" stroke-width="2.08">
<path d="M94.48,1570.86l0,-1547.24"/>
<path d="M94.48,1570.86l12.5,0M94.48,1500.53l12.5,0M94.48,1430.2l12.5,0M94.48,1359.87l12.5,0M94.48,1289.54l12.5,0M94.48,1219.21l12.5,0M94.48,1148.89l12.5,0M94.48,1078.56l12.5,0M94.48,1008.23l12.5,0M94.48,937.9l12.5,0M94.48,867.57l12.5,0M94.48,797.24l12.5,0M94.48,726.91l12.5,0M94.48,656.58l12.5,0M94.48,586.25l12.5,0M94.48,515.92l12.5,0M94.48,445.59l12.5,0M94.48,375.26l12.5,0M94.48,304.93l12.5,0M94.48,234.6l12.5,0M94.48,164.28l12.5,0M94.48,93.95l12.5,0M94.48,23.62l12.5,0"/>
<path d="M94.48,1570.86l25,0M94.48,1289.54l25,0M94.48,1008.23l25,0M94.48,726.91l25,0M94.48,445.59l25,0M94.48,164.28l25,0"/>
</g>
<g fill="none" stroke-width="0.1">
<path d="m63.56,1591.35c-2.96,0,-5.38,-0.83,-7.26,-2.49c-1.87,-1.66,-3.26,-3.99,-4.14,-6.99c-0.88,-2.99,-1.32,-6.5,-1.32,-10.51c0,-4.01,0.44,-7.49,1.32,-10.46c0.88,-2.96,2.26,-5.25,4.14,-6.88c1.87,-1.62,4.31,-2.43,7.31,-2.43c2.81,0,5.16,0.81,7.04,2.43c1.87,1.62,3.27,3.92,4.2,6.91c0.92,2.98,1.38,6.47,1.38,10.48c0,4.01,-0.46,7.5,-1.4,10.48c-0.93,2.98,-2.33,5.3,-4.2,6.96c-1.86,1.66,-4.21,2.49,-7.07,2.49m0,-2.92c2.63,0,4.47,-1.49,5.5,-4.49c1.02,-2.99,1.54,-7.17,1.54,-12.51c0,-5.38,-0.51,-9.54,-1.54,-12.49c-1.02,-2.94,-2.84,-4.41,-5.44,-4.41c-2.63,0,-4.48,1.47,-5.55,4.41c-1.06,2.94,-1.59,7.1,-1.59,12.49c0,5.34,0.52,9.52,1.57,12.51c1.04,2.99,2.89,4.49,5.52,4.49" fill="#000000" stroke="none" fill-opacity="1"/>
<path d="m19.72,1310.04c-2.96,0,-5.38,-0.83,-7.26,-2.49c-1.87,-1.66,-3.26,-3.99,-4.14,-6.99c-0.88,-2.99,-1.32,-6.5,-1.32,-10.51c0,-4.01,0.44,-7.49,1.32,-10.46c0.88,-2.96,2.26,-5.25,4.14,-6.88c1.87,-1.62,4.31,-2.43,7.31,-2.43c2.81,0,5.16,0.81,7.04,2.43c1.87,1.62,3.27,3.92,4.2,6.91c0.92,2.98,1.38,6.47,1.38,10.48c0,4.01,-0.46,7.5,-1.4,10.48c-0.93,2.98,-2.33,5.3,-4.2,6.96c-1.86,1.66,-4.21,2.49,-7.07,2.49m0,-2.92c2.63,0,4.47,-1.49,5.5,-4.49c1.02,-2.99,1.54,-7.17,1.54,-12.51c0,-5.38,-0.51,-9.54,-1.54,-12.49c-1.02,-2.94,-2.84,-4.41,-5.44,-4.41c-2.63,0,-4.48,1.47,-5.55,4.41c-1.06,2.94,-1.59,7.1,-1.59,12.49c0,5.34,0.52,9.52,1.57,12.51c1.04,2.99,2.89,4.49,5.52,4.49m21.89,2.76c-0.93,0,-1.74,-0.27,-2.41,-0.81c-0.66,-0.54,-1,-1.49,-1,-2.87c0,-1.4,0.33,-2.37,1,-2.9c0.66,-0.52,1.47,-0.78,2.41,-0.78c0.93,0,1.74,0.26,2.41,0.78c0.66,0.52,1,1.49,1,2.9c0,1.37,-0.33,2.33,-1,2.87c-0.66,0.54,-1.47,0.81,-2.41,0.81m10.08,-0.37l0,-3.95l9.05,-10.46c1.91,-2.24,3.43,-4.18,4.55,-5.82c1.12,-1.64,1.92,-3.2,2.41,-4.68c0.48,-1.48,0.73,-3.05,0.73,-4.71c0,-2.05,-0.44,-3.72,-1.32,-4.98c-0.88,-1.26,-2.28,-1.89,-4.2,-1.89c-1.62,0,-2.87,0.37,-3.74,1.13c-0.86,0.75,-1.45,1.74,-1.76,2.95c-0.3,1.21,-0.46,2.53,-0.46,3.98c-1.3,0,-2.4,-0.24,-3.3,-0.73c-0.9,-0.48,-1.35,-1.41,-1.35,-2.79c0,-2.09,0.89,-3.83,2.68,-5.2c1.78,-1.37,4.43,-2.05,7.94,-2.05c3.43,0,6.12,0.82,8.07,2.46c1.95,1.64,2.92,3.83,2.92,6.58c0,2.52,-0.79,4.99,-2.38,7.39c-1.58,2.4,-3.81,5.17,-6.66,8.31l-9.15,10.13l12.52,0c1.62,0,2.72,-0.41,3.3,-1.24c0.57,-0.83,0.99,-1.77,1.24,-2.81l0.21,-0.97l2.27,0l-0.27,9.37l-23.3,0" fill="#000000" stroke="none" fill-opacity="1"/>
<path d="m19.72,1028.72c-2.96,0,-5.38,-0.83,-7.26,-2.49c-1.87,-1.66,-3.26,-3.99,-4.14,-6.99c-0.88,-2.99,-1.32,-6.5,-1.32,-10.51c0,-4.01,0.44,-7.49,1.32,-10.46c0.88,-2.96,2.26,-5.25,4.14,-6.88c1.87,-1.62,4.31,-2.43,7.31,-2.43c2.81,0,5.16,0.81,7.04,2.43c1.87,1.62,3.27,3.92,4.2,6.91c0.92,2.98,1.38,6.47,1.38,10.48c0,4.01,-0.46,7.5,-1.4,10.48c-0.93,2.98,-2.33,5.3,-4.2,6.96c-1.86,1.66,-4.21,2.49,-7.07,2.49m0,-2.92c2.63,0,4.47,-1.49,5.5,-4.49c1.02,-2.99,1.54,-7.17,1.54,-12.51c0,-5.38,-0.51,-9.54,-1.54,-12.49c-1.02,-2.94,-2.84,-4.41,-5.44,-4.41c-2.63,0,-4.48,1.47,-5.55,4.41c-1.06,2.94,-1.59,7.1,-1.59,12.49c0,5.34,0.52,9.52,1.57,12.51c1.04,2.99,2.89,4.49,5.52,4.49m21.89,2.76c-0.93,0,-1.74,-0.27,-2.41,-0.81c-0.66,-0.54,-1,-1.49,-1,-2.87c0,-1.4,0.33,-2.37,1,-2.9c0.66,-0.52,1.47,-0.78,2.41,-0.78c0.93,0,1.74,0.26,2.41,0.78c0.66,0.52,1,1.49,1,2.9c0,1.37,-0.33,2.33,-1,2.87c-0.66,0.54,-1.47,0.81,-2.41,0.81m18.42,-0.37l0,-2.27l1.51,0c1.22,0,2.27,-0.22,3.14,-0.67c0.86,-0.45,1.3,-1.52,1.3,-3.22l0,-4.44l-16.69,0l0,-2.22l16.74,-25.85l5.15,0l0,25.04l6.72,0l0,3.03l-6.72,0l0,4.44c0,1.69,0.43,2.77,1.3,3.22c0.86,0.45,1.91,0.67,3.14,0.67l0.7,0l0,2.27l-16.31,0m-6.82,-13.65l12.79,0l0,-10.02c0,-1.04,0,-2.23,0.02,-3.55c0.01,-1.31,0.06,-2.64,0.13,-3.98c0.07,-1.33,0.14,-2.56,0.21,-3.68c-0.18,0.36,-0.47,0.9,-0.86,1.62c-0.39,0.72,-0.84,1.5,-1.35,2.35c-0.5,0.84,-0.99,1.66,-1.46,2.43c-0.46,0.77,-0.86,1.41,-1.19,1.92l-8.29,12.9" fill="#000000" stroke="none" fill-opacity="1"/>
<path d="m19.72,747.4c-2.96,0,-5.38,-0.83,-7.26,-2.49c-1.87,-1.66,-3.26,-3.99,-4.14,-6.99c-0.88,-2.99,-1.32,-6.5,-1.32,-10.51c0,-4.01,0.44,-7.49,1.32,-10.46c0.88,-2.96,2.26,-5.25,4.14,-6.88c1.87,-1.62,4.31,-2.43,7.31,-2.43c2.81,0,5.16,0.81,7.04,2.43c1.87,1.62,3.27,3.92,4.2,6.91c0.92,2.98,1.38,6.47,1.38,10.48c0,4.01,-0.46,7.5,-1.4,10.48c-0.93,2.98,-2.33,5.3,-4.2,6.96c-1.86,1.66,-4.21,2.49,-7.07,2.49m0,-2.92c2.63,0,4.47,-1.49,5.5,-4.49c1.02,-2.99,1.54,-7.17,1.54,-12.51c0,-5.38,-0.51,-9.54,-1.54,-12.49c-1.02,-2.94,-2.84,-4.41,-5.44,-4.41c-2.63,0,-4.48,1.47,-5.55,4.41c-1.06,2.94,-1.59,7.1,-1.59,12.49c0,5.34,0.52,9.52,1.57,12.51c1.04,2.99,2.89,4.49,5.52,4.49m21.89,2.76c-0.93,0,-1.74,-0.27,-2.41,-0.81c-0.66,-0.54,-1,-1.49,-1,-2.87c0,-1.4,0.33,-2.37,1,-2.9c0.66,-0.52,1.47,-0.78,2.41,-0.78c0.93,0,1.74,0.26,2.41,0.78c0.66,0.52,1,1.49,1,2.9c0,1.37,-0.33,2.33,-1,2.87c-0.66,0.54,-1.47,0.81,-2.41,0.81m22.65,0.16c-2.38,0,-4.52,-0.67,-6.42,-2.03c-1.89,-1.35,-3.39,-3.5,-4.49,-6.45c-1.1,-2.94,-1.65,-6.8,-1.65,-11.57c0,-2.56,0.28,-5.03,0.86,-7.39c0.57,-2.36,1.44,-4.48,2.6,-6.34c1.15,-1.86,2.62,-3.32,4.41,-4.38c1.78,-1.06,3.87,-1.59,6.26,-1.59c2.99,0,5.23,0.57,6.72,1.73c1.48,1.15,2.22,2.47,2.22,3.95c0,2.16,-1.39,3.25,-4.17,3.25c0,-1.77,-0.36,-3.27,-1.08,-4.49c-0.72,-1.22,-1.95,-1.84,-3.68,-1.84c-2.71,0,-4.77,1.34,-6.17,4.03c-1.4,2.69,-2.2,6.65,-2.38,11.89c0.9,-0.72,1.97,-1.37,3.22,-1.95c1.24,-0.57,2.75,-0.86,4.52,-0.86c3.32,0,5.97,0.98,7.94,2.95c1.96,1.96,2.95,4.68,2.95,8.15c0,2.53,-0.46,4.77,-1.38,6.72c-0.92,1.95,-2.24,3.47,-3.98,4.57c-1.73,1.1,-3.83,1.65,-6.28,1.65m0.16,-2.98c1.91,0,3.38,-0.74,4.41,-2.24c1.03,-1.49,1.54,-3.89,1.54,-7.18c0,-3.1,-0.55,-5.36,-1.65,-6.77c-1.1,-1.4,-2.7,-2.11,-4.79,-2.11c-1.4,0,-2.7,0.33,-3.87,1c-1.17,0.66,-2.12,1.38,-2.84,2.14c0.07,5.42,0.75,9.3,2.03,11.65c1.28,2.34,3,3.52,5.17,3.52" fill="#000000" stroke="none" fill-opacity="1"/>
<path d="m19.72,466.08c-2.96,0,-5.38,-0.83,-7.26,-2.49c-1.87,-1.66,-3.26,-3.99,-4.14,-6.99c-0.88,-2.99,-1.32,-6.5,-1.32,-10.51c0,-4.01,0.44,-7.49,1.32,-10.46c0.88,-2.96,2.26,-5.25,4.14,-6.88c1.87,-1.62,4.31,-2.43,7.31,-2.43c2.81,0,5.16,0.81,7.04,2.43c1.87,1.62,3.27,3.92,4.2,6.91c0.92,2.98,1.38,6.47,1.38,10.48c0,4.01,-0.46,7.5,-1.4,10.48c-0.93,2.98,-2.33,5.3,-4.2,6.96c-1.86,1.66,-4.21,2.49,-7.07,2.49m0,-2.92c2.63,0,4.47,-1.49,5.5,-4.49c1.02,-2.99,1.54,-7.17,1.54,-12.51c0,-5.38,-0.51,-9.54,-1.54,-12.49c-1.02,-2.94,-2.84,-4.41,-5.44,-4.41c-2.63,0,-4.48,1.47,-5.55,4.41c-1.06,2.94,-1.59,7.1,-1.59,12.49c0,5.34,0.52,9.52,1.57,12.51c1.04,2.99,2.89,4.49,5.52,4.49m21.89,2.76c-0.93,0,-1.74,-0.27,-2.41,-0.81c-0.66,-0.54,-1,-1.49,-1,-2.87c0,-1.4,0.33,-2.37,1,-2.9c0.66,-0.52,1.47,-0.78,2.41,-0.78c0.93,0,1.74,0.26,2.41,0.78c0.66,0.52,1,1.49,1,2.9c0,1.37,-0.33,2.33,-1,2.87c-0.66,0.54,-1.47,0.81,-2.41,0.81m21.57,0.16c-2.71,0,-4.97,-0.46,-6.8,-1.38c-1.82,-0.92,-3.19,-2.15,-4.11,-3.71c-0.92,-1.55,-1.38,-3.27,-1.38,-5.14c0,-1.73,0.36,-3.19,1.08,-4.39c0.72,-1.19,1.7,-2.22,2.95,-3.08c1.24,-0.86,2.64,-1.67,4.2,-2.43c-2.05,-1.15,-3.73,-2.52,-5.03,-4.11c-1.3,-1.59,-1.95,-3.52,-1.95,-5.79c0,-1.66,0.39,-3.23,1.19,-4.71c0.79,-1.48,2.05,-2.68,3.76,-3.6c1.71,-0.92,3.96,-1.38,6.74,-1.38c3.39,0,6.02,0.87,7.88,2.62c1.86,1.75,2.79,3.98,2.79,6.69c0,2.38,-0.66,4.23,-2,5.55c-1.33,1.31,-3.1,2.52,-5.31,3.6c2.67,1.26,4.84,2.72,6.5,4.39c1.66,1.66,2.49,3.66,2.49,6.01c0,3.43,-1.17,6.1,-3.52,8.02c-2.34,1.91,-5.51,2.87,-9.48,2.87m1.35,-22.54c2.02,-1.01,3.38,-2.13,4.09,-3.36c0.7,-1.22,1.05,-2.78,1.05,-4.66c0,-1.12,-0.19,-2.18,-0.59,-3.19c-0.39,-1.01,-1.04,-1.84,-1.95,-2.49c-0.9,-0.65,-2.11,-0.97,-3.63,-0.97c-2.02,0,-3.57,0.61,-4.66,1.84c-1.08,1.22,-1.62,2.78,-1.62,4.66c0,1.95,0.61,3.52,1.84,4.71c1.22,1.19,3.05,2.34,5.47,3.46m-1.08,20.05c2.34,0,4.23,-0.67,5.66,-2.03c1.42,-1.35,2.14,-3.07,2.14,-5.17c0,-1.84,-0.71,-3.45,-2.14,-4.82c-1.42,-1.37,-3.89,-2.81,-7.39,-4.33c-1.69,0.9,-3.05,2.09,-4.06,3.57c-1.01,1.48,-1.51,3.23,-1.51,5.25c0,2.23,0.61,4.05,1.84,5.44c1.22,1.39,3.05,2.08,5.47,2.08" fill="#000000" stroke="none" fill-opacity="1"/>
<path d="m53.59,184.22l0,-2.27l3.63,0c1.22,0,2.27,-0.22,3.14,-0.67c0.86,-0.45,1.3,-1.52,1.3,-3.22l0,-28.45c-1.37,1.66,-2.61,3.01,-3.71,4.06c-1.1,1.04,-2.19,1.57,-3.27,1.57c-0.79,0,-1.44,-0.27,-1.95,-0.81c-0.5,-0.54,-0.75,-1.24,-0.75,-2.11c1.08,-0.28,2.23,-0.72,3.44,-1.3c1.21,-0.57,2.7,-1.53,4.47,-2.87l3.79,-2.81l3.46,0l0,32.73c0,1.69,0.43,2.77,1.3,3.22c0.86,0.45,1.91,0.67,3.14,0.67l2.65,0l0,2.27l-20.65,0" fill="#000000" stroke="none" fill-opacity="1"/>
</g>
<g fill="none" stroke-linecap="butt" stroke-width="2.08">
<path d="M2102.36,1570.86l0,-1547.24"/>
<path d="M2102.36,1570.86l-12.5,0M2102.36,1500.53l-12.5,0M2102.36,1430.2l-12.5,0M2102.36,1359.87l-12.5,0M2102.36,1289.54l-12.5,0M2102.36,1219.21l-12.5,0M2102.36,1148.89l-12.5,0M2102.36,1078.56l-12.5,0M2102.36,1008.23l-12.5,0M2102.36,937.9l-12.5,0M2102.36,867.57l-12.5,0M2102.36,797.24l-12.5,0M2102.36,726.91l-12.5,0M2102.36,656.58l-12.5,0M2102.36,586.25l-12.5,0M2102.36,515.92l-12.5,0M2102.36,445.59l-12.5,0M2102.36,375.26l-12.5,0M2102.36,304.93l-12.5,0M2102.36,234.6l-12.5,0M2102.36,164.28l-12.5,0M2102.36,93.95l-12.5,0M2102.36,23.62l-12.5,0"/>
<path d="M2102.36,1570.86l-25,0M2102.36,1289.54l-25,0M2102.36,1008.23l-25,0M2102.36,726.91l-25,0M2102.36,445.59l-25,0M2102.36,164.28l-25,0"/>
<path d="M94.48,1570.86l2007.87,0"/>
<path d="M94.48,1570.86l0,-12.5M194.88,1570.86l0,-12.5M295.27,1570.86l0,-12.5M395.66,1570.86l0,-12.5M496.06,1570.86l0,-12.5M596.45,1570.86l0,-12.5M696.85,1570.86l0,-12.5M797.24,1570.86l0,-12.5M897.63,1570.86l0,-12.5M998.03,1570.86l0,-12.5M1098.42,1570.86l0,-12.5M1198.81,1570.86l0,-12.5M1299.21,1570.86l0,-12.5M1399.6,1570.86l0,-12.5M1500,1570.86l0,-12.5M1600.39,1570.86l0,-12.5M1700.78,1570.86l0,-12.5M1801.18,1570.86l0,-12.5M1901.57,1570.86l0,-12.5M2001.96,1570.86l0,-12.5M2102.36,1570.86l0,-12.5"/>
<path d="M94.48,1570.86l0,-25M496.06,1570.86l0,-25M897.63,1570.86l0,-25M1299.21,1570.86l0,-25M1700.78,1570.86l0,-25M2102.36,1570.86l0,-25"/>
</g>
<g fill="none" stroke-width="0.1">
<path d="m94.51,1645.2c-2.96,0,-5.38,-0.83,-7.26,-2.49c-1.87,-1.66,-3.26,-3.99,-4.14,-6.99c-0.88,-2.99,-1.32,-6.5,-1.32,-10.51c0,-4.01,0.44,-7.49,1.32,-10.46c0.88,-2.96,2.26,-5.25,4.14,-6.88c1.87,-1.62,4.31,-2.43,7.31,-2.43c2.81,0,5.16,0.81,7.04,2.43c1.87,1.62,3.27,3.92,4.2,6.91c0.92,2.98,1.38,6.47,1.38,10.48c0,4.01,-0.46,7.5,-1.4,10.48c-0.93,2.98,-2.33,5.3,-4.2,6.96c-1.86,1.66,-4.21,2.49,-7.07,2.49m0,-2.92c2.63,0,4.47,-1.49,5.5,-4.49c1.02,-2.99,1.54,-7.17,1.54,-12.51c0,-5.38,-0.51,-9.54,-1.54,-12.49c-1.02,-2.94,-2.84,-4.41,-5.44,-4.41c-2.63,0,-4.48,1.47,-5.55,4.41c-1.06,2.94,-1.59,7.1,-1.59,12.49c0,5.34,0.52,9.52,1.57,12.51c1.04,2.99,2.89,4.49,5.52,4.49" fill="#000000" stroke="none" fill-opacity="1"/>
<path d="m484.22,1644.66l0,-3.95l9.05,-10.46c1.91,-2.24,3.43,-4.18,4.55,-5.82c1.12,-1.64,1.92,-3.2,2.41,-4.68c0.48,-1.48,0.73,-3.05,0.73,-4.71c0,-2.05,-0.44,-3.72,-1.32,-4.98c-0.88,-1.26,-2.28,-1.89,-4.2,-1.89c-1.62,0,-2.87,0.37,-3.74,1.13c-0.86,0.75,-1.45,1.74,-1.76,2.95c-0.3,1.21,-0.46,2.53,-0.46,3.98c-1.3,0,-2.4,-0.24,-3.3,-0.73c-0.9,-0.48,-1.35,-1.41,-1.35,-2.79c0,-2.09,0.89,-3.83,2.68,-5.2c1.78,-1.37,4.43,-2.05,7.94,-2.05c3.43,0,6.12,0.82,8.07,2.46c1.95,1.64,2.92,3.83,2.92,6.58c0,2.52,-0.79,4.99,-2.38,7.39c-1.58,2.4,-3.81,5.17,-6.66,8.31l-9.15,10.13l12.52,0c1.62,0,2.72,-0.41,3.3,-1.24c0.57,-0.83,0.99,-1.77,1.24,-2.81l0.21,-0.97l2.27,0l-0.27,9.37l-23.3,0" fill="#000000" stroke="none" fill-opacity="1"/>
<path d="m894.14,1644.66l0,-2.27l1.51,0c1.22,0,2.27,-0.22,3.14,-0.67c0.86,-0.45,1.3,-1.52,1.3,-3.22l0,-4.44l-16.69,0l0,-2.22l16.74,-25.85l5.15,0l0,25.04l6.72,0l0,3.03l-6.72,0l0,4.44c0,1.69,0.43,2.77,1.3,3.22c0.86,0.45,1.91,0.67,3.14,0.67l0.7,0l0,2.27l-16.31,0m-6.82,-13.65l12.79,0l0,-10.02c0,-1.04,0,-2.23,0.02,-3.55c0.01,-1.31,0.06,-2.64,0.13,-3.98c0.07,-1.33,0.14,-2.56,0.21,-3.68c-0.18,0.36,-0.47,0.9,-0.86,1.62c-0.39,0.72,-0.84,1.5,-1.35,2.35c-0.5,0.84,-0.99,1.66,-1.46,2.43c-0.46,0.77,-0.86,1.41,-1.19,1.92l-8.29,12.9" fill="#000000" stroke="none" fill-opacity="1"/>
<path d="m1299.94,1645.2c-2.38,0,-4.52,-0.67,-6.42,-2.03c-1.89,-1.35,-3.39,-3.5,-4.49,-6.45c-1.1,-2.94,-1.65,-6.8,-1.65,-11.57c0,-2.56,0.28,-5.03,0.86,-7.39c0.57,-2.36,1.44,-4.48,2.6,-6.34c1.15,-1.86,2.62,-3.32,4.41,-4.38c1.78,-1.06,3.87,-1.59,6.26,-1.59c2.99,0,5.23,0.57,6.72,1.73c1.48,1.15,2.22,2.47,2.22,3.95c0,2.16,-1.39,3.25,-4.17,3.25c0,-1.77,-0.36,-3.27,-1.08,-4.49c-0.72,-1.22,-1.95,-1.84,-3.68,-1.84c-2.71,0,-4.77,1.34,-6.17,4.03c-1.4,2.69,-2.2,6.65,-2.38,11.89c0.9,-0.72,1.97,-1.37,3.22,-1.95c1.24,-0.57,2.75,-0.86,4.52,-0.86c3.32,0,5.97,0.98,7.94,2.95c1.96,1.96,2.95,4.68,2.95,8.15c0,2.53,-0.46,4.77,-1.38,6.72c-0.92,1.95,-2.24,3.47,-3.98,4.57c-1.73,1.1,-3.83,1.65,-6.28,1.65m0.16,-2.98c1.91,0,3.38,-0.74,4.41,-2.24c1.03,-1.49,1.54,-3.89,1.54,-7.18c0,-3.1,-0.55,-5.36,-1.65,-6.77c-1.1,-1.4,-2.7,-2.11,-4.79,-2.11c-1.4,0,-2.7,0.33,-3.87,1c-1.17,0.66,-2.12,1.38,-2.84,2.14c0.07,5.42,0.75,9.3,2.03,11.65c1.28,2.34,3,3.52,5.17,3.52" fill="#000000" stroke="none" fill-opacity="1"/>
<path d="m1700.43,1645.2c-2.71,0,-4.97,-0.46,-6.8,-1.38c-1.82,-0.92,-3.19,-2.15,-4.11,-3.71c-0.92,-1.55,-1.38,-3.27,-1.38,-5.14c0,-1.73,0.36,-3.19,1.08,-4.39c0.72,-1.19,1.7,-2.22,2.95,-3.08c1.24,-0.86,2.64,-1.67,4.2,-2.43c-2.05,-1.15,-3.73,-2.52,-5.03,-4.11c-1.3,-1.59,-1.95,-3.52,-1.95,-5.79c0,-1.66,0.39,-3.23,1.19,-4.71c0.79,-1.48,2.05,-2.68,3.76,-3.6c1.71,-0.92,3.96,-1.38,6.74,-1.38c3.39,0,6.02,0.87,7.88,2.62c1.86,1.75,2.79,3.98,2.79,6.69c0,2.38,-0.66,4.23,-2,5.55c-1.33,1.31,-3.1,2.52,-5.31,3.6c2.67,1.26,4.84,2.72,6.5,4.39c1.66,1.66,2.49,3.66,2.49,6.01c0,3.43,-1.17,6.1,-3.52,8.02c-2.34,1.91,-5.51,2.87,-9.48,2.87m1.35,-22.54c2.02,-1.01,3.38,-2.13,4.09,-3.36c0.7,-1.22,1.05,-2.78,1.05,-4.66c0,-1.12,-0.19,-2.18,-0.59,-3.19c-0.39,-1.01,-1.04,-1.84,-1.95,-2.49c-0.9,-0.65,-2.11,-0.97,-3.63,-0.97c-2.02,0,-3.57,0.61,-4.66,1.84c-1.08,1.22,-1.62,2.78,-1.62,4.66c0,1.95,0.61,3.52,1.84,4.71c1.22,1.19,3.05,2.34,5.47,3.46m-1.08,20.05c2.34,0,4.23,-0.67,5.66,-2.03c1.42,-1.35,2.14,-3.07,2.14,-5.17c0,-1.84,-0.71,-3.45,-2.14,-4.82c-1.42,-1.37,-3.89,-2.81,-7.39,-4.33c-1.69,0.9,-3.05,2.09,-4.06,3.57c-1.01,1.48,-1.51,3.23,-1.51,5.25c0,2.23,0.61,4.05,1.84,5.44c1.22,1.39,3.05,2.08,5.47,2.08" fill="#000000" stroke="none" fill-opacity="1"/>
<path d="m2070.59,1644.66l0,-2.27l3.63,0c1.22,0,2.27,-0.22,3.14,-0.67c0.86,-0.45,1.3,-1.52,1.3,-3.22l0,-28.45c-1.37,1.66,-2.61,3.01,-3.71,4.06c-1.1,1.04,-2.19,1.57,-3.27,1.57c-0.79,0,-1.44,-0.27,-1.95,-0.81c-0.5,-0.54,-0.75,-1.24,-0.75,-2.11c1.08,-0.28,2.23,-0.72,3.44,-1.3c1.21,-0.57,2.7,-1.53,4.47,-2.87l3.79,-2.81l3.46,0l0,32.73c0,1.69,0.43,2.77,1.3,3.22c0.86,0.45,1.91,0.67,3.14,0.67l2.65,0l0,2.27l-20.65,0m40.27,0.54c-2.96,0,-5.38,-0.83,-7.26,-2.49c-1.87,-1.66,-3.26,-3.99,-4.14,-6.99c-0.88,-2.99,-1.32,-6.5,-1.32,-10.51c0,-4.01,0.44,-7.49,1.32,-10.46c0.88,-2.96,2.26,-5.25,4.14,-6.88c1.87,-1.62,4.31,-2.43,7.31,-2.43c2.81,0,5.16,0.81,7.04,2.43c1.87,1.62,3.27,3.92,4.2,6.91c0.92,2.98,1.38,6.47,1.38,10.48c0,4.01,-0.46,7.5,-1.4,10.48c-0.93,2.98,-2.33,5.3,-4.2,6.96c-1.86,1.66,-4.21,2.49,-7.07,2.49m0,-2.92c2.63,0,4.47,-1.49,5.5,-4.49c1.02,-2.99,1.54,-7.17,1.54,-12.51c0,-5.38,-0.51,-9.54,-1.54,-12.49c-1.02,-2.94,-2.84,-4.41,-5.44,-4.41c-2.63,0,-4.48,1.47,-5.55,4.41c-1.06,2.94,-1.59,7.1,-1.59,12.49c0,5.34,0.52,9.52,1.57,12.51c1.04,2.99,2.89,4.49,5.52,4.49" fill="#000000" stroke="none" fill-opacity="1"/>
</g>
<g fill="none" stroke-linecap="butt" stroke-width="2.08">
<path d="M94.48,23.62l2007.87,0"/>
<path d="M94.48,23.62l0,12.5M194.88,23.62l0,12.5M295.27,23.62l0,12.5M395.66,23.62l0,12.5M496.06,23.62l0,12.5M596.45,23.62l0,12.5M696.85,23.62l0,12.5M797.24,23.62l0,12.5M897.63,23.62l0,12.5M998.03,23.62l0,12.5M1098.42,23.62l0,12.5M1198.81,23.62l0,12.5M1299.21,23.62l0,12.5M1399.6,23.62l0,12.5M1500,23.62l0,12.5M1600.39,23.62l0,12.5M1700.78,23.62l0,12.5M1801.18,23.62l0,12.5M1901.57,23.62l0,12.5M2001.96,23.62l0,12.5M2102.36,23.62l0,12.5"/>
<path d="M94.48,23.62l0,25M496.06,23.62l0,25M897.63,23.62l0,25M1299.21,23.62l0,25M1700.78,23.62l0,25M2102.36,23.62l0,25"/>
</g>
</g>
</g>
</svg>
