<?xml version="1.0" standalone="no"?>
<!DOCTYPE svg PUBLIC "-//W3C//DTD SVG 1.1//EN"
  "http://www.w3.org/Graphics/SVG/1.1/DTD/svg11.dtd">
<svg width="2362.2px" height="1771.65px" version="1.1"
    xmlns="http://www.w3.org/2000/svg"
    xmlns:xlink="http://www.w3.org/1999/xlink">
<desc>Veusz output document</desc>
<defs>
<clipPath id="c0">
<path d="m0,0l2362.2,0l0,1771.65l-2362.2,0l0,-1771.65"/>
</clipPath>
<clipPath id="c1">
<path d="m259.84,23.62l2078.74,0l0,1547.24l-2078.74,0l0,-1547.24"/>
</clipPath>
</defs>
<g stroke-linejoin="bevel" stroke-linecap="square" stroke="#000000" fill-rule="evenodd">
<g clip-path="url(#c0)">
<g fill="#ffffff" stroke-width="2.08">
<path d="m259.84,23.62l2078.74,0l0,1547.24l-2078.74,0l0,-1547.24"/>
</g>
</g>
<g clip-path="url(#c1)">
<g fill="none" stroke="#377eb8" stroke-dasharray="16.66,8.33" stroke-width="4.16">
<polyline fill="none" points="259.84,218.02 260.88,218.02 261.92,218.02 262.96,218.02 264,218.02 265.03,218.02 266.07,218.02 267.11,218.02 268.15,218.02 269.19,218.02 270.23,218.02 271.27,218.02 272.31,218.02 273.35,218.02 274.39,218.02 275.43,218.02 276.47,218.02 277.51,218.02 278.55,218.02 279.59,218.02 280.62,218.02 281.66,218.02 282.7,218.02 283.74,218.02 284.78,218.02 285.82,218.02 286.86,218.02 287.9,218.02 288.94,218.02 289.98,218.02 291.02,218.02 292.06,218.02 293.1,218.02 294.14,218.02 295.18,218.02 296.22,218.02 297.25,218.02 298.29,218.02 299.33,218.02 300.37,218.02 301.41,218.02 302.45,218.02 303.49,218.02 304.53,218.02 305.57,218.02 306.61,218.02 307.65,218.02 308.69,218.02 309.73,218.02 310.77,218.02 311.81,218.02 312.85,218.02 313.88,218.02 314.92,218.02 315.96,218.02 317,218.02 318.04,218.02 319.08,218.02 320.12,218.02 321.16,218.02 322.2,218.02 323.24,218.02 324.28,218.02 325.32,218.02 326.36,218.02 327.4,218.02 328.44,218.02 329.48,218.02 330.51,218.02 331.55,218.02 332.59,218.02 333.63,218.02 334.67,218.02 335.71,218.02 336.75,218.02 337.79,218.02 338.83,218.02 339.87,218.02 340.91,218.02 341.95,218.02 342.99,218.02 344.03,218.02 345.07,218.02 346.11,218.02 347.14,218.02 348.18,218.02 349.22,218.02 350.26,218.02 351.3,218.02 352.34,218.02 353.38,218.02 354.42,218.02 355.46,218.02 356.5,218.02 357.54,218.02 358.58,218.02 359.62,218.02 360.66,218.02 361.7,218.02 362.74,218.02 363.77,218.02 364.81,218.02 365.85,218.02 366.89,218.02 367.93,218.02 368.97,218.02 370.01,218.02 371.05,218.02 372.09,218.02 373.13,218.02 374.17,218.02 375.21,218.02 376.25,218.02 377.29,218.02 378.33,218.02 379.37,218.02 380.4,218.02 381.44,218.02 382.48,218.02 383.52,218.02 384.56,218.02 385.6,218.02 386.64,218.02 387.68,218.02 388.72,218.02 389.76,218.02 390.8,218.02 391.84,218.02 392.88,218.02 393.92,218.02 394.96,218.02 396,218.02 397.03,218.02 398.07,218.02 399.11,218.02 400.15,218.02 401.19,218.02 402.23,218.02 403.27,218.02 404.31,218.02 405.35,218.02 406.39,218.02 407.43,218.02 408.47,218.02 409.51,218.02 410.55,218.02 411.59,218.02 412.62,218.02 413.66,218.02 414.7,218.02 415.74,218.02 416.78,218.02 417.82,218.02 418.86,218.02 419.9,218.02 420.94,218.02 421.98,218.02 423.02,218.02 424.06,218.02 425.1,218.02 426.14,218.02 427.18,218.02 428.22,218.02 429.25,218.02 430.29,218.02 431.33,218.02 432.37,218.02 433.41,218.02 434.45,218.02 435.49,218.02 436.53,218.02 437.57,218.02 438.61,218.02 439.65,218.02 440.69,218.02 441.73,218.02 442.77,218.02 443.81,218.02 444.85,218.02 445.88,218.02 446.92,218.02 447.96,218.02 449,218.02 450.04,218.02 451.08,218.02 452.12,218.02 453.16,218.02 454.2,218.02 455.24,218.02 456.28,218.02 457.32,218.02 458.36,218.02 459.4,218.02 460.44,218.02 461.48,218.02 462.51,218.02 463.55,218.02 464.59,218.02 465.63,218.02 466.67,218.02 467.71,191.22 468.75,191.22 469.79,191.22 470.83,191.22 471.87,191.22 472.91,191.22 473.95,191.22 474.99,191.22 476.03,191.22 477.07,191.22 478.11,191.22 479.14,191.22 480.18,191.22 481.22,191.22 482.26,191.22 483.3,191.22 484.34,191.22 485.38,191.22 486.42,191.22 487.46,191.22 488.5,191.22 489.54,191.22 490.58,191.22 491.62,191.22 492.66,191.22 493.7,191.22 494.74,191.22 495.77,191.22 496.81,191.22 497.85,191.22 498.89,191.22 499.93,191.22 500.97,191.22 502.01,191.22 503.05,191.22 504.09,191.22 505.13,191.22 506.17,191.22 507.21,191.22 508.25,191.22 509.29,191.22 510.33,191.22 511.37,191.22 512.4,191.22 513.44,191.22 514.48,191.22 515.52,191.22 516.56,191.22 517.6,191.22 518.64,191.22 519.68,191.22 520.72,191.22 521.76,191.22 522.8,191.22 523.84,191.22 524.88,191.22 525.92,191.22 526.96,191.22 528,191.22 529.03,191.22 530.07,191.22 531.11,191.22 532.15,191.22 533.19,191.22 534.23,191.22 535.27,191.22 536.31,191.22 537.35,191.22 538.39,191.22 539.43,191.22 540.47,191.22 541.51,191.22 542.55,191.22 543.59,191.22 544.62,191.22 545.66,191.22 546.7,191.22 547.74,191.22 548.78,191.22 549.82,191.22 550.86,191.22 551.9,191.22 552.94,191.22 553.98,191.22 555.02,191.22 556.06,191.22 557.1,191.22 558.14,191.22 559.18,191.22 560.22,191.22 561.25,191.22 562.29,191.22 563.33,191.22 564.37,191.22 565.41,191.22 566.45,191.22 567.49,191.22 568.53,191.22 569.57,191.22 570.61,191.22 571.65,191.22 572.69,191.22 573.73,191.22 574.77,191.22 575.81,191.22 576.85,191.22 577.88,191.22 578.92,191.22 579.96,191.22 581,191.22 582.04,191.22 583.08,191.22 584.12,191.22 585.16,191.22 586.2,191.22 587.24,191.22 588.28,191.22 589.32,191.22 590.36,191.22 591.4,191.22 592.44,191.22 593.48,191.22 594.51,191.22 595.55,191.22 596.59,191.22 597.63,191.22 598.67,191.22 599.71,191.22 600.75,191.22 601.79,191.22 602.83,191.22 603.87,191.22 604.91,191.22 605.95,191.22 606.99,191.22 608.03,191.22 609.07,191.22 610.11,191.22 611.14,191.22 612.18,191.22 613.22,191.22 614.26,191.22 615.3,191.22 616.34,191.22 617.38,191.22 618.42,191.22 619.46,191.22 620.5,191.22 621.54,191.22 622.58,191.22 623.62,191.22 624.66,191.22 625.7,191.22 626.74,191.22 627.77,191.22 628.81,191.22 629.85,191.22 630.89,191.22 631.93,191.22 632.97,191.22 634.01,191.22 635.05,191.22 636.09,191.22 637.13,191.22 638.17,191.22 639.21,191.22 640.25,191.22 641.29,191.22 642.33,191.22 643.37,191.22 644.4,191.22 645.44,191.22 646.48,191.22 647.52,191.22 648.56,191.22 649.6,191.22 650.64,191.22 651.68,191.22 652.72,191.22 653.76,191.22 654.8,191.22 655.84,191.22 656.88,191.22 657.92,191.22 658.96,191.22 660,191.22 661.03,191.22 662.07,191.22 663.11,191.22 664.15,191.22 665.19,191.22 666.23,191.22 667.27,191.22 668.31,191.22 669.35,191.22 670.39,191.22 671.43,191.22 672.47,191.22 673.51,191.22 674.55,191.22 675.59,191.22 676.62,787.57 677.66,787.57 678.7,787.57 679.74,787.57 680.78,787.57 681.82,787.57 682.86,787.57 683.9,787.57 684.94,787.57 685.98,787.57 687.02,787.57 688.06,787.57 689.1,787.57 690.14,787.57 691.18,787.57 692.22,787.57 693.25,787.57 694.29,787.57 695.33,787.57 696.37,787.57 697.41,787.57 698.45,787.57 699.49,787.57 700.53,787.57 701.57,787.57 702.61,787.57 703.65,787.57 704.69,787.57 705.73,787.57 706.77,787.57 707.81,787.57 708.85,787.57 709.88,787.57 710.92,787.57 711.96,787.57 713,787.57 714.04,787.57 715.08,787.57 716.12,787.57 717.16,787.57 718.2,787.57 719.24,787.57 720.28,787.57 721.32,787.57 722.36,787.57 723.4,787.57 724.44,787.57 725.48,787.57 726.51,787.57 727.55,787.57 728.59,787.57 729.63,787.57 730.67,787.57 731.71,787.57 732.75,787.57 733.79,787.57 734.83,787.57 735.87,787.57 736.91,787.57 737.95,787.57 738.99,787.57 740.03,787.57 741.07,787.57 742.11,787.57 743.14,787.57 744.18,787.57 745.22,787.57 746.26,787.57 747.3,787.57 748.34,787.57 749.38,787.57 750.42,787.57 751.46,787.57 752.5,787.57 753.54,787.57 754.58,787.57 755.62,787.57 756.66,787.57 757.7,787.57 758.74,787.57 759.77,787.57 760.81,787.57 761.85,787.57 762.89,787.57 763.93,787.57 764.97,787.57 766.01,787.57 767.05,787.57 768.09,787.57 769.13,787.57 770.17,787.57 771.21,787.57 772.25,787.57 773.29,787.57 774.33,787.57 775.37,787.57 776.4,787.57 777.44,787.57 778.48,787.57 779.52,787.57 780.56,787.57 781.6,787.57 782.64,787.57 783.68,787.57 784.72,787.57 785.76,787.57 786.8,787.57 787.84,787.57 788.88,787.57 789.92,787.57 790.96,787.57 792,787.57 793.03,787.57 794.07,787.57 795.11,787.57 796.15,787.57 797.19,787.57 798.23,787.57 799.27,787.57 800.31,787.57 801.35,787.57 802.39,787.57 803.43,787.57 804.47,787.57 805.51,787.57 806.55,787.57 807.59,787.57 808.62,787.57 809.66,787.57 810.7,787.57 811.74,787.57 812.78,787.57 813.82,787.57 814.86,787.57 815.9,787.57 816.94,787.57 817.98,787.57 819.02,787.57 820.06,787.57 821.1,787.57 822.14,787.57 823.18,787.57 824.22,787.57 825.25,787.57 826.29,787.57 827.33,787.57 828.37,787.57 829.41,787.57 830.45,787.57 831.49,787.57 832.53,787.57 833.57,787.57 834.61,787.57 835.65,787.57 836.69,787.57 837.73,787.57 838.77,787.57 839.81,787.57 840.85,787.57 841.88,787.57 842.92,787.57 843.96,787.57 845,787.57 846.04,787.57 847.08,787.57 848.12,787.57 849.16,787.57 850.2,787.57 851.24,787.57 852.28,787.57 853.32,787.57 854.36,787.57 855.4,787.57 856.44,787.57 857.48,787.57 858.51,787.57 859.55,787.57 860.59,787.57 861.63,787.57 862.67,787.57 863.71,787.57 864.75,787.57 865.79,787.57 866.83,787.57 867.87,787.57 868.91,787.57 869.95,787.57 870.99,787.57 872.03,787.57 873.07,787.57 874.11,787.57 875.14,787.57 876.18,787.57 877.22,787.57 878.26,787.57 879.3,787.57 880.34,787.57 881.38,787.57 882.42,787.57 883.46,787.57 884.5,1377.2 885.54,1377.2 886.58,1377.2 887.62,1377.2 888.66,1377.2 889.7,1377.2 890.74,1377.2 891.77,1377.2 892.81,1377.2 893.85,1377.2 894.89,1377.2 895.93,1377.2 896.97,1377.2 898.01,1377.2 899.05,1377.2 900.09,1377.2 901.13,1377.2 902.17,1377.2 903.21,1377.2 904.25,1377.2 905.29,1377.2 906.33,1377.2 907.37,1377.2 908.4,1377.2 909.44,1377.2 910.48,1377.2 911.52,1377.2 912.56,1377.2 913.6,1377.2 914.64,1377.2 915.68,1377.2 916.72,1377.2 917.76,1377.2 918.8,1377.2 919.84,1377.2 920.88,1377.2 921.92,1377.2 922.96,1377.2 924,1377.2 925.03,1377.2 926.07,1377.2 927.11,1377.2 928.15,1377.2 929.19,1377.2 930.23,1377.2 931.27,1377.2 932.31,1377.2 933.35,1377.2 934.39,1377.2 935.43,1377.2 936.47,1377.2 937.51,1377.2 938.55,1377.2 939.59,1377.2 940.62,1377.2 941.66,1377.2 942.7,1377.2 943.74,1377.2 944.78,1377.2 945.82,1377.2 946.86,1377.2 947.9,1377.2 948.94,1377.2 949.98,1377.2 951.02,1377.2 952.06,1377.2 953.1,1377.2 954.14,1377.2 955.18,1377.2 956.22,1377.2 957.25,1377.2 958.29,1377.2 959.33,1377.2 960.37,1377.2 961.41,1377.2 962.45,1377.2 963.49,1377.2 964.53,1377.2 965.57,1377.2 966.61,1377.2 967.65,1377.2 968.69,1377.2 969.73,1377.2 970.77,1377.2 971.81,1377.2 972.85,1377.2 973.88,1377.2 974.92,1377.2 975.96,1377.2 977,1377.2 978.04,1377.2 979.08,1377.2 980.12,1377.2 981.16,1377.2 982.2,1377.2 983.24,1377.2 984.28,1377.2 985.32,1377.2 986.36,1377.2 987.4,1377.2 988.44,1377.2 989.48,1377.2 990.51,1377.2 991.55,1377.2 992.59,1377.2 993.63,1377.2 994.67,1377.2 995.71,1377.2 996.75,1377.2 997.79,1377.2 998.83,1377.2 999.87,1377.2 1000.91,1377.2 1001.95,1377.2 1002.99,1377.2 1004.03,1377.2 1005.07,1377.2 1006.11,1377.2 1007.14,1377.2 1008.18,1377.2 1009.22,1377.2 1010.26,1377.2 1011.3,1377.2 1012.34,1377.2 1013.38,1377.2 1014.42,1377.2 1015.46,1377.2 1016.5,1377.2 1017.54,1377.2 1018.58,1377.2 1019.62,1377.2 1020.66,1377.2 1021.7,1377.2 1022.74,1377.2 1023.77,1377.2 1024.81,1377.2 1025.85,1377.2 1026.89,1377.2 1027.93,1377.2 1028.97,1377.2 1030.01,1377.2 1031.05,1377.2 1032.09,1377.2 1033.13,1377.2 1034.17,1377.2 1035.21,1377.2 1036.25,1377.2 1037.29,1377.2 1038.33,1377.2 1039.37,1377.2 1040.4,1377.2 1041.44,1377.2 1042.48,1377.2 1043.52,1377.2 1044.56,1377.2 1045.6,1377.2 1046.64,1377.2 1047.68,1377.2 1048.72,1377.2 1049.76,1377.2 1050.8,1377.2 1051.84,1377.2 1052.88,1377.2 1053.92,1377.2 1054.96,1377.2 1056,1377.2 1057.03,1377.2 1058.07,1377.2 1059.11,1377.2 1060.15,1377.2 1061.19,1377.2 1062.23,1377.2 1063.27,1377.2 1064.31,1377.2 1065.35,1377.2 1066.39,1377.2 1067.43,1377.2 1068.47,1377.2 1069.51,1377.2 1070.55,1377.2 1071.59,1377.2 1072.62,1377.2 1073.66,1377.2 1074.7,1377.2 1075.74,1377.2 1076.78,1377.2 1077.82,1377.2 1078.86,1377.2 1079.9,1377.2 1080.94,1377.2 1081.98,1377.2 1083.02,1377.2 1084.06,1377.2 1085.1,1377.2 1086.14,1377.2 1087.18,1377.2 1088.22,1377.2 1089.25,1377.2 1090.29,1377.2 1091.33,1508.15 1092.37,1508.15 1093.41,1508.15 1094.45,1508.15 1095.49,1508.15 1096.53,1508.15 1097.57,1508.15 1098.61,1508.15 1099.65,1508.15 1100.69,1508.15 1101.73,1508.15 1102.77,1508.15 1103.81,1508.15 1104.85,1508.15 1105.88,1508.15 1106.92,1508.15 1107.96,1508.15 1109,1508.15 1110.04,1508.15 1111.08,1508.15 1112.12,1508.15 1113.16,1508.15 1114.2,1508.15 1115.24,1508.15 1116.28,1508.15 1117.32,1508.15 1118.36,1508.15 1119.4,1508.15 1120.44,1508.15 1121.48,1508.15 1122.51,1508.15 1123.55,1508.15 1124.59,1508.15 1125.63,1508.15 1126.67,1508.15 1127.71,1508.15 1128.75,1508.15 1129.79,1508.15 1130.83,1508.15 1131.87,1508.15 1132.91,1508.15 1133.95,1508.15 1134.99,1508.15 1136.03,1508.15 1137.07,1508.15 1138.11,1508.15 1139.14,1508.15 1140.18,1508.15 1141.22,1508.15 1142.26,1508.15 1143.3,1508.15 1144.34,1508.15 1145.38,1508.15 1146.42,1508.15 1147.46,1508.15 1148.5,1508.15 1149.54,1508.15 1150.58,1508.15 1151.62,1508.15 1152.66,1508.15 1153.7,1508.15 1154.74,1508.15 1155.77,1508.15 1156.81,1508.15 1157.85,1508.15 1158.89,1508.15 1159.93,1508.15 1160.97,1508.15 1162.01,1508.15 1163.05,1508.15 1164.09,1508.15 1165.13,1508.15 1166.17,1508.15 1167.21,1508.15 1168.25,1508.15 1169.29,1508.15 1170.33,1508.15 1171.37,1508.15 1172.4,1508.15 1173.44,1508.15 1174.48,1508.15 1175.52,1508.15 1176.56,1508.15 1177.6,1508.15 1178.64,1508.15 1179.68,1508.15 1180.72,1508.15 1181.76,1508.15 1182.8,1508.15 1183.84,1508.15 1184.88,1508.15 1185.92,1508.15 1186.96,1508.15 1188,1508.15 1189.03,1508.15 1190.07,1508.15 1191.11,1508.15 1192.15,1508.15 1193.19,1508.15 1194.23,1508.15 1195.27,1508.15 1196.31,1508.15 1197.35,1508.15 1198.39,1508.15 1199.43,1508.15 1200.47,1508.15 1201.51,1508.15 1202.55,1508.15 1203.59,1508.15 1204.62,1508.15 1205.66,1508.15 1206.7,1508.15 1207.74,1508.15 1208.78,1508.15 1209.82,1508.15 1210.86,1508.15 1211.9,1508.15 1212.94,1508.15 1213.98,1508.15 1215.02,1508.15 1216.06,1508.15 1217.1,1508.15 1218.14,1508.15 1219.18,1508.15 1220.22,1508.15 1221.25,1508.15 1222.29,1508.15 1223.33,1508.15 1224.37,1508.15 1225.41,1508.15 1226.45,1508.15 1227.49,1508.15 1228.53,1508.15 1229.57,1508.15 1230.61,1508.15 1231.65,1508.15 1232.69,1508.15 1233.73,1508.15 1234.77,1508.15 1235.81,1508.15 1236.85,1508.15 1237.88,1508.15 1238.92,1508.15 1239.96,1508.15 1241,1508.15 1242.04,1508.15 1243.08,1508.15 1244.12,1508.15 1245.16,1508.15 1246.2,1508.15 1247.24,1508.15 1248.28,1508.15 1249.32,1508.15 1250.36,1508.15 1251.4,1508.15 1252.44,1508.15 1253.48,1508.15 1254.51,1508.15 1255.55,1508.15 1256.59,1508.15 1257.63,1508.15 1258.67,1508.15 1259.71,1508.15 1260.75,1508.15 1261.79,1508.15 1262.83,1508.15 1263.87,1508.15 1264.91,1508.15 1265.95,1508.15 1266.99,1508.15 1268.03,1508.15 1269.07,1508.15 1270.11,1508.15 1271.14,1508.15 1272.18,1508.15 1273.22,1508.15 1274.26,1508.15 1275.3,1508.15 1276.34,1508.15 1277.38,1508.15 1278.42,1508.15 1279.46,1508.15 1280.5,1508.15 1281.54,1508.15 1282.58,1508.15 1283.62,1508.15 1284.66,1508.15 1285.7,1508.15 1286.74,1508.15 1287.77,1508.15 1288.81,1508.15 1289.85,1508.15 1290.89,1508.15 1291.93,1508.15 1292.97,1508.15 1294.01,1508.15 1295.05,1508.15 1296.09,1508.15 1297.13,1508.15 1298.17,1508.15 1299.21,1508.15 1300.25,1556.67 1301.29,1556.67 1302.33,1556.67 1303.37,1556.67 1304.4,1556.67 1305.44,1556.67 1306.48,1556.67 1307.52,1556.67 1308.56,1556.67 1309.6,1556.67 1310.64,1556.67 1311.68,1556.67 1312.72,1556.67 1313.76,1556.67 1314.8,1556.67 1315.84,1556.67 1316.88,1556.67 1317.92,1556.67 1318.96,1556.67 1320,1556.67 1321.03,1556.67 1322.07,1556.67 1323.11,1556.67 1324.15,1556.67 1325.19,1556.67 1326.23,1556.67 1327.27,1556.67 1328.31,1556.67 1329.35,1556.67 1330.39,1556.67 1331.43,1556.67 1332.47,1556.67 1333.51,1556.67 1334.55,1556.67 1335.59,1556.67 1336.62,1556.67 1337.66,1556.67 1338.7,1556.67 1339.74,1556.67 1340.78,1556.67 1341.82,1556.67 1342.86,1556.67 1343.9,1556.67 1344.94,1556.67 1345.98,1556.67 1347.02,1556.67 1348.06,1556.67 1349.1,1556.67 1350.14,1556.67 1351.18,1556.67 1352.22,1556.67 1353.25,1556.67 1354.29,1556.67 1355.33,1556.67 1356.37,1556.67 1357.41,1556.67 1358.45,1556.67 1359.49,1556.67 1360.53,1556.67 1361.57,1556.67 1362.61,1556.67 1363.65,1556.67 1364.69,1556.67 1365.73,1556.67 1366.77,1556.67 1367.81,1556.67 1368.85,1556.67 1369.88,1556.67 1370.92,1556.67 1371.96,1556.67 1373,1556.67 1374.04,1556.67 1375.08,1556.67 1376.12,1556.67 1377.16,1556.67 1378.2,1556.67 1379.24,1556.67 1380.28,1556.67 1381.32,1556.67 1382.36,1556.67 1383.4,1556.67 1384.44,1556.67 1385.48,1556.67 1386.51,1556.67 1387.55,1556.67 1388.59,1556.67 1389.63,1556.67 1390.67,1556.67 1391.71,1556.67 1392.75,1556.67 1393.79,1556.67 1394.83,1556.67 1395.87,1556.67 1396.91,1556.67 1397.95,1556.67 1398.99,1556.67 1400.03,1556.67 1401.07,1556.67 1402.11,1556.67 1403.14,1556.67 1404.18,1556.67 1405.22,1556.67 1406.26,1556.67 1407.3,1556.67 1408.34,1556.67 1409.38,1556.67 1410.42,1556.67 1411.46,1556.67 1412.5,1556.67 1413.54,1556.67 1414.58,1556.67 1415.62,1556.67 1416.66,1556.67 1417.7,1556.67 1418.74,1556.67 1419.77,1556.67 1420.81,1556.67 1421.85,1556.67 1422.89,1556.67 1423.93,1556.67 1424.97,1556.67 1426.01,1556.67 1427.05,1556.67 1428.09,1556.67 1429.13,1556.67 1430.17,1556.67 1431.21,1556.67 1432.25,1556.67 1433.29,1556.67 1434.33,1556.67 1435.37,1556.67 1436.4,1556.67 1437.44,1556.67 1438.48,1556.67 1439.52,1556.67 1440.56,1556.67 1441.6,1556.67 1442.64,1556.67 1443.68,1556.67 1444.72,1556.67 1445.76,1556.67 1446.8,1556.67 1447.84,1556.67 1448.88,1556.67 1449.92,1556.67 1450.96,1556.67 1452,1556.67 1453.03,1556.67 1454.07,1556.67 1455.11,1556.67 1456.15,1556.67 1457.19,1556.67 1458.23,1556.67 1459.27,1556.67 1460.31,1556.67 1461.35,1556.67 1462.39,1556.67 1463.43,1556.67 1464.47,1556.67 1465.51,1556.67 1466.55,1556.67 1467.59,1556.67 1468.62,1556.67 1469.66,1556.67 1470.7,1556.67 1471.74,1556.67 1472.78,1556.67 1473.82,1556.67 1474.86,1556.67 1475.9,1556.67 1476.94,1556.67 1477.98,1556.67 1479.02,1556.67 1480.06,1556.67 1481.1,1556.67 1482.14,1556.67 1483.18,1556.67 1484.22,1556.67 1485.25,1556.67 1486.29,1556.67 1487.33,1556.67 1488.37,1556.67 1489.41,1556.67 1490.45,1556.67 1491.49,1556.67 1492.53,1556.67 1493.57,1556.67 1494.61,1556.67 1495.65,1556.67 1496.69,1556.67 1497.73,1556.67 1498.77,1556.67 1499.81,1556.67 1500.85,1556.67 1501.88,1556.67 1502.92,1556.67 1503.96,1556.67 1505,1556.67 1506.04,1556.67 1507.08,1556.67 1508.12,1568.01 1509.16,1568.01 1510.2,1568.01 1511.24,1568.01 1512.28,1568.01 1513.32,1568.01 1514.36,1568.01 1515.4,1568.01 1516.44,1568.01 1517.48,1568.01 1518.51,1568.01 1519.55,1568.01 1520.59,1568.01 1521.63,1568.01 1522.67,1568.01 1523.71,1568.01 1524.75,1568.01 1525.79,1568.01 1526.83,1568.01 1527.87,1568.01 1528.91,1568.01 1529.95,1568.01 1530.99,1568.01 1532.03,1568.01 1533.07,1568.01 1534.11,1568.01 1535.14,1568.01 1536.18,1568.01 1537.22,1568.01 1538.26,1568.01 1539.3,1568.01 1540.34,1568.01 1541.38,1568.01 1542.42,1568.01 1543.46,1568.01 1544.5,1568.01 1545.54,1568.01 1546.58,1568.01 1547.62,1568.01 1548.66,1568.01 1549.7,1568.01 1550.74,1568.01 1551.77,1568.01 1552.81,1568.01 1553.85,1568.01 1554.89,1568.01 1555.93,1568.01 1556.97,1568.01 1558.01,1568.01 1559.05,1568.01 1560.09,1568.01 1561.13,1568.01 1562.17,1568.01 1563.21,1568.01 1564.25,1568.01 1565.29,1568.01 1566.33,1568.01 1567.37,1568.01 1568.4,1568.01 1569.44,1568.01 1570.48,1568.01 1571.52,1568.01 1572.56,1568.01 1573.6,1568.01 1574.64,1568.01 1575.68,1568.01 1576.72,1568.01 1577.76,1568.01 1578.8,1568.01 1579.84,1568.01 1580.88,1568.01 1581.92,1568.01 1582.96,1568.01 1584,1568.01 1585.03,1568.01 1586.07,1568.01 1587.11,1568.01 1588.15,1568.01 1589.19,1568.01 1590.23,1568.01 1591.27,1568.01 1592.31,1568.01 1593.35,1568.01 1594.39,1568.01 1595.43,1568.01 1596.47,1568.01 1597.51,1568.01 1598.55,1568.01 1599.59,1568.01 1600.62,1568.01 1601.66,1568.01 1602.7,1568.01 1603.74,1568.01 1604.78,1568.01 1605.82,1568.01 1606.86,1568.01 1607.9,1568.01 1608.94,1568.01 1609.98,1568.01 1611.02,1568.01 1612.06,1568.01 1613.1,1568.01 1614.14,1568.01 1615.18,1568.01 1616.22,1568.01 1617.25,1568.01 1618.29,1568.01 1619.33,1568.01 1620.37,1568.01 1621.41,1568.01 1622.45,1568.01 1623.49,1568.01 1624.53,1568.01 1625.57,1568.01 1626.61,1568.01 1627.65,1568.01 1628.69,1568.01 1629.73,1568.01 1630.77,1568.01 1631.81,1568.01 1632.85,1568.01 1633.88,1568.01 1634.92,1568.01 1635.96,1568.01 1637,1568.01 1638.04,1568.01 1639.08,1568.01 1640.12,1568.01 1641.16,1568.01 1642.2,1568.01 1643.24,1568.01 1644.28,1568.01 1645.32,1568.01 1646.36,1568.01 1647.4,1568.01 1648.44,1568.01 1649.48,1568.01 1650.51,1568.01 1651.55,1568.01 1652.59,1568.01 1653.63,1568.01 1654.67,1568.01 1655.71,1568.01 1656.75,1568.01 1657.79,1568.01 1658.83,1568.01 1659.87,1568.01 1660.91,1568.01 1661.95,1568.01 1662.99,1568.01 1664.03,1568.01 1665.07,1568.01 1666.11,1568.01 1667.14,1568.01 1668.18,1568.01 1669.22,1568.01 1670.26,1568.01 1671.3,1568.01 1672.34,1568.01 1673.38,1568.01 1674.42,1568.01 1675.46,1568.01 1676.5,1568.01 1677.54,1568.01 1678.58,1568.01 1679.62,1568.01 1680.66,1568.01 1681.7,1568.01 1682.74,1568.01 1683.77,1568.01 1684.81,1568.01 1685.85,1568.01 1686.89,1568.01 1687.93,1568.01 1688.97,1568.01 1690.01,1568.01 1691.05,1568.01 1692.09,1568.01 1693.13,1568.01 1694.17,1568.01 1695.21,1568.01 1696.25,1568.01 1697.29,1568.01 1698.33,1568.01 1699.37,1568.01 1700.4,1568.01 1701.44,1568.01 1702.48,1568.01 1703.52,1568.01 1704.56,1568.01 1705.6,1568.01 1706.64,1568.01 1707.68,1568.01 1708.72,1568.01 1709.76,1568.01 1710.8,1568.01 1711.84,1568.01 1712.88,1568.01 1713.92,1568.01 1714.96,1570.2 1716,1570.2 1717.03,1570.2 1718.07,1570.2 1719.11,1570.2 1720.15,1570.2 1721.19,1570.2 1722.23,1570.2 1723.27,1570.2 1724.31,1570.2 1725.35,1570.2 1726.39,1570.2 1727.43,1570.2 1728.47,1570.2 1729.51,1570.2 1730.55,1570.2 1731.59,1570.2 1732.62,1570.2 1733.66,1570.2 1734.7,1570.2 1735.74,1570.2 1736.78,1570.2 1737.82,1570.2 1738.86,1570.2 1739.9,1570.2 1740.94,1570.2 1741.98,1570.2 1743.02,1570.2 1744.06,1570.2 1745.1,1570.2 1746.14,1570.2 1747.18,1570.2 1748.22,1570.2 1749.25,1570.2 1750.29,1570.2 1751.33,1570.2 1752.37,1570.2 1753.41,1570.2 1754.45,1570.2 1755.49,1570.2 1756.53,1570.2 1757.57,1570.2 1758.61,1570.2 1759.65,1570.2 1760.69,1570.2 1761.73,1570.2 1762.77,1570.2 1763.81,1570.2 1764.85,1570.2 1765.88,1570.2 1766.92,1570.2 1767.96,1570.2 1769,1570.2 1770.04,1570.2 1771.08,1570.2 1772.12,1570.2 1773.16,1570.2 1774.2,1570.2 1775.24,1570.2 1776.28,1570.2 1777.32,1570.2 1778.36,1570.2 1779.4,1570.2 1780.44,1570.2 1781.48,1570.2 1782.51,1570.2 1783.55,1570.2 1784.59,1570.2 1785.63,1570.2 1786.67,1570.2 1787.71,1570.2 1788.75,1570.2 1789.79,1570.2 1790.83,1570.2 1791.87,1570.2 1792.91,1570.2 1793.95,1570.2 1794.99,1570.2 1796.03,1570.2 1797.07,1570.2 1798.11,1570.2 1799.14,1570.2 1800.18,1570.2 1801.22,1570.2 1802.26,1570.2 1803.3,1570.2 1804.34,1570.2 1805.38,1570.2 1806.42,1570.2 1807.46,1570.2 1808.5,1570.2 1809.54,1570.2 1810.58,1570.2 1811.62,1570.2 1812.66,1570.2 1813.7,1570.2 1814.74,1570.2 1815.77,1570.2 1816.81,1570.2 1817.85,1570.2 1818.89,1570.2 1819.93,1570.2 1820.97,1570.2 1822.01,1570.2 1823.05,1570.2 1824.09,1570.2 1825.13,1570.2 1826.17,1570.2 1827.21,1570.2 1828.25,1570.2 1829.29,1570.2 1830.33,1570.2 1831.37,1570.2 1832.4,1570.2 1833.44,1570.2 1834.48,1570.2 1835.52,1570.2 1836.56,1570.2 1837.6,1570.2 1838.64,1570.2 1839.68,1570.2 1840.72,1570.2 1841.76,1570.2 1842.8,1570.2 1843.84,1570.2 1844.88,1570.2 1845.92,1570.2 1846.96,1570.2 1848,1570.2 1849.03,1570.2 1850.07,1570.2 1851.11,1570.2 1852.15,1570.2 1853.19,1570.2 1854.23,1570.2 1855.27,1570.2 1856.31,1570.2 1857.35,1570.2 1858.39,1570.2 1859.43,1570.2 1860.47,1570.2 1861.51,1570.2 1862.55,1570.2 1863.59,1570.2 1864.62,1570.2 1865.66,1570.2 1866.7,1570.2 1867.74,1570.2 1868.78,1570.2 1869.82,1570.2 1870.86,1570.2 1871.9,1570.2 1872.94,1570.2 1873.98,1570.2 1875.02,1570.2 1876.06,1570.2 1877.1,1570.2 1878.14,1570.2 1879.18,1570.2 1880.22,1570.2 1881.25,1570.2 1882.29,1570.2 1883.33,1570.2 1884.37,1570.2 1885.41,1570.2 1886.45,1570.2 1887.49,1570.2 1888.53,1570.2 1889.57,1570.2 1890.61,1570.2 1891.65,1570.2 1892.69,1570.2 1893.73,1570.2 1894.77,1570.2 1895.81,1570.2 1896.85,1570.2 1897.88,1570.2 1898.92,1570.2 1899.96,1570.2 1901,1570.2 1902.04,1570.2 1903.08,1570.2 1904.12,1570.2 1905.16,1570.2 1906.2,1570.2 1907.24,1570.2 1908.28,1570.2 1909.32,1570.2 1910.36,1570.2 1911.4,1570.2 1912.44,1570.2 1913.48,1570.2 1914.51,1570.2 1915.55,1570.2 1916.59,1570.2 1917.63,1570.2 1918.67,1570.2 1919.71,1570.2 1920.75,1570.2 1921.79,1570.2 1922.83,1570.2 1923.87,1570.74 1924.91,1570.74 1925.95,1570.74 1926.99,1570.74 1928.03,1570.74 1929.07,1570.74 1930.11,1570.74 1931.14,1570.74 1932.18,1570.74 1933.22,1570.74 1934.26,1570.74 1935.3,1570.74 1936.34,1570.74 1937.38,1570.74 1938.42,1570.74 1939.46,1570.74 1940.5,1570.74 1941.54,1570.74 1942.58,1570.74 1943.62,1570.74 1944.66,1570.74 1945.7,1570.74 1946.74,1570.74 1947.77,1570.74 1948.81,1570.74 1949.85,1570.74 1950.89,1570.74 1951.93,1570.74 1952.97,1570.74 1954.01,1570.74 1955.05,1570.74 1956.09,1570.74 1957.13,1570.74 1958.17,1570.74 1959.21,1570.74 1960.25,1570.74 1961.29,1570.74 1962.33,1570.74 1963.37,1570.74 1964.4,1570.74 1965.44,1570.74 1966.48,1570.74 1967.52,1570.74 1968.56,1570.74 1969.6,1570.74 1970.64,1570.74 1971.68,1570.74 1972.72,1570.74 1973.76,1570.74 1974.8,1570.74 1975.84,1570.74 1976.88,1570.74 1977.92,1570.74 1978.96,1570.74 1980,1570.74 1981.03,1570.74 1982.07,1570.74 1983.11,1570.74 1984.15,1570.74 1985.19,1570.74 1986.23,1570.74 1987.27,1570.74 1988.31,1570.74 1989.35,1570.74 1990.39,1570.74 1991.43,1570.74 1992.47,1570.74 1993.51,1570.74 1994.55,1570.74 1995.59,1570.74 1996.62,1570.74 1997.66,1570.74 1998.7,1570.74 1999.74,1570.74 2000.78,1570.74 2001.82,1570.74 2002.86,1570.74 2003.9,1570.74 2004.94,1570.74 2005.98,1570.74 2007.02,1570.74 2008.06,1570.74 2009.1,1570.74 2010.14,1570.74 2011.18,1570.74 2012.22,1570.74 2013.25,1570.74 2014.29,1570.74 2015.33,1570.74 2016.37,1570.74 2017.41,1570.74 2018.45,1570.74 2019.49,1570.74 2020.53,1570.74 2021.57,1570.74 2022.61,1570.74 2023.65,1570.74 2024.69,1570.74 2025.73,1570.74 2026.77,1570.74 2027.81,1570.74 2028.85,1570.74 2029.88,1570.74 2030.92,1570.74 2031.96,1570.74 2033,1570.74 2034.04,1570.74 2035.08,1570.74 2036.12,1570.74 2037.16,1570.74 2038.2,1570.74 2039.24,1570.74 2040.28,1570.74 2041.32,1570.74 2042.36,1570.74 2043.4,1570.74 2044.44,1570.74 2045.48,1570.74 2046.51,1570.74 2047.55,1570.74 2048.59,1570.74 2049.63,1570.74 2050.67,1570.74 2051.71,1570.74 2052.75,1570.74 2053.79,1570.74 2054.83,1570.74 2055.87,1570.74 2056.91,1570.74 2057.95,1570.74 2058.99,1570.74 2060.03,1570.74 2061.07,1570.74 2062.11,1570.74 2063.14,1570.74 2064.18,1570.74 2065.22,1570.74 2066.26,1570.74 2067.3,1570.74 2068.34,1570.74 2069.38,1570.74 2070.42,1570.74 2071.46,1570.74 2072.5,1570.74 2073.54,1570.74 2074.58,1570.74 2075.62,1570.74 2076.66,1570.74 2077.7,1570.74 2078.74,1570.74 2079.77,1570.74 2080.81,1570.74 2081.85,1570.74 2082.89,1570.74 2083.93,1570.74 2084.97,1570.74 2086.01,1570.74 2087.05,1570.74 2088.09,1570.74 2089.13,1570.74 2090.17,1570.74 2091.21,1570.74 2092.25,1570.74 2093.29,1570.74 2094.33,1570.74 2095.37,1570.74 2096.4,1570.74 2097.44,1570.74 2098.48,1570.74 2099.52,1570.74 2100.56,1570.74 2101.6,1570.74 2102.64,1570.74 2103.68,1570.74 2104.72,1570.74 2105.76,1570.74 2106.8,1570.74 2107.84,1570.74 2108.88,1570.74 2109.92,1570.74 2110.96,1570.74 2112,1570.74 2113.03,1570.74 2114.07,1570.74 2115.11,1570.74 2116.15,1570.74 2117.19,1570.74 2118.23,1570.74 2119.27,1570.74 2120.31,1570.74 2121.35,1570.74 2122.39,1570.74 2123.43,1570.74 2124.47,1570.74 2125.51,1570.74 2126.55,1570.74 2127.59,1570.74 2128.62,1570.74 2129.66,1570.74 2130.7,1570.74 2131.74,1570.84 2132.78,1570.84 2133.82,1570.84 2134.86,1570.84 2135.9,1570.84 2136.94,1570.84 2137.98,1570.84 2139.02,1570.84 2140.06,1570.84 2141.1,1570.84 2142.14,1570.84 2143.18,1570.84 2144.22,1570.84 2145.25,1570.84 2146.29,1570.84 2147.33,1570.84 2148.37,1570.84 2149.41,1570.84 2150.45,1570.84 2151.49,1570.84 2152.53,1570.84 2153.57,1570.84 2154.61,1570.84 2155.65,1570.84 2156.69,1570.84 2157.73,1570.84 2158.77,1570.84 2159.81,1570.84 2160.85,1570.84 2161.88,1570.84 2162.92,1570.84 2163.96,1570.84 2165,1570.84 2166.04,1570.84 2167.08,1570.84 2168.12,1570.84 2169.16,1570.84 2170.2,1570.84 2171.24,1570.84 2172.28,1570.84 2173.32,1570.84 2174.36,1570.84 2175.4,1570.84 2176.44,1570.84 2177.48,1570.84 2178.51,1570.84 2179.55,1570.84 2180.59,1570.84 2181.63,1570.84 2182.67,1570.84 2183.71,1570.84 2184.75,1570.84 2185.79,1570.84 2186.83,1570.84 2187.87,1570.84 2188.91,1570.84 2189.95,1570.84 2190.99,1570.84 2192.03,1570.84 2193.07,1570.84 2194.11,1570.84 2195.14,1570.84 2196.18,1570.84 2197.22,1570.84 2198.26,1570.84 2199.3,1570.84 2200.34,1570.84 2201.38,1570.84 2202.42,1570.84 2203.46,1570.84 2204.5,1570.84 2205.54,1570.84 2206.58,1570.84 2207.62,1570.84 2208.66,1570.84 2209.7,1570.84 2210.74,1570.84 2211.77,1570.84 2212.81,1570.84 2213.85,1570.84 2214.89,1570.84 2215.93,1570.84 2216.97,1570.84 2218.01,1570.84 2219.05,1570.84 2220.09,1570.84 2221.13,1570.84 2222.17,1570.84 2223.21,1570.84 2224.25,1570.84 2225.29,1570.84 2226.33,1570.84 2227.37,1570.84 2228.4,1570.84 2229.44,1570.84 2230.48,1570.84 2231.52,1570.84 2232.56,1570.84 2233.6,1570.84 2234.64,1570.84 2235.68,1570.84 2236.72,1570.84 2237.76,1570.84 2238.8,1570.84 2239.84,1570.84 2240.88,1570.84 2241.92,1570.84 2242.96,1570.84 2244,1570.84 2245.03,1570.84 2246.07,1570.84 2247.11,1570.84 2248.15,1570.84 2249.19,1570.84 2250.23,1570.84 2251.27,1570.84 2252.31,1570.84 2253.35,1570.84 2254.39,1570.84 2255.43,1570.84 2256.47,1570.84 2257.51,1570.84 2258.55,1570.84 2259.59,1570.84 2260.62,1570.84 2261.66,1570.84 2262.7,1570.84 2263.74,1570.84 2264.78,1570.84 2265.82,1570.84 2266.86,1570.84 2267.9,1570.84 2268.94,1570.84 2269.98,1570.84 2271.02,1570.84 2272.06,1570.84 2273.1,1570.84 2274.14,1570.84 2275.18,1570.84 2276.22,1570.84 2277.25,1570.84 2278.29,1570.84 2279.33,1570.84 2280.37,1570.84 2281.41,1570.84 2282.45,1570.84 2283.49,1570.84 2284.53,1570.84 2285.57,1570.84 2286.61,1570.84 2287.65,1570.84 2288.69,1570.84 2289.73,1570.84 2290.77,1570.84 2291.81,1570.84 2292.85,1570.84 2293.88,1570.84 2294.92,1570.84 2295.96,1570.84 2297,1570.84 2298.04,1570.84 2299.08,1570.84 2300.12,1570.84 2301.16,1570.84 2302.2,1570.84 2303.24,1570.84 2304.28,1570.84 2305.32,1570.84 2306.36,1570.84 2307.4,1570.84 2308.44,1570.84 2309.48,1570.84 2310.51,1570.84 2311.55,1570.84 2312.59,1570.84 2313.63,1570.84 2314.67,1570.84 2315.71,1570.84 2316.75,1570.84 2317.79,1570.84 2318.83,1570.84 2319.87,1570.84 2320.91,1570.84 2321.95,1570.84 2322.99,1570.84 2324.03,1570.84 2325.07,1570.84 2326.11,1570.84 2327.14,1570.84 2328.18,1570.84 2329.22,1570.84 2330.26,1570.84 2331.3,1570.84 2332.34,1570.84 2333.38,1570.84 2334.42,1570.84 2335.46,1570.84 2336.5,1570.84 2337.54,1570.84 2338.58,1570.84"/>
</g>
<g fill="none" stroke="#e41a1c" stroke-width="4.16">
<polyline fill="none" points="259.84,1570.85 260.88,1557.83 261.92,1545.96 262.96,1534.48 264,1523.26 265.03,1512.21 266.07,1501.32 267.11,1490.54 268.15,1479.86 269.19,1469.27 270.23,1458.75 271.27,1448.3 272.31,1437.92 273.35,1427.89 274.39,1418.66 275.43,1408.1 276.47,1397.64 277.51,1387.22 278.55,1376.85 279.59,1366.52 280.62,1356.23 281.66,1345.98 282.7,1335.78 283.74,1325.63 284.78,1315.52 285.82,1305.46 286.86,1295.44 287.9,1285.47 288.94,1275.54 289.98,1265.65 291.02,1255.81 292.06,1246 293.1,1236.24 294.14,1226.52 295.18,1216.84 296.22,1207.2 297.25,1197.61 298.29,1188.06 299.33,1178.56 300.37,1169.1 301.41,1159.67 302.45,1150.29 303.49,1140.95 304.53,1131.65 305.57,1122.39 306.61,1113.17 307.65,1104 308.69,1094.86 309.73,1085.77 310.77,1076.72 311.81,1067.71 312.85,1058.74 313.88,1049.81 314.92,1040.92 315.96,1032.07 317,1023.26 318.04,1014.49 319.08,1005.76 320.12,997.08 321.16,988.44 322.2,979.83 323.24,971.27 324.28,962.74 325.32,954.26 326.36,945.81 327.4,937.41 328.44,929.05 329.48,920.73 330.51,912.46 331.55,904.22 332.59,896.01 333.63,887.85 334.67,879.73 335.71,871.66 336.75,863.62 337.79,855.63 338.83,847.68 339.87,839.77 340.91,831.89 341.95,824.06 342.99,816.27 344.03,808.52 345.07,800.8 346.11,793.13 347.14,785.5 348.18,777.92 349.22,770.38 350.26,762.89 351.3,755.43 352.34,748.01 353.38,740.64 354.42,733.3 355.46,726.01 356.5,718.76 357.54,711.55 358.58,704.38 359.62,697.25 360.66,690.17 361.7,683.13 362.74,676.14 363.77,669.19 364.81,662.29 365.85,655.42 366.89,648.6 367.93,641.82 368.97,635.08 370.01,628.38 371.05,621.73 372.09,615.12 373.13,608.56 374.17,602.04 375.21,595.57 376.25,589.15 377.29,582.77 378.33,576.43 379.37,570.14 380.4,563.9 381.44,557.7 382.48,551.54 383.52,545.43 384.56,539.36 385.6,533.34 386.64,527.35 387.68,521.41 388.72,515.52 389.76,509.67 390.8,503.88 391.84,498.15 392.88,492.46 393.92,486.82 394.96,481.23 396,475.69 397.03,470.19 398.07,464.74 399.11,459.33 400.15,453.97 401.19,448.66 402.23,443.39 403.27,438.17 404.31,433.01 405.35,427.89 406.39,422.82 407.43,417.79 408.47,412.82 409.51,407.89 410.55,403.02 411.59,398.2 412.62,393.44 413.66,388.73 414.7,384.08 415.74,379.47 416.78,374.92 417.82,370.43 418.86,365.98 419.9,361.58 420.94,357.22 421.98,352.92 423.02,348.66 424.06,344.45 425.1,340.3 426.14,336.19 427.18,332.15 428.22,328.16 429.25,324.23 430.29,320.35 431.33,316.53 432.37,312.77 433.41,309.06 434.45,305.4 435.49,301.8 436.53,298.26 437.57,294.77 438.61,291.34 439.65,287.97 440.69,284.65 441.73,281.38 442.77,278.18 443.81,275.02 444.85,271.92 445.88,268.88 446.92,265.88 447.96,262.94 449,260.04 450.04,257.2 451.08,254.41 452.12,251.67 453.16,249 454.2,246.39 455.24,243.84 456.28,241.36 457.32,238.95 458.36,236.61 459.4,234.33 460.44,232.11 461.48,229.95 462.51,227.85 463.55,225.81 464.59,223.83 465.63,221.9 466.67,220.02 467.71,218.2 468.75,216.44 469.79,214.73 470.83,213.08 471.87,211.49 472.91,209.95 473.95,208.47 474.99,207.06 476.03,205.7 477.07,204.4 478.11,203.16 479.14,201.97 480.18,200.84 481.22,199.77 482.26,198.76 483.3,197.81 484.34,196.92 485.38,196.1 486.42,195.33 487.46,194.63 488.5,194 489.54,193.44 490.58,192.94 491.62,192.51 492.66,192.15 493.7,191.84 494.74,191.6 495.77,191.42 496.81,191.3 497.85,191.23 498.89,191.22 499.93,191.26 500.97,191.35 502.01,191.49 503.05,191.69 504.09,191.94 505.13,192.25 506.17,192.61 507.21,193.03 508.25,193.51 509.29,194.05 510.33,194.65 511.37,195.31 512.4,196.03 513.44,196.82 514.48,197.67 515.52,198.58 516.56,199.55 517.6,200.58 518.64,201.67 519.68,202.82 520.72,204.03 521.76,205.29 522.8,206.61 523.84,207.99 524.88,209.42 525.92,210.9 526.96,212.44 528,214.04 529.03,215.69 530.07,217.41 531.11,219.19 532.15,221.02 533.19,222.9 534.23,224.84 535.27,226.82 536.31,228.86 537.35,230.94 538.39,233.06 539.43,235.23 540.47,237.44 541.51,239.69 542.55,241.98 543.59,244.33 544.62,246.71 545.66,249.15 546.7,251.64 547.74,254.17 548.78,256.75 549.82,259.38 550.86,262.07 551.9,264.8 552.94,267.59 553.98,270.42 555.02,273.31 556.06,276.27 557.1,279.28 558.14,282.35 559.18,285.48 560.22,288.66 561.25,291.89 562.29,295.16 563.33,298.48 564.37,301.84 565.41,305.24 566.45,308.67 567.49,312.13 568.53,315.63 569.57,319.15 570.61,322.69 571.65,326.28 572.69,329.91 573.73,333.57 574.77,337.28 575.81,341.02 576.85,344.8 577.88,348.61 578.92,352.45 579.96,356.33 581,360.24 582.04,364.17 583.08,368.14 584.12,372.13 585.16,376.15 586.2,380.19 587.24,384.26 588.28,388.36 589.32,392.49 590.36,396.66 591.4,400.86 592.44,405.09 593.48,409.35 594.51,413.63 595.55,417.95 596.59,422.28 597.63,426.65 598.67,431.04 599.71,435.45 600.75,439.88 601.79,444.33 602.83,448.81 603.87,453.3 604.91,457.84 605.95,462.41 606.99,467.01 608.03,471.63 609.07,476.29 610.11,480.97 611.14,485.68 612.18,490.4 613.22,495.14 614.26,499.89 615.3,504.65 616.34,509.43 617.38,514.21 618.42,518.99 619.46,523.78 620.5,528.56 621.54,533.34 622.58,538.13 623.62,542.94 624.66,547.76 625.7,552.59 626.74,557.43 627.77,562.28 628.81,567.14 629.85,572 630.89,576.88 631.93,581.76 632.97,586.64 634.01,591.54 635.05,596.43 636.09,601.33 637.13,606.23 638.17,611.13 639.21,616.03 640.25,620.93 641.29,625.84 642.33,630.76 643.37,635.69 644.4,640.63 645.44,645.57 646.48,650.52 647.52,655.48 648.56,660.44 649.6,665.4 650.64,670.36 651.68,675.31 652.72,680.27 653.76,685.22 654.8,690.16 655.84,695.09 656.88,700.02 657.92,704.93 658.96,709.83 660,714.72 661.03,719.61 662.07,724.49 663.11,729.38 664.15,734.27 665.19,739.15 666.23,744.03 667.27,748.9 668.31,753.77 669.35,758.63 670.39,763.48 671.43,768.32 672.47,773.15 673.51,777.97 674.55,782.78 675.59,787.57 676.62,792.34 677.66,797.1 678.7,801.83 679.74,806.55 680.78,811.25 681.82,815.93 682.86,820.6 683.9,825.25 684.94,829.9 685.98,834.53 687.02,839.14 688.06,843.75 689.1,848.33 690.14,852.91 691.18,857.47 692.22,862.02 693.25,866.55 694.29,871.06 695.33,875.57 696.37,880.05 697.41,884.52 698.45,888.97 699.49,893.41 700.53,897.83 701.57,902.23 702.61,906.62 703.65,910.99 704.69,915.36 705.73,919.71 706.77,924.04 707.81,928.37 708.85,932.68 709.88,936.98 710.92,941.26 711.96,945.52 713,949.77 714.04,954 715.08,958.21 716.12,962.41 717.16,966.58 718.2,970.73 719.24,974.86 720.28,978.97 721.32,983.06 722.36,987.12 723.4,991.16 724.44,995.17 725.48,999.16 726.51,1003.12 727.55,1007.07 728.59,1010.99 729.63,1014.89 730.67,1018.77 731.71,1022.63 732.75,1026.47 733.79,1030.29 734.83,1034.08 735.87,1037.86 736.91,1041.61 737.95,1045.35 738.99,1049.06 740.03,1052.75 741.07,1056.42 742.11,1060.07 743.14,1063.7 744.18,1067.3 745.22,1070.89 746.26,1074.45 747.3,1077.99 748.34,1081.51 749.38,1085.01 750.42,1088.49 751.46,1091.94 752.5,1095.38 753.54,1098.79 754.58,1102.18 755.62,1105.55 756.66,1108.89 757.7,1112.22 758.74,1115.52 759.77,1118.8 760.81,1122.07 761.85,1125.31 762.89,1128.53 763.93,1131.72 764.97,1134.9 766.01,1138.06 767.05,1141.2 768.09,1144.32 769.13,1147.41 770.17,1150.49 771.21,1153.55 772.25,1156.59 773.29,1159.61 774.33,1162.61 775.37,1165.59 776.4,1168.54 777.44,1171.48 778.48,1174.4 779.52,1177.3 780.56,1180.17 781.6,1183.03 782.64,1185.86 783.68,1188.67 784.72,1191.47 785.76,1194.24 786.8,1196.99 787.84,1199.73 788.88,1202.44 789.92,1205.13 790.96,1207.81 792,1210.46 793.03,1213.1 794.07,1215.72 795.11,1218.31 796.15,1220.89 797.19,1223.45 798.23,1226 799.27,1228.52 800.31,1231.03 801.35,1233.51 802.39,1235.98 803.43,1238.43 804.47,1240.86 805.51,1243.27 806.55,1245.65 807.59,1248.02 808.62,1250.36 809.66,1252.69 810.7,1254.99 811.74,1257.28 812.78,1259.55 813.82,1261.8 814.86,1264.03 815.9,1266.24 816.94,1268.44 817.98,1270.61 819.02,1272.77 820.06,1274.92 821.1,1277.04 822.14,1279.16 823.18,1281.25 824.22,1283.33 825.25,1285.4 826.29,1287.45 827.33,1289.48 828.37,1291.5 829.41,1293.51 830.45,1295.5 831.49,1297.48 832.53,1299.44 833.57,1301.38 834.61,1303.3 835.65,1305.21 836.69,1307.09 837.73,1308.96 838.77,1310.82 839.81,1312.65 840.85,1314.47 841.88,1316.28 842.92,1318.07 843.96,1319.84 845,1321.6 846.04,1323.34 847.08,1325.07 848.12,1326.78 849.16,1328.48 850.2,1330.17 851.24,1331.84 852.28,1333.5 853.32,1335.15 854.36,1336.79 855.4,1338.41 856.44,1340.02 857.48,1341.62 858.51,1343.21 859.55,1344.78 860.59,1346.35 861.63,1347.9 862.67,1349.43 863.71,1350.95 864.75,1352.45 865.79,1353.94 866.83,1355.41 867.87,1356.87 868.91,1358.31 869.95,1359.74 870.99,1361.16 872.03,1362.56 873.07,1363.95 874.11,1365.33 875.14,1366.69 876.18,1368.05 877.22,1369.39 878.26,1370.72 879.3,1372.03 880.34,1373.34 881.38,1374.64 882.42,1375.93 883.46,1377.2 884.5,1378.47 885.54,1379.73 886.58,1380.98 887.62,1382.22 888.66,1383.45 889.7,1384.67 890.74,1385.89 891.77,1387.09 892.81,1388.29 893.85,1389.47 894.89,1390.64 895.93,1391.8 896.97,1392.95 898.01,1394.08 899.05,1395.2 900.09,1396.31 901.13,1397.41 902.17,1398.5 903.21,1399.58 904.25,1400.65 905.29,1401.71 906.33,1402.76 907.37,1403.8 908.4,1404.83 909.44,1405.86 910.48,1406.87 911.52,1407.87 912.56,1408.87 913.6,1409.86 914.64,1410.84 915.68,1411.82 916.72,1412.78 917.76,1413.74 918.8,1414.69 919.84,1415.64 920.88,1416.58 921.92,1417.52 922.96,1418.44 924,1419.37 925.03,1420.28 926.07,1421.19 927.11,1422.09 928.15,1422.97 929.19,1423.85 930.23,1424.72 931.27,1425.58 932.31,1426.43 933.35,1427.27 934.39,1428.1 935.43,1428.93 936.47,1429.75 937.51,1430.56 938.55,1431.36 939.59,1432.16 940.62,1432.95 941.66,1433.73 942.7,1434.5 943.74,1435.27 944.78,1436.04 945.82,1436.79 946.86,1437.55 947.9,1438.29 948.94,1439.03 949.98,1439.77 951.02,1440.5 952.06,1441.23 953.1,1441.95 954.14,1442.67 955.18,1443.39 956.22,1444.1 957.25,1444.81 958.29,1445.52 959.33,1446.22 960.37,1446.92 961.41,1447.61 962.45,1448.29 963.49,1448.96 964.53,1449.63 965.57,1450.3 966.61,1450.95 967.65,1451.61 968.69,1452.25 969.73,1452.89 970.77,1453.53 971.81,1454.16 972.85,1454.78 973.88,1455.4 974.92,1456.01 975.96,1456.62 977,1457.23 978.04,1457.83 979.08,1458.43 980.12,1459.02 981.16,1459.61 982.2,1460.2 983.24,1460.78 984.28,1461.36 985.32,1461.94 986.36,1462.51 987.4,1463.08 988.44,1463.65 989.48,1464.21 990.51,1464.77 991.55,1465.33 992.59,1465.89 993.63,1466.45 994.67,1467.01 995.71,1467.56 996.75,1468.11 997.79,1468.65 998.83,1469.19 999.87,1469.73 1000.91,1470.26 1001.95,1470.78 1002.99,1471.31 1004.03,1471.83 1005.07,1472.34 1006.11,1472.85 1007.14,1473.36 1008.18,1473.86 1009.22,1474.37 1010.26,1474.86 1011.3,1475.36 1012.34,1475.85 1013.38,1476.34 1014.42,1476.83 1015.46,1477.31 1016.5,1477.79 1017.54,1478.27 1018.58,1478.75 1019.62,1479.22 1020.66,1479.69 1021.7,1480.16 1022.74,1480.63 1023.77,1481.1 1024.81,1481.57 1025.85,1482.03 1026.89,1482.49 1027.93,1482.96 1028.97,1483.42 1030.01,1483.88 1031.05,1484.34 1032.09,1484.79 1033.13,1485.25 1034.17,1485.71 1035.21,1486.16 1036.25,1486.61 1037.29,1487.06 1038.33,1487.51 1039.37,1487.96 1040.4,1488.4 1041.44,1488.84 1042.48,1489.28 1043.52,1489.72 1044.56,1490.15 1045.6,1490.58 1046.64,1491.02 1047.68,1491.44 1048.72,1491.87 1049.76,1492.3 1050.8,1492.72 1051.84,1493.14 1052.88,1493.56 1053.92,1493.98 1054.96,1494.4 1056,1494.81 1057.03,1495.23 1058.07,1495.64 1059.11,1496.05 1060.15,1496.46 1061.19,1496.87 1062.23,1497.27 1063.27,1497.68 1064.31,1498.08 1065.35,1498.48 1066.39,1498.89 1067.43,1499.29 1068.47,1499.69 1069.51,1500.08 1070.55,1500.48 1071.59,1500.88 1072.62,1501.27 1073.66,1501.67 1074.7,1502.06 1075.74,1502.45 1076.78,1502.84 1077.82,1503.23 1078.86,1503.62 1079.9,1504 1080.94,1504.39 1081.98,1504.77 1083.02,1505.15 1084.06,1505.53 1085.1,1505.91 1086.14,1506.28 1087.18,1506.66 1088.22,1507.03 1089.25,1507.4 1090.29,1507.78 1091.33,1508.15 1092.37,1508.51 1093.41,1508.88 1094.45,1509.25 1095.49,1509.61 1096.53,1509.97 1097.57,1510.34 1098.61,1510.7 1099.65,1511.06 1100.69,1511.41 1101.73,1511.77 1102.77,1512.13 1103.81,1512.48 1104.85,1512.84 1105.88,1513.19 1106.92,1513.54 1107.96,1513.89 1109,1514.24 1110.04,1514.59 1111.08,1514.93 1112.12,1515.28 1113.16,1515.62 1114.2,1515.97 1115.24,1516.31 1116.28,1516.65 1117.32,1516.99 1118.36,1517.33 1119.4,1517.67 1120.44,1518.01 1121.48,1518.35 1122.51,1518.68 1123.55,1519.02 1124.59,1519.35 1125.63,1519.68 1126.67,1520.01 1127.71,1520.34 1128.75,1520.67 1129.79,1521 1130.83,1521.32 1131.87,1521.65 1132.91,1521.97 1133.95,1522.3 1134.99,1522.62 1136.03,1522.94 1137.07,1523.26 1138.11,1523.58 1139.14,1523.89 1140.18,1524.21 1141.22,1524.52 1142.26,1524.83 1143.3,1525.15 1144.34,1525.46 1145.38,1525.76 1146.42,1526.07 1147.46,1526.38 1148.5,1526.68 1149.54,1526.99 1150.58,1527.29 1151.62,1527.59 1152.66,1527.89 1153.7,1528.19 1154.74,1528.48 1155.77,1528.78 1156.81,1529.07 1157.85,1529.36 1158.89,1529.65 1159.93,1529.94 1160.97,1530.23 1162.01,1530.52 1163.05,1530.8 1164.09,1531.09 1165.13,1531.37 1166.17,1531.65 1167.21,1531.93 1168.25,1532.21 1169.29,1532.49 1170.33,1532.76 1171.37,1533.04 1172.4,1533.31 1173.44,1533.58 1174.48,1533.85 1175.52,1534.12 1176.56,1534.39 1177.6,1534.66 1178.64,1534.92 1179.68,1535.19 1180.72,1535.45 1181.76,1535.71 1182.8,1535.97 1183.84,1536.23 1184.88,1536.49 1185.92,1536.74 1186.96,1537 1188,1537.25 1189.03,1537.5 1190.07,1537.75 1191.11,1538 1192.15,1538.25 1193.19,1538.5 1194.23,1538.74 1195.27,1538.98 1196.31,1539.23 1197.35,1539.47 1198.39,1539.71 1199.43,1539.94 1200.47,1540.18 1201.51,1540.42 1202.55,1540.65 1203.59,1540.88 1204.62,1541.11 1205.66,1541.34 1206.7,1541.57 1207.74,1541.8 1208.78,1542.02 1209.82,1542.25 1210.86,1542.47 1211.9,1542.69 1212.94,1542.91 1213.98,1543.12 1215.02,1543.34 1216.06,1543.55 1217.1,1543.77 1218.14,1543.98 1219.18,1544.19 1220.22,1544.4 1221.25,1544.6 1222.29,1544.81 1223.33,1545.01 1224.37,1545.21 1225.41,1545.42 1226.45,1545.62 1227.49,1545.81 1228.53,1546.01 1229.57,1546.21 1230.61,1546.4 1231.65,1546.6 1232.69,1546.79 1233.73,1546.98 1234.77,1547.17 1235.81,1547.36 1236.85,1547.54 1237.88,1547.73 1238.92,1547.91 1239.96,1548.1 1241,1548.28 1242.04,1548.46 1243.08,1548.64 1244.12,1548.82 1245.16,1549 1246.2,1549.17 1247.24,1549.35 1248.28,1549.52 1249.32,1549.7 1250.36,1549.87 1251.4,1550.04 1252.44,1550.21 1253.48,1550.38 1254.51,1550.55 1255.55,1550.72 1256.59,1550.88 1257.63,1551.05 1258.67,1551.21 1259.71,1551.37 1260.75,1551.54 1261.79,1551.69 1262.83,1551.85 1263.87,1552.01 1264.91,1552.17 1265.95,1552.32 1266.99,1552.47 1268.03,1552.63 1269.07,1552.78 1270.11,1552.93 1271.14,1553.07 1272.18,1553.22 1273.22,1553.37 1274.26,1553.51 1275.3,1553.66 1276.34,1553.8 1277.38,1553.94 1278.42,1554.08 1279.46,1554.22 1280.5,1554.36 1281.54,1554.49 1282.58,1554.63 1283.62,1554.76 1284.66,1554.9 1285.7,1555.03 1286.74,1555.16 1287.77,1555.29 1288.81,1555.42 1289.85,1555.55 1290.89,1555.68 1291.93,1555.81 1292.97,1555.93 1294.01,1556.06 1295.05,1556.18 1296.09,1556.3 1297.13,1556.43 1298.17,1556.55 1299.21,1556.67 1300.25,1556.79 1301.29,1556.91 1302.33,1557.03 1303.37,1557.14 1304.4,1557.26 1305.44,1557.38 1306.48,1557.49 1307.52,1557.61 1308.56,1557.72 1309.6,1557.83 1310.64,1557.95 1311.68,1558.06 1312.72,1558.17 1313.76,1558.27 1314.8,1558.38 1315.84,1558.49 1316.88,1558.59 1317.92,1558.7 1318.96,1558.8 1320,1558.9 1321.03,1559 1322.07,1559.1 1323.11,1559.2 1324.15,1559.3 1325.19,1559.4 1326.23,1559.49 1327.27,1559.59 1328.31,1559.68 1329.35,1559.77 1330.39,1559.87 1331.43,1559.96 1332.47,1560.05 1333.51,1560.14 1334.55,1560.23 1335.59,1560.31 1336.62,1560.4 1337.66,1560.49 1338.7,1560.57 1339.74,1560.66 1340.78,1560.74 1341.82,1560.83 1342.86,1560.91 1343.9,1560.99 1344.94,1561.07 1345.98,1561.15 1347.02,1561.23 1348.06,1561.31 1349.1,1561.39 1350.14,1561.47 1351.18,1561.55 1352.22,1561.63 1353.25,1561.71 1354.29,1561.78 1355.33,1561.86 1356.37,1561.93 1357.41,1562.01 1358.45,1562.08 1359.49,1562.16 1360.53,1562.23 1361.57,1562.31 1362.61,1562.38 1363.65,1562.45 1364.69,1562.52 1365.73,1562.59 1366.77,1562.67 1367.81,1562.73 1368.85,1562.8 1369.88,1562.87 1370.92,1562.94 1371.96,1563.01 1373,1563.07 1374.04,1563.14 1375.08,1563.2 1376.12,1563.26 1377.16,1563.33 1378.2,1563.39 1379.24,1563.45 1380.28,1563.51 1381.32,1563.57 1382.36,1563.63 1383.4,1563.69 1384.44,1563.75 1385.48,1563.81 1386.51,1563.86 1387.55,1563.92 1388.59,1563.98 1389.63,1564.03 1390.67,1564.09 1391.71,1564.14 1392.75,1564.2 1393.79,1564.25 1394.83,1564.3 1395.87,1564.35 1396.91,1564.41 1397.95,1564.46 1398.99,1564.51 1400.03,1564.56 1401.07,1564.61 1402.11,1564.66 1403.14,1564.71 1404.18,1564.76 1405.22,1564.81 1406.26,1564.85 1407.3,1564.9 1408.34,1564.95 1409.38,1565 1410.42,1565.05 1411.46,1565.09 1412.5,1565.14 1413.54,1565.18 1414.58,1565.23 1415.62,1565.28 1416.66,1565.32 1417.7,1565.37 1418.74,1565.41 1419.77,1565.46 1420.81,1565.5 1421.85,1565.55 1422.89,1565.59 1423.93,1565.63 1424.97,1565.68 1426.01,1565.72 1427.05,1565.76 1428.09,1565.8 1429.13,1565.84 1430.17,1565.88 1431.21,1565.92 1432.25,1565.96 1433.29,1566 1434.33,1566.04 1435.37,1566.08 1436.4,1566.11 1437.44,1566.15 1438.48,1566.19 1439.52,1566.22 1440.56,1566.26 1441.6,1566.29 1442.64,1566.33 1443.68,1566.36 1444.72,1566.4 1445.76,1566.43 1446.8,1566.47 1447.84,1566.5 1448.88,1566.53 1449.92,1566.56 1450.96,1566.6 1452,1566.63 1453.03,1566.66 1454.07,1566.69 1455.11,1566.72 1456.15,1566.75 1457.19,1566.78 1458.23,1566.81 1459.27,1566.84 1460.31,1566.87 1461.35,1566.9 1462.39,1566.93 1463.43,1566.96 1464.47,1566.99 1465.51,1567.02 1466.55,1567.05 1467.59,1567.08 1468.62,1567.1 1469.66,1567.13 1470.7,1567.16 1471.74,1567.19 1472.78,1567.21 1473.82,1567.24 1474.86,1567.27 1475.9,1567.3 1476.94,1567.32 1477.98,1567.35 1479.02,1567.38 1480.06,1567.4 1481.1,1567.43 1482.14,1567.46 1483.18,1567.48 1484.22,1567.51 1485.25,1567.54 1486.29,1567.56 1487.33,1567.59 1488.37,1567.61 1489.41,1567.64 1490.45,1567.66 1491.49,1567.68 1492.53,1567.71 1493.57,1567.73 1494.61,1567.75 1495.65,1567.78 1496.69,1567.8 1497.73,1567.82 1498.77,1567.84 1499.81,1567.86 1500.85,1567.89 1501.88,1567.91 1502.92,1567.93 1503.96,1567.95 1505,1567.97 1506.04,1567.99 1507.08,1568.01 1508.12,1568.03 1509.16,1568.05 1510.2,1568.07 1511.24,1568.09 1512.28,1568.11 1513.32,1568.13 1514.36,1568.15 1515.4,1568.17 1516.44,1568.19 1517.48,1568.2 1518.51,1568.22 1519.55,1568.24 1520.59,1568.26 1521.63,1568.28 1522.67,1568.29 1523.71,1568.31 1524.75,1568.33 1525.79,1568.35 1526.83,1568.36 1527.87,1568.38 1528.91,1568.4 1529.95,1568.42 1530.99,1568.43 1532.03,1568.45 1533.07,1568.47 1534.11,1568.48 1535.14,1568.5 1536.18,1568.52 1537.22,1568.53 1538.26,1568.55 1539.3,1568.57 1540.34,1568.58 1541.38,1568.6 1542.42,1568.61 1543.46,1568.63 1544.5,1568.65 1545.54,1568.66 1546.58,1568.68 1547.62,1568.69 1548.66,1568.71 1549.7,1568.73 1550.74,1568.74 1551.77,1568.76 1552.81,1568.77 1553.85,1568.79 1554.89,1568.8 1555.93,1568.82 1556.97,1568.83 1558.01,1568.85 1559.05,1568.86 1560.09,1568.87 1561.13,1568.89 1562.17,1568.9 1563.21,1568.92 1564.25,1568.93 1565.29,1568.94 1566.33,1568.96 1567.37,1568.97 1568.4,1568.98 1569.44,1568.99 1570.48,1569.01 1571.52,1569.02 1572.56,1569.03 1573.6,1569.05 1574.64,1569.06 1575.68,1569.07 1576.72,1569.08 1577.76,1569.09 1578.8,1569.11 1579.84,1569.12 1580.88,1569.13 1581.92,1569.14 1582.96,1569.15 1584,1569.17 1585.03,1569.18 1586.07,1569.19 1587.11,1569.2 1588.15,1569.21 1589.19,1569.22 1590.23,1569.23 1591.27,1569.24 1592.31,1569.26 1593.35,1569.27 1594.39,1569.28 1595.43,1569.29 1596.47,1569.3 1597.51,1569.31 1598.55,1569.32 1599.59,1569.33 1600.62,1569.34 1601.66,1569.35 1602.7,1569.36 1603.74,1569.37 1604.78,1569.38 1605.82,1569.39 1606.86,1569.41 1607.9,1569.42 1608.94,1569.43 1609.98,1569.44 1611.02,1569.45 1612.06,1569.46 1613.1,1569.47 1614.14,1569.48 1615.18,1569.49 1616.22,1569.5 1617.25,1569.51 1618.29,1569.52 1619.33,1569.53 1620.37,1569.54 1621.41,1569.55 1622.45,1569.56 1623.49,1569.57 1624.53,1569.58 1625.57,1569.59 1626.61,1569.6 1627.65,1569.6 1628.69,1569.61 1629.73,1569.62 1630.77,1569.63 1631.81,1569.64 1632.85,1569.65 1633.88,1569.66 1634.92,1569.67 1635.96,1569.68 1637,1569.68 1638.04,1569.69 1639.08,1569.7 1640.12,1569.71 1641.16,1569.72 1642.2,1569.73 1643.24,1569.74 1644.28,1569.74 1645.32,1569.75 1646.36,1569.76 1647.4,1569.77 1648.44,1569.78 1649.48,1569.78 1650.51,1569.79 1651.55,1569.8 1652.59,1569.81 1653.63,1569.82 1654.67,1569.82 1655.71,1569.83 1656.75,1569.84 1657.79,1569.85 1658.83,1569.85 1659.87,1569.86 1660.91,1569.87 1661.95,1569.88 1662.99,1569.88 1664.03,1569.89 1665.07,1569.9 1666.11,1569.91 1667.14,1569.91 1668.18,1569.92 1669.22,1569.93 1670.26,1569.93 1671.3,1569.94 1672.34,1569.95 1673.38,1569.95 1674.42,1569.96 1675.46,1569.97 1676.5,1569.98 1677.54,1569.98 1678.58,1569.99 1679.62,1570 1680.66,1570 1681.7,1570.01 1682.74,1570.02 1683.77,1570.02 1684.81,1570.03 1685.85,1570.04 1686.89,1570.04 1687.93,1570.05 1688.97,1570.06 1690.01,1570.06 1691.05,1570.07 1692.09,1570.08 1693.13,1570.08 1694.17,1570.09 1695.21,1570.09 1696.25,1570.1 1697.29,1570.11 1698.33,1570.11 1699.37,1570.12 1700.4,1570.12 1701.44,1570.13 1702.48,1570.14 1703.52,1570.14 1704.56,1570.15 1705.6,1570.15 1706.64,1570.16 1707.68,1570.16 1708.72,1570.17 1709.76,1570.17 1710.8,1570.18 1711.84,1570.19 1712.88,1570.19 1713.92,1570.2 1714.96,1570.2 1716,1570.21 1717.03,1570.21 1718.07,1570.22 1719.11,1570.22 1720.15,1570.23 1721.19,1570.23 1722.23,1570.24 1723.27,1570.24 1724.31,1570.25 1725.35,1570.25 1726.39,1570.26 1727.43,1570.26 1728.47,1570.27 1729.51,1570.27 1730.55,1570.28 1731.59,1570.28 1732.62,1570.29 1733.66,1570.29 1734.7,1570.29 1735.74,1570.3 1736.78,1570.3 1737.82,1570.31 1738.86,1570.31 1739.9,1570.32 1740.94,1570.32 1741.98,1570.33 1743.02,1570.33 1744.06,1570.34 1745.1,1570.34 1746.14,1570.34 1747.18,1570.35 1748.22,1570.35 1749.25,1570.36 1750.29,1570.36 1751.33,1570.37 1752.37,1570.37 1753.41,1570.37 1754.45,1570.38 1755.49,1570.38 1756.53,1570.39 1757.57,1570.39 1758.61,1570.39 1759.65,1570.4 1760.69,1570.4 1761.73,1570.41 1762.77,1570.41 1763.81,1570.41 1764.85,1570.42 1765.88,1570.42 1766.92,1570.43 1767.96,1570.43 1769,1570.43 1770.04,1570.44 1771.08,1570.44 1772.12,1570.44 1773.16,1570.45 1774.2,1570.45 1775.24,1570.45 1776.28,1570.46 1777.32,1570.46 1778.36,1570.47 1779.4,1570.47 1780.44,1570.47 1781.48,1570.48 1782.51,1570.48 1783.55,1570.48 1784.59,1570.48 1785.63,1570.49 1786.67,1570.49 1787.71,1570.49 1788.75,1570.5 1789.79,1570.5 1790.83,1570.5 1791.87,1570.51 1792.91,1570.51 1793.95,1570.51 1794.99,1570.52 1796.03,1570.52 1797.07,1570.52 1798.11,1570.52 1799.14,1570.53 1800.18,1570.53 1801.22,1570.53 1802.26,1570.54 1803.3,1570.54 1804.34,1570.54 1805.38,1570.54 1806.42,1570.55 1807.46,1570.55 1808.5,1570.55 1809.54,1570.55 1810.58,1570.56 1811.62,1570.56 1812.66,1570.56 1813.7,1570.56 1814.74,1570.57 1815.77,1570.57 1816.81,1570.57 1817.85,1570.58 1818.89,1570.58 1819.93,1570.58 1820.97,1570.58 1822.01,1570.59 1823.05,1570.59 1824.09,1570.59 1825.13,1570.59 1826.17,1570.59 1827.21,1570.6 1828.25,1570.6 1829.29,1570.6 1830.33,1570.6 1831.37,1570.61 1832.4,1570.61 1833.44,1570.61 1834.48,1570.61 1835.52,1570.62 1836.56,1570.62 1837.6,1570.62 1838.64,1570.62 1839.68,1570.62 1840.72,1570.63 1841.76,1570.63 1842.8,1570.63 1843.84,1570.63 1844.88,1570.64 1845.92,1570.64 1846.96,1570.64 1848,1570.64 1849.03,1570.64 1850.07,1570.65 1851.11,1570.65 1852.15,1570.65 1853.19,1570.65 1854.23,1570.65 1855.27,1570.65 1856.31,1570.66 1857.35,1570.66 1858.39,1570.66 1859.43,1570.66 1860.47,1570.66 1861.51,1570.67 1862.55,1570.67 1863.59,1570.67 1864.62,1570.67 1865.66,1570.67 1866.7,1570.67 1867.74,1570.68 1868.78,1570.68 1869.82,1570.68 1870.86,1570.68 1871.9,1570.68 1872.94,1570.68 1873.98,1570.68 1875.02,1570.69 1876.06,1570.69 1877.1,1570.69 1878.14,1570.69 1879.18,1570.69 1880.22,1570.69 1881.25,1570.69 1882.29,1570.7 1883.33,1570.7 1884.37,1570.7 1885.41,1570.7 1886.45,1570.7 1887.49,1570.7 1888.53,1570.7 1889.57,1570.71 1890.61,1570.71 1891.65,1570.71 1892.69,1570.71 1893.73,1570.71 1894.77,1570.71 1895.81,1570.71 1896.85,1570.71 1897.88,1570.72 1898.92,1570.72 1899.96,1570.72 1901,1570.72 1902.04,1570.72 1903.08,1570.72 1904.12,1570.72 1905.16,1570.72 1906.2,1570.73 1907.24,1570.73 1908.28,1570.73 1909.32,1570.73 1910.36,1570.73 1911.4,1570.73 1912.44,1570.73 1913.48,1570.73 1914.51,1570.73 1915.55,1570.74 1916.59,1570.74 1917.63,1570.74 1918.67,1570.74 1919.71,1570.74 1920.75,1570.74 1921.79,1570.74 1922.83,1570.74 1923.87,1570.74 1924.91,1570.75 1925.95,1570.75 1926.99,1570.75 1928.03,1570.75 1929.07,1570.75 1930.11,1570.75 1931.14,1570.75 1932.18,1570.75 1933.22,1570.75 1934.26,1570.75 1935.3,1570.76 1936.34,1570.76 1937.38,1570.76 1938.42,1570.76 1939.46,1570.76 1940.5,1570.76 1941.54,1570.76 1942.58,1570.76 1943.62,1570.76 1944.66,1570.76 1945.7,1570.76 1946.74,1570.77 1947.77,1570.77 1948.81,1570.77 1949.85,1570.77 1950.89,1570.77 1951.93,1570.77 1952.97,1570.77 1954.01,1570.77 1955.05,1570.77 1956.09,1570.77 1957.13,1570.77 1958.17,1570.77 1959.21,1570.77 1960.25,1570.77 1961.29,1570.78 1962.33,1570.78 1963.37,1570.78 1964.4,1570.78 1965.44,1570.78 1966.48,1570.78 1967.52,1570.78 1968.56,1570.78 1969.6,1570.78 1970.64,1570.78 1971.68,1570.78 1972.72,1570.78 1973.76,1570.78 1974.8,1570.78 1975.84,1570.78 1976.88,1570.79 1977.92,1570.79 1978.96,1570.79 1980,1570.79 1981.03,1570.79 1982.07,1570.79 1983.11,1570.79 1984.15,1570.79 1985.19,1570.79 1986.23,1570.79 1987.27,1570.79 1988.31,1570.79 1989.35,1570.79 1990.39,1570.79 1991.43,1570.79 1992.47,1570.79 1993.51,1570.79 1994.55,1570.8 1995.59,1570.8 1996.62,1570.8 1997.66,1570.8 1998.7,1570.8 1999.74,1570.8 2000.78,1570.8 2001.82,1570.8 2002.86,1570.8 2003.9,1570.8 2004.94,1570.8 2005.98,1570.8 2007.02,1570.8 2008.06,1570.8 2009.1,1570.8 2010.14,1570.8 2011.18,1570.8 2012.22,1570.8 2013.25,1570.8 2014.29,1570.81 2015.33,1570.81 2016.37,1570.81 2017.41,1570.81 2018.45,1570.81 2019.49,1570.81 2020.53,1570.81 2021.57,1570.81 2022.61,1570.81 2023.65,1570.81 2024.69,1570.81 2025.73,1570.81 2026.77,1570.81 2027.81,1570.81 2028.85,1570.81 2029.88,1570.81 2030.92,1570.81 2031.96,1570.81 2033,1570.81 2034.04,1570.81 2035.08,1570.81 2036.12,1570.81 2037.16,1570.81 2038.2,1570.81 2039.24,1570.82 2040.28,1570.82 2041.32,1570.82 2042.36,1570.82 2043.4,1570.82 2044.44,1570.82 2045.48,1570.82 2046.51,1570.82 2047.55,1570.82 2048.59,1570.82 2049.63,1570.82 2050.67,1570.82 2051.71,1570.82 2052.75,1570.82 2053.79,1570.82 2054.83,1570.82 2055.87,1570.82 2056.91,1570.82 2057.95,1570.82 2058.99,1570.82 2060.03,1570.82 2061.07,1570.82 2062.11,1570.82 2063.14,1570.82 2064.18,1570.82 2065.22,1570.82 2066.26,1570.82 2067.3,1570.82 2068.34,1570.82 2069.38,1570.82 2070.42,1570.82 2071.46,1570.82 2072.5,1570.82 2073.54,1570.83 2074.58,1570.83 2075.62,1570.83 2076.66,1570.83 2077.7,1570.83 2078.74,1570.83 2079.77,1570.83 2080.81,1570.83 2081.85,1570.83 2082.89,1570.83 2083.93,1570.83 2084.97,1570.83 2086.01,1570.83 2087.05,1570.83 2088.09,1570.83 2089.13,1570.83 2090.17,1570.83 2091.21,1570.83 2092.25,1570.83 2093.29,1570.83 2094.33,1570.83 2095.37,1570.83 2096.4,1570.83 2097.44,1570.83 2098.48,1570.83 2099.52,1570.83 2100.56,1570.83 2101.6,1570.83 2102.64,1570.83 2103.68,1570.83 2104.72,1570.83 2105.76,1570.83 2106.8,1570.83 2107.84,1570.83 2108.88,1570.83 2109.92,1570.83 2110.96,1570.83 2112,1570.83 2113.03,1570.83 2114.07,1570.83 2115.11,1570.84 2116.15,1570.84 2117.19,1570.84 2118.23,1570.84 2119.27,1570.84 2120.31,1570.84 2121.35,1570.84 2122.39,1570.84 2123.43,1570.84 2124.47,1570.84 2125.51,1570.84 2126.55,1570.84 2127.59,1570.84 2128.62,1570.84 2129.66,1570.84 2130.7,1570.84 2131.74,1570.84 2132.78,1570.84 2133.82,1570.84 2134.86,1570.84 2135.9,1570.84 2136.94,1570.84 2137.98,1570.84 2139.02,1570.84 2140.06,1570.84 2141.1,1570.84 2142.14,1570.84 2143.18,1570.84 2144.22,1570.84 2145.25,1570.84 2146.29,1570.84 2147.33,1570.84 2148.37,1570.84 2149.41,1570.84 2150.45,1570.84 2151.49,1570.84 2152.53,1570.84 2153.57,1570.84 2154.61,1570.84 2155.65,1570.84 2156.69,1570.84 2157.73,1570.84 2158.77,1570.84 2159.81,1570.84 2160.85,1570.84 2161.88,1570.84 2162.92,1570.84 2163.96,1570.84 2165,1570.84 2166.04,1570.84 2167.08,1570.84 2168.12,1570.84 2169.16,1570.84 2170.2,1570.84 2171.24,1570.84 2172.28,1570.84 2173.32,1570.84 2174.36,1570.84 2175.4,1570.84 2176.44,1570.84 2177.48,1570.84 2178.51,1570.84 2179.55,1570.84 2180.59,1570.84 2181.63,1570.85 2182.67,1570.85 2183.71,1570.85 2184.75,1570.85 2185.79,1570.85 2186.83,1570.85 2187.87,1570.85 2188.91,1570.85 2189.95,1570.85 2190.99,1570.85 2192.03,1570.85 2193.07,1570.85 2194.11,1570.85 2195.14,1570.85 2196.18,1570.85 2197.22,1570.85 2198.26,1570.85 2199.3,1570.85 2200.34,1570.85 2201.38,1570.85 2202.42,1570.85 2203.46,1570.85 2204.5,1570.85 2205.54,1570.85 2206.58,1570.85 2207.62,1570.85 2208.66,1570.85 2209.7,1570.85 2210.74,1570.85 2211.77,1570.85 2212.81,1570.85 2213.85,1570.85 2214.89,1570.85 2215.93,1570.85 2216.97,1570.85 2218.01,1570.85 2219.05,1570.85 2220.09,1570.85 2221.13,1570.85 2222.17,1570.85 2223.21,1570.85 2224.25,1570.85 2225.29,1570.85 2226.33,1570.85 2227.37,1570.85 2228.4,1570.85 2229.44,1570.85 2230.48,1570.85 2231.52,1570.85 2232.56,1570.85 2233.6,1570.85 2234.64,1570.85 2235.68,1570.85 2236.72,1570.85 2237.76,1570.85 2238.8,1570.85 2239.84,1570.85 2240.88,1570.85 2241.92,1570.85 2242.96,1570.85 2244,1570.85 2245.03,1570.85 2246.07,1570.85 2247.11,1570.85 2248.15,1570.85 2249.19,1570.85 2250.23,1570.85 2251.27,1570.85 2252.31,1570.85 2253.35,1570.85 2254.39,1570.85 2255.43,1570.85 2256.47,1570.85 2257.51,1570.85 2258.55,1570.85 2259.59,1570.85 2260.62,1570.85 2261.66,1570.85 2262.7,1570.85 2263.74,1570.85 2264.78,1570.85 2265.82,1570.85 2266.86,1570.85 2267.9,1570.85 2268.94,1570.85 2269.98,1570.85 2271.02,1570.85 2272.06,1570.85 2273.1,1570.85 2274.14,1570.85 2275.18,1570.85 2276.22,1570.85 2277.25,1570.85 2278.29,1570.85 2279.33,1570.85 2280.37,1570.85 2281.41,1570.85 2282.45,1570.85 2283.49,1570.85 2284.53,1570.85 2285.57,1570.85 2286.61,1570.85 2287.65,1570.85 2288.69,1570.85 2289.73,1570.85 2290.77,1570.85 2291.81,1570.85 2292.85,1570.85 2293.88,1570.85 2294.92,1570.85 2295.96,1570.85 2297,1570.85 2298.04,1570.85 2299.08,1570.86 2300.12,1570.86 2301.16,1570.86 2302.2,1570.86 2303.24,1570.86 2304.28,1570.86 2305.32,1570.86 2306.36,1570.86 2307.4,1570.86 2308.44,1570.86 2309.48,1570.86 2310.51,1570.86 2311.55,1570.86 2312.59,1570.86 2313.63,1570.86 2314.67,1570.86 2315.71,1570.86 2316.75,1570.86 2317.79,1570.86 2318.83,1570.86 2319.87,1570.86 2320.91,1570.86 2321.95,1570.86 2322.99,1570.86 2324.03,1570.86 2325.07,1570.86 2326.11,1570.86 2327.14,1570.86 2328.18,1570.86 2329.22,1570.86 2330.26,1570.86 2331.3,1570.86 2332.34,1570.86 2333.38,1570.86 2334.42,1570.86 2335.46,1570.86 2336.5,1570.86 2337.54,1570.86 2338.58,1570.86"/>
</g>
</g>
<g clip-path="url(#c0)">
<g fill="none" stroke-linecap="butt" stroke-width="2.08">
<path d="M259.84,1570.86l0,-1547.24"/>
<path d="M259.84,1570.86l12.5,0M259.84,1474.16l12.5,0M259.84,1377.46l12.5,0M259.84,1280.75l12.5,0M259.84,1184.05l12.5,0M259.84,1087.35l12.5,0M259.84,990.64l12.5,0M259.84,893.94l12.5,0M259.84,797.24l12.5,0M259.84,700.54l12.5,0M259.84,603.83l12.5,0M259.84,507.13l12.5,0M259.84,410.43l12.5,0M259.84,313.73l12.5,0M259.84,217.02l12.5,0M259.84,120.32l12.5,0M259.84,23.62l12.5,0"/>
<path d="M259.84,1570.86l25,0M259.84,1184.05l25,0M259.84,797.24l25,0M259.84,410.43l25,0M259.84,23.62l25,0"/>
</g>
<g fill="none" stroke-width="0.1">
<g transform="matrix(0 -1 1 0 55 905.05)">
<path d="m1.27,-6.45c0,4.87,1.12,7.27,3.3,7.27c2.02,0,4.8,-1.27,7.35,-3.3c4.05,-3.3,6.52,-6.22,11.55,-13.8l-1.72,6.82c-0.82,3.3,-1.2,5.7,-1.2,7.65c0,1.57,0.67,2.62,1.95,2.62c1.27,0,3.07,-1.05,5.62,-2.92l6.07,-4.5l-0.75,-1.42l-3.3,2.32c-1.05,0.75,-2.25,1.27,-2.92,1.27c-0.6,0,-1.05,-0.67,-1.05,-1.72c0,-0.6,0.15,-1.27,0.6,-3.45l9.45,-44.55l-0.9,-0.82c-3.9,1.95,-6.6,2.62,-12,3.15l-0.3,1.57l3.6,0c1.8,0,2.55,0.52,2.55,1.8c0,0.6,-0.07,1.27,-0.15,1.8l-2.1,11.55c-2.25,-0.67,-4.27,-1.05,-6.15,-1.05c-5.17,0,-12.22,5.4,-15.67,11.92c-2.32,4.35,-3.82,11.47,-3.82,17.77m5.4,-0.9c0,-9.45,3.45,-21.15,7.12,-24c0.97,-0.75,2.4,-1.12,4.42,-1.12c3.3,0,5.47,0.45,7.95,1.72l-0.9,4.42c-1.35,6.6,-5.02,13.2,-9.67,17.62c-2.62,2.47,-5.62,4.27,-7.05,4.27c-1.2,0,-1.87,-1.05,-1.87,-2.92m30.97,7.57c2.77,-0.15,5.55,-0.22,8.32,-0.22c2.77,0,5.55,0.07,8.25,0.22l0.37,-2.1l-3.15,-0.22c-3,-0.22,-3.67,-0.82,-3.67,-3.3c0,-0.6,0.07,-1.42,0.22,-2.25l6,-34.8l25.35,43.27l3.75,0l7.05,-41.47c1.42,-8.47,1.72,-8.85,4.5,-9l2.77,-0.15l0.37,-2.1c-2.77,0.15,-5.47,0.22,-8.25,0.22c-2.62,0,-5.25,-0.07,-7.87,-0.22l-0.37,2.1l3.52,0.15c1.95,0.07,2.7,0.6,2.7,1.8c0,0.52,-0.22,2.47,-0.37,3.45l-6,36.67l-25.87,-44.17c-2.02,0.15,-4.05,0.22,-6.07,0.22c-2.02,0,-4.05,-0.07,-6.07,-0.22l-0.37,2.1l2.62,0.15c1.27,0.07,2.92,0.6,3.75,1.27c1.12,0.9,2.25,2.32,2.25,2.92c0,0.52,-0.22,1.8,-0.37,2.25l-6.6,35.55c-0.9,4.65,-1.35,5.32,-4.05,5.55l-2.32,0.22l-0.37,2.1m64.2,11.02c0.6,-0.15,1.27,-0.22,1.87,-0.22c0.67,0,1.27,0.07,1.95,0.22l20.62,-60c-0.67,0.15,-1.27,0.22,-1.95,0.22c-0.6,0,-1.27,-0.07,-1.87,-0.22l-20.62,60m31.72,-17.7c0,4.87,1.12,7.27,3.3,7.27c2.02,0,4.8,-1.27,7.35,-3.3c4.05,-3.3,6.52,-6.22,11.55,-13.8l-1.72,6.82c-0.82,3.3,-1.2,5.7,-1.2,7.65c0,1.57,0.67,2.62,1.95,2.62c1.27,0,3.07,-1.05,5.62,-2.92l6.07,-4.5l-0.75,-1.42l-3.3,2.32c-1.05,0.75,-2.25,1.27,-2.92,1.27c-0.6,0,-1.05,-0.67,-1.05,-1.72c0,-0.6,0.15,-1.27,0.6,-3.45l9.45,-44.55l-0.9,-0.82c-3.9,1.95,-6.6,2.62,-12,3.15l-0.3,1.57l3.6,0c1.8,0,2.55,0.52,2.55,1.8c0,0.6,-0.07,1.27,-0.15,1.8l-2.1,11.55c-2.25,-0.67,-4.27,-1.05,-6.15,-1.05c-5.17,0,-12.22,5.4,-15.67,11.92c-2.32,4.35,-3.82,11.47,-3.82,17.77m5.4,-0.9c0,-9.45,3.45,-21.15,7.12,-24c0.97,-0.75,2.4,-1.12,4.42,-1.12c3.3,0,5.47,0.45,7.95,1.72l-0.9,4.42c-1.35,6.6,-5.02,13.2,-9.67,17.62c-2.62,2.47,-5.62,4.27,-7.05,4.27c-1.2,0,-1.87,-1.05,-1.87,-2.92m33.07,7.57c3.82,-0.15,7.72,-0.22,11.55,-0.22c5.62,0,11.25,0.22,16.87,0.22c6.45,0,4.95,-0.15,7.87,-0.22l0.3,-2.7c0.37,-3.15,0.97,-6.3,1.57,-9.37l-2.02,0l-1.2,4.5c-0.67,2.62,-1.35,3.52,-2.92,3.9c-1.42,0.37,-6.75,0.75,-11.25,0.75c-3.07,0,-5.1,-0.07,-9.82,-0.52c0,-0.9,0,-1.72,0.15,-2.62l3.22,-18.97l8.77,0c9.45,0,7.57,0.22,9.9,0.3l1.42,-3.37l-0.3,-0.52l-16.42,0.45l-2.77,0l3.15,-17.85c0.22,-1.2,0.37,-1.8,0.67,-2.4c4.2,-0.15,2.32,-0.15,9.75,-0.3c4.87,0,7.95,0.67,8.02,1.8l0.6,6.67l1.8,0c0.22,-4.8,0.75,-8.55,1.57,-11.4c-1.65,-0.15,-3.45,-0.22,-5.17,-0.22c-5.85,0,-11.77,0.22,-17.7,0.22c-4.05,0,-8.02,-0.07,-12,-0.22l-0.22,2.1l4.05,0.15c1.8,0.07,2.62,0.67,2.62,1.95c0,1.12,-0.22,3.37,-0.67,5.77l-6.52,37.8c-0.22,1.35,-1.2,1.87,-4.5,2.4l-0.37,1.95" fill="#000000" stroke="none" fill-opacity="1"/>
</g>
<path d="m228.92,1591.35c-2.96,0,-5.38,-0.83,-7.26,-2.49c-1.87,-1.66,-3.26,-3.99,-4.14,-6.99c-0.88,-2.99,-1.32,-6.5,-1.32,-10.51c0,-4.01,0.44,-7.49,1.32,-10.46c0.88,-2.96,2.26,-5.25,4.14,-6.88c1.87,-1.62,4.31,-2.43,7.31,-2.43c2.81,0,5.16,0.81,7.04,2.43c1.87,1.62,3.27,3.92,4.2,6.91c0.92,2.98,1.38,6.47,1.38,10.48c0,4.01,-0.46,7.5,-1.4,10.48c-0.93,2.98,-2.33,5.3,-4.2,6.96c-1.86,1.66,-4.21,2.49,-7.07,2.49m0,-2.92c2.63,0,4.47,-1.49,5.5,-4.49c1.02,-2.99,1.54,-7.17,1.54,-12.51c0,-5.38,-0.51,-9.54,-1.54,-12.49c-1.02,-2.94,-2.84,-4.41,-5.44,-4.41c-2.63,0,-4.48,1.47,-5.55,4.41c-1.06,2.94,-1.59,7.1,-1.59,12.49c0,5.34,0.52,9.52,1.57,12.51c1.04,2.99,2.89,4.49,5.52,4.49" fill="#000000" stroke="none" fill-opacity="1"/>
<path d="m89.82,1204l0,-3.95l9.05,-10.46c1.91,-2.24,3.43,-4.18,4.55,-5.82c1.12,-1.64,1.92,-3.2,2.41,-4.68c0.48,-1.48,0.73,-3.05,0.73,-4.71c0,-2.05,-0.44,-3.72,-1.32,-4.98c-0.88,-1.26,-2.28,-1.89,-4.2,-1.89c-1.62,0,-2.87,0.37,-3.74,1.13c-0.86,0.75,-1.45,1.74,-1.76,2.95c-0.3,1.21,-0.46,2.53,-0.46,3.98c-1.3,0,-2.4,-0.24,-3.3,-0.73c-0.9,-0.48,-1.35,-1.41,-1.35,-2.79c0,-2.09,0.89,-3.83,2.68,-5.2c1.78,-1.37,4.43,-2.05,7.94,-2.05c3.43,0,6.12,0.82,8.07,2.46c1.95,1.64,2.92,3.83,2.92,6.58c0,2.52,-0.79,4.99,-2.38,7.39c-1.58,2.4,-3.81,5.17,-6.66,8.31l-9.15,10.13l12.52,0c1.62,0,2.72,-0.41,3.3,-1.24c0.57,-0.83,0.99,-1.77,1.24,-2.81l0.21,-0.97l2.27,0l-0.27,9.37l-23.3,0m33.11,-8.12l-2.27,-2.33l8.99,-8.99l-8.99,-8.94l2.27,-2.27l8.99,8.99l8.99,-9.05l2.27,2.32l-8.99,8.99l8.99,8.99l-2.27,2.27l-8.99,-8.99l-8.99,8.99m29.37,8.12l0,-2.27l3.63,0c1.22,0,2.27,-0.22,3.14,-0.67c0.86,-0.45,1.3,-1.52,1.3,-3.22l0,-28.45c-1.37,1.66,-2.61,3.01,-3.71,4.06c-1.1,1.04,-2.19,1.57,-3.27,1.57c-0.79,0,-1.44,-0.27,-1.95,-0.81c-0.5,-0.54,-0.75,-1.24,-0.75,-2.11c1.08,-0.28,2.23,-0.72,3.44,-1.3c1.21,-0.57,2.7,-1.53,4.47,-2.87l3.79,-2.81l3.46,0l0,32.73c0,1.69,0.43,2.77,1.3,3.22c0.86,0.45,1.91,0.67,3.14,0.67l2.65,0l0,2.27l-20.65,0m40.27,0.54c-2.96,0,-5.38,-0.83,-7.26,-2.49c-1.87,-1.66,-3.26,-3.99,-4.14,-6.99c-0.88,-2.99,-1.32,-6.5,-1.32,-10.51c0,-4.01,0.44,-7.49,1.32,-10.46c0.88,-2.96,2.26,-5.25,4.14,-6.88c1.87,-1.62,4.31,-2.43,7.31,-2.43c2.81,0,5.16,0.81,7.04,2.43c1.87,1.62,3.27,3.92,4.2,6.91c0.92,2.98,1.38,6.47,1.38,10.48c0,4.01,-0.46,7.5,-1.4,10.48c-0.93,2.98,-2.33,5.3,-4.2,6.96c-1.86,1.66,-4.21,2.49,-7.07,2.49m0,-2.92c2.63,0,4.47,-1.49,5.5,-4.49c1.02,-2.99,1.54,-7.17,1.54,-12.51c0,-5.38,-0.51,-9.54,-1.54,-12.49c-1.02,-2.94,-2.84,-4.41,-5.44,-4.41c-2.63,0,-4.48,1.47,-5.55,4.41c-1.06,2.94,-1.59,7.1,-1.59,12.49c0,5.34,0.52,9.52,1.57,12.51c1.04,2.99,2.89,4.49,5.52,4.49" fill="#000000" stroke="none" fill-opacity="1"/>
<path d="m210.82,1174.44l0,-1.36l2.17,0c0.73,0,1.36,-0.13,1.88,-0.4c0.51,-0.27,0.77,-0.91,0.77,-1.93l0,-17.06c-0.82,0.99,-1.56,1.8,-2.22,2.43c-0.66,0.62,-1.31,0.94,-1.96,0.94c-0.47,0,-0.86,-0.16,-1.17,-0.48c-0.3,-0.32,-0.45,-0.74,-0.45,-1.26c0.65,-0.17,1.33,-0.43,2.06,-0.77c0.72,-0.34,1.61,-0.92,2.68,-1.72l2.27,-1.68l2.07,0l0,19.62c0,1.01,0.25,1.66,0.77,1.93c0.51,0.27,1.14,0.4,1.88,0.4l1.59,0l0,1.36l-12.38,0m23.91,0.32c-1.62,0,-2.98,-0.27,-4.07,-0.82c-1.09,-0.55,-1.91,-1.29,-2.46,-2.22c-0.55,-0.93,-0.82,-1.96,-0.82,-3.08c0,-1.04,0.21,-1.91,0.65,-2.63c0.43,-0.71,1.02,-1.33,1.77,-1.85c0.74,-0.52,1.58,-1,2.51,-1.46c-1.23,-0.69,-2.24,-1.51,-3.02,-2.46c-0.78,-0.95,-1.17,-2.11,-1.17,-3.47c0,-0.99,0.23,-1.93,0.71,-2.82c0.47,-0.88,1.22,-1.6,2.25,-2.16c1.02,-0.55,2.37,-0.82,4.04,-0.82c2.03,0,3.61,0.52,4.72,1.57c1.11,1.05,1.67,2.38,1.67,4.01c0,1.42,-0.4,2.53,-1.2,3.33c-0.8,0.79,-1.86,1.51,-3.18,2.16c1.6,0.75,2.9,1.63,3.89,2.63c0.99,0.99,1.49,2.19,1.49,3.6c0,2.05,-0.7,3.66,-2.11,4.81c-1.4,1.14,-3.3,1.72,-5.68,1.72m0.81,-13.52c1.21,-0.6,2.03,-1.27,2.45,-2.01c0.42,-0.73,0.63,-1.66,0.63,-2.79c0,-0.67,-0.11,-1.31,-0.35,-1.91c-0.23,-0.6,-0.62,-1.1,-1.16,-1.49c-0.54,-0.38,-1.26,-0.58,-2.17,-0.58c-1.21,0,-2.14,0.36,-2.79,1.1c-0.65,0.73,-0.97,1.66,-0.97,2.79c0,1.16,0.36,2.11,1.1,2.82c0.73,0.71,1.83,1.4,3.28,2.07m-0.65,12.02c1.4,0,2.54,-0.4,3.39,-1.21c0.85,-0.81,1.28,-1.84,1.28,-3.1c0,-1.1,-0.42,-2.06,-1.28,-2.89c-0.85,-0.82,-2.33,-1.68,-4.43,-2.59c-1.01,0.54,-1.83,1.25,-2.43,2.14c-0.6,0.88,-0.91,1.93,-0.91,3.15c0,1.34,0.36,2.43,1.1,3.26c0.73,0.83,1.83,1.25,3.28,1.25" fill="#000000" stroke="none" fill-opacity="1"/>
<path d="m98.17,817.19l0,-2.27l1.51,0c1.22,0,2.27,-0.22,3.14,-0.67c0.86,-0.45,1.3,-1.52,1.3,-3.22l0,-4.44l-16.69,0l0,-2.22l16.74,-25.85l5.15,0l0,25.04l6.72,0l0,3.03l-6.72,0l0,4.44c0,1.69,0.43,2.77,1.3,3.22c0.86,0.45,1.91,0.67,3.14,0.67l0.7,0l0,2.27l-16.31,0m-6.82,-13.65l12.79,0l0,-10.02c0,-1.04,0,-2.23,0.02,-3.55c0.01,-1.31,0.06,-2.64,0.13,-3.98c0.07,-1.33,0.14,-2.56,0.21,-3.68c-0.18,0.36,-0.47,0.9,-0.86,1.62c-0.39,0.72,-0.84,1.5,-1.35,2.35c-0.5,0.84,-0.99,1.66,-1.46,2.43c-0.46,0.77,-0.86,1.41,-1.19,1.92l-8.29,12.9m31.59,5.52l-2.27,-2.33l8.99,-8.99l-8.99,-8.94l2.27,-2.27l8.99,8.99l8.99,-9.05l2.27,2.32l-8.99,8.99l8.99,8.99l-2.27,2.27l-8.99,-8.99l-8.99,8.99m29.37,8.12l0,-2.27l3.63,0c1.22,0,2.27,-0.22,3.14,-0.67c0.86,-0.45,1.3,-1.52,1.3,-3.22l0,-28.45c-1.37,1.66,-2.61,3.01,-3.71,4.06c-1.1,1.04,-2.19,1.57,-3.27,1.57c-0.79,0,-1.44,-0.27,-1.95,-0.81c-0.5,-0.54,-0.75,-1.24,-0.75,-2.11c1.08,-0.28,2.23,-0.72,3.44,-1.3c1.21,-0.57,2.7,-1.53,4.47,-2.87l3.79,-2.81l3.46,0l0,32.73c0,1.69,0.43,2.77,1.3,3.22c0.86,0.45,1.91,0.67,3.14,0.67l2.65,0l0,2.27l-20.65,0m40.27,0.54c-2.96,0,-5.38,-0.83,-7.26,-2.49c-1.87,-1.66,-3.26,-3.99,-4.14,-6.99c-0.88,-2.99,-1.32,-6.5,-1.32,-10.51c0,-4.01,0.44,-7.49,1.32,-10.46c0.88,-2.96,2.26,-5.25,4.14,-6.88c1.87,-1.62,4.31,-2.43,7.31,-2.43c2.81,0,5.16,0.81,7.04,2.43c1.87,1.62,3.27,3.92,4.2,6.91c0.92,2.98,1.38,6.47,1.38,10.48c0,4.01,-0.46,7.5,-1.4,10.48c-0.93,2.98,-2.33,5.3,-4.2,6.96c-1.86,1.66,-4.21,2.49,-7.07,2.49m0,-2.92c2.63,0,4.47,-1.49,5.5,-4.49c1.02,-2.99,1.54,-7.17,1.54,-12.51c0,-5.38,-0.51,-9.54,-1.54,-12.49c-1.02,-2.94,-2.84,-4.41,-5.44,-4.41c-2.63,0,-4.48,1.47,-5.55,4.41c-1.06,2.94,-1.59,7.1,-1.59,12.49c0,5.34,0.52,9.52,1.57,12.51c1.04,2.99,2.89,4.49,5.52,4.49" fill="#000000" stroke="none" fill-opacity="1"/>
<path d="m210.82,787.63l0,-1.36l2.17,0c0.73,0,1.36,-0.13,1.88,-0.4c0.51,-0.27,0.77,-0.91,0.77,-1.93l0,-17.06c-0.82,0.99,-1.56,1.8,-2.22,2.43c-0.66,0.62,-1.31,0.94,-1.96,0.94c-0.47,0,-0.86,-0.16,-1.17,-0.48c-0.3,-0.32,-0.45,-0.74,-0.45,-1.26c0.65,-0.17,1.33,-0.43,2.06,-0.77c0.72,-0.34,1.61,-0.92,2.68,-1.72l2.27,-1.68l2.07,0l0,19.62c0,1.01,0.25,1.66,0.77,1.93c0.51,0.27,1.14,0.4,1.88,0.4l1.59,0l0,1.36l-12.38,0m23.91,0.32c-1.62,0,-2.98,-0.27,-4.07,-0.82c-1.09,-0.55,-1.91,-1.29,-2.46,-2.22c-0.55,-0.93,-0.82,-1.96,-0.82,-3.08c0,-1.04,0.21,-1.91,0.65,-2.63c0.43,-0.71,1.02,-1.33,1.77,-1.85c0.74,-0.52,1.58,-1,2.51,-1.46c-1.23,-0.69,-2.24,-1.51,-3.02,-2.46c-0.78,-0.95,-1.17,-2.11,-1.17,-3.47c0,-0.99,0.23,-1.93,0.71,-2.82c0.47,-0.88,1.22,-1.6,2.25,-2.16c1.02,-0.55,2.37,-0.82,4.04,-0.82c2.03,0,3.61,0.52,4.72,1.57c1.11,1.05,1.67,2.38,1.67,4.01c0,1.42,-0.4,2.53,-1.2,3.33c-0.8,0.79,-1.86,1.51,-3.18,2.16c1.6,0.75,2.9,1.63,3.89,2.63c0.99,0.99,1.49,2.19,1.49,3.6c0,2.05,-0.7,3.66,-2.11,4.81c-1.4,1.14,-3.3,1.72,-5.68,1.72m0.81,-13.52c1.21,-0.6,2.03,-1.27,2.45,-2.01c0.42,-0.73,0.63,-1.66,0.63,-2.79c0,-0.67,-0.11,-1.31,-0.35,-1.91c-0.23,-0.6,-0.62,-1.1,-1.16,-1.49c-0.54,-0.38,-1.26,-0.58,-2.17,-0.58c-1.21,0,-2.14,0.36,-2.79,1.1c-0.65,0.73,-0.97,1.66,-0.97,2.79c0,1.16,0.36,2.11,1.1,2.82c0.73,0.71,1.83,1.4,3.28,2.07m-0.65,12.02c1.4,0,2.54,-0.4,3.39,-1.21c0.85,-0.81,1.28,-1.84,1.28,-3.1c0,-1.1,-0.42,-2.06,-1.28,-2.89c-0.85,-0.82,-2.33,-1.68,-4.43,-2.59c-1.01,0.54,-1.83,1.25,-2.43,2.14c-0.6,0.88,-0.91,1.93,-0.91,3.15c0,1.34,0.36,2.43,1.1,3.26c0.73,0.83,1.83,1.25,3.28,1.25" fill="#000000" stroke="none" fill-opacity="1"/>
<path d="m102.4,430.92c-2.38,0,-4.52,-0.67,-6.42,-2.03c-1.89,-1.35,-3.39,-3.5,-4.49,-6.45c-1.1,-2.94,-1.65,-6.8,-1.65,-11.57c0,-2.56,0.28,-5.03,0.86,-7.39c0.57,-2.36,1.44,-4.48,2.6,-6.34c1.15,-1.86,2.62,-3.32,4.41,-4.38c1.78,-1.06,3.87,-1.59,6.26,-1.59c2.99,0,5.23,0.57,6.72,1.73c1.48,1.15,2.22,2.47,2.22,3.95c0,2.16,-1.39,3.25,-4.17,3.25c0,-1.77,-0.36,-3.27,-1.08,-4.49c-0.72,-1.22,-1.95,-1.84,-3.68,-1.84c-2.71,0,-4.77,1.34,-6.17,4.03c-1.4,2.69,-2.2,6.65,-2.38,11.89c0.9,-0.72,1.97,-1.37,3.22,-1.95c1.24,-0.57,2.75,-0.86,4.52,-0.86c3.32,0,5.97,0.98,7.94,2.95c1.96,1.96,2.95,4.68,2.95,8.15c0,2.53,-0.46,4.77,-1.38,6.72c-0.92,1.95,-2.24,3.47,-3.98,4.57c-1.73,1.1,-3.83,1.65,-6.28,1.65m0.16,-2.98c1.91,0,3.38,-0.74,4.41,-2.24c1.03,-1.49,1.54,-3.89,1.54,-7.18c0,-3.1,-0.55,-5.36,-1.65,-6.77c-1.1,-1.4,-2.7,-2.11,-4.79,-2.11c-1.4,0,-2.7,0.33,-3.87,1c-1.17,0.66,-2.12,1.38,-2.84,2.14c0.07,5.42,0.75,9.3,2.03,11.65c1.28,2.34,3,3.52,5.17,3.52m20.37,-5.69l-2.27,-2.33l8.99,-8.99l-8.99,-8.94l2.27,-2.27l8.99,8.99l8.99,-9.05l2.27,2.32l-8.99,8.99l8.99,8.99l-2.27,2.27l-8.99,-8.99l-8.99,8.99m29.37,8.12l0,-2.27l3.63,0c1.22,0,2.27,-0.22,3.14,-0.67c0.86,-0.45,1.3,-1.52,1.3,-3.22l0,-28.45c-1.37,1.66,-2.61,3.01,-3.71,4.06c-1.1,1.04,-2.19,1.57,-3.27,1.57c-0.79,0,-1.44,-0.27,-1.95,-0.81c-0.5,-0.54,-0.75,-1.24,-0.75,-2.11c1.08,-0.28,2.23,-0.72,3.44,-1.3c1.21,-0.57,2.7,-1.53,4.47,-2.87l3.79,-2.81l3.46,0l0,32.73c0,1.69,0.43,2.77,1.3,3.22c0.86,0.45,1.91,0.67,3.14,0.67l2.65,0l0,2.27l-20.65,0m40.27,0.54c-2.96,0,-5.38,-0.83,-7.26,-2.49c-1.87,-1.66,-3.26,-3.99,-4.14,-6.99c-0.88,-2.99,-1.32,-6.5,-1.32,-10.51c0,-4.01,0.44,-7.49,1.32,-10.46c0.88,-2.96,2.26,-5.25,4.14,-6.88c1.87,-1.62,4.31,-2.43,7.31,-2.43c2.81,0,5.16,0.81,7.04,2.43c1.87,1.62,3.27,3.92,4.2,6.91c0.92,2.98,1.38,6.47,1.38,10.48c0,4.01,-0.46,7.5,-1.4,10.48c-0.93,2.98,-2.33,5.3,-4.2,6.96c-1.86,1.66,-4.21,2.49,-7.07,2.49m0,-2.92c2.63,0,4.47,-1.49,5.5,-4.49c1.02,-2.99,1.54,-7.17,1.54,-12.51c0,-5.38,-0.51,-9.54,-1.54,-12.49c-1.02,-2.94,-2.84,-4.41,-5.44,-4.41c-2.63,0,-4.48,1.47,-5.55,4.41c-1.06,2.94,-1.59,7.1,-1.59,12.49c0,5.34,0.52,9.52,1.57,12.51c1.04,2.99,2.89,4.49,5.52,4.49" fill="#000000" stroke="none" fill-opacity="1"/>
<path d="m210.82,400.82l0,-1.36l2.17,0c0.73,0,1.36,-0.13,1.88,-0.4c0.51,-0.27,0.77,-0.91,0.77,-1.93l0,-17.06c-0.82,0.99,-1.56,1.8,-2.22,2.43c-0.66,0.62,-1.31,0.94,-1.96,0.94c-0.47,0,-0.86,-0.16,-1.17,-0.48c-0.3,-0.32,-0.45,-0.74,-0.45,-1.26c0.65,-0.17,1.33,-0.43,2.06,-0.77c0.72,-0.34,1.61,-0.92,2.68,-1.72l2.27,-1.68l2.07,0l0,19.62c0,1.01,0.25,1.66,0.77,1.93c0.51,0.27,1.14,0.4,1.88,0.4l1.59,0l0,1.36l-12.38,0m23.91,0.32c-1.62,0,-2.98,-0.27,-4.07,-0.82c-1.09,-0.55,-1.91,-1.29,-2.46,-2.22c-0.55,-0.93,-0.82,-1.96,-0.82,-3.08c0,-1.04,0.21,-1.91,0.65,-2.63c0.43,-0.71,1.02,-1.33,1.77,-1.85c0.74,-0.52,1.58,-1,2.51,-1.46c-1.23,-0.69,-2.24,-1.51,-3.02,-2.46c-0.78,-0.95,-1.17,-2.11,-1.17,-3.47c0,-0.99,0.23,-1.93,0.71,-2.82c0.47,-0.88,1.22,-1.6,2.25,-2.16c1.02,-0.55,2.37,-0.82,4.04,-0.82c2.03,0,3.61,0.52,4.72,1.57c1.11,1.05,1.67,2.38,1.67,4.01c0,1.42,-0.4,2.53,-1.2,3.33c-0.8,0.79,-1.86,1.51,-3.18,2.16c1.6,0.75,2.9,1.63,3.89,2.63c0.99,0.99,1.49,2.19,1.49,3.6c0,2.05,-0.7,3.66,-2.11,4.81c-1.4,1.14,-3.3,1.72,-5.68,1.72m0.81,-13.52c1.21,-0.6,2.03,-1.27,2.45,-2.01c0.42,-0.73,0.63,-1.66,0.63,-2.79c0,-0.67,-0.11,-1.31,-0.35,-1.91c-0.23,-0.6,-0.62,-1.1,-1.16,-1.49c-0.54,-0.38,-1.26,-0.58,-2.17,-0.58c-1.21,0,-2.14,0.36,-2.79,1.1c-0.65,0.73,-0.97,1.66,-0.97,2.79c0,1.16,0.36,2.11,1.1,2.82c0.73,0.71,1.83,1.4,3.28,2.07m-0.65,12.02c1.4,0,2.54,-0.4,3.39,-1.21c0.85,-0.81,1.28,-1.84,1.28,-3.1c0,-1.1,-0.42,-2.06,-1.28,-2.89c-0.85,-0.82,-2.33,-1.68,-4.43,-2.59c-1.01,0.54,-1.83,1.25,-2.43,2.14c-0.6,0.88,-0.91,1.93,-0.91,3.15c0,1.34,0.36,2.43,1.1,3.26c0.73,0.83,1.83,1.25,3.28,1.25" fill="#000000" stroke="none" fill-opacity="1"/>
<path d="m101.31,55.22c-2.71,0,-4.97,-0.46,-6.8,-1.38c-1.82,-0.92,-3.19,-2.15,-4.11,-3.71c-0.92,-1.55,-1.38,-3.27,-1.38,-5.14c0,-1.73,0.36,-3.19,1.08,-4.39c0.72,-1.19,1.7,-2.22,2.95,-3.08c1.24,-0.86,2.64,-1.67,4.2,-2.43c-2.05,-1.15,-3.73,-2.52,-5.03,-4.11c-1.3,-1.59,-1.95,-3.52,-1.95,-5.79c0,-1.66,0.39,-3.23,1.19,-4.71c0.79,-1.48,2.05,-2.68,3.76,-3.6c1.71,-0.92,3.96,-1.38,6.74,-1.38c3.39,0,6.02,0.87,7.88,2.62c1.86,1.75,2.79,3.98,2.79,6.69c0,2.38,-0.66,4.23,-2,5.55c-1.33,1.31,-3.1,2.52,-5.31,3.6c2.67,1.26,4.84,2.72,6.5,4.39c1.66,1.66,2.49,3.66,2.49,6.01c0,3.43,-1.17,6.1,-3.52,8.02c-2.34,1.91,-5.51,2.87,-9.48,2.87m1.35,-22.54c2.02,-1.01,3.38,-2.13,4.09,-3.36c0.7,-1.22,1.05,-2.78,1.05,-4.66c0,-1.12,-0.19,-2.18,-0.59,-3.19c-0.39,-1.01,-1.04,-1.84,-1.95,-2.49c-0.9,-0.65,-2.11,-0.97,-3.63,-0.97c-2.02,0,-3.57,0.61,-4.66,1.84c-1.08,1.22,-1.62,2.78,-1.62,4.66c0,1.95,0.61,3.52,1.84,4.71c1.22,1.19,3.05,2.34,5.47,3.46m-1.08,20.05c2.34,0,4.23,-0.67,5.66,-2.03c1.42,-1.35,2.14,-3.07,2.14,-5.17c0,-1.84,-0.71,-3.45,-2.14,-4.82c-1.42,-1.37,-3.89,-2.81,-7.39,-4.33c-1.69,0.9,-3.05,2.09,-4.06,3.57c-1.01,1.48,-1.51,3.23,-1.51,5.25c0,2.23,0.61,4.05,1.84,5.44c1.22,1.39,3.05,2.08,5.47,2.08m21.35,-6.17l-2.27,-2.33l8.99,-8.99l-8.99,-8.94l2.27,-2.27l8.99,8.99l8.99,-9.05l2.27,2.32l-8.99,8.99l8.99,8.99l-2.27,2.27l-8.99,-8.99l-8.99,8.99m29.37,8.12l0,-2.27l3.63,0c1.22,0,2.27,-0.22,3.14,-0.67c0.86,-0.45,1.3,-1.52,1.3,-3.22l0,-28.45c-1.37,1.66,-2.61,3.01,-3.71,4.06c-1.1,1.04,-2.19,1.57,-3.27,1.57c-0.79,0,-1.44,-0.27,-1.95,-0.81c-0.5,-0.54,-0.75,-1.24,-0.75,-2.11c1.08,-0.28,2.23,-0.72,3.44,-1.3c1.21,-0.57,2.7,-1.53,4.47,-2.87l3.79,-2.81l3.46,0l0,32.73c0,1.69,0.43,2.77,1.3,3.22c0.86,0.45,1.91,0.67,3.14,0.67l2.65,0l0,2.27l-20.65,0m40.27,0.54c-2.96,0,-5.38,-0.83,-7.26,-2.49c-1.87,-1.66,-3.26,-3.99,-4.14,-6.99c-0.88,-2.99,-1.32,-6.5,-1.32,-10.51c0,-4.01,0.44,-7.49,1.32,-10.46c0.88,-2.96,2.26,-5.25,4.14,-6.88c1.87,-1.62,4.31,-2.43,7.31,-2.43c2.81,0,5.16,0.81,7.04,2.43c1.87,1.62,3.27,3.92,4.2,6.91c0.92,2.98,1.38,6.47,1.38,10.48c0,4.01,-0.46,7.5,-1.4,10.48c-0.93,2.98,-2.33,5.3,-4.2,6.96c-1.86,1.66,-4.21,2.49,-7.07,2.49m0,-2.92c2.63,0,4.47,-1.49,5.5,-4.49c1.02,-2.99,1.54,-7.17,1.54,-12.51c0,-5.38,-0.51,-9.54,-1.54,-12.49c-1.02,-2.94,-2.84,-4.41,-5.44,-4.41c-2.63,0,-4.48,1.47,-5.55,4.41c-1.06,2.94,-1.59,7.1,-1.59,12.49c0,5.34,0.52,9.52,1.57,12.51c1.04,2.99,2.89,4.49,5.52,4.49" fill="#000000" stroke="none" fill-opacity="1"/>
<path d="m210.82,25.11l0,-1.36l2.17,0c0.73,0,1.36,-0.13,1.88,-0.4c0.51,-0.27,0.77,-0.91,0.77,-1.93l0,-17.06c-0.82,0.99,-1.56,1.8,-2.22,2.43c-0.66,0.62,-1.31,0.94,-1.96,0.94c-0.47,0,-0.86,-0.16,-1.17,-0.48c-0.3,-0.32,-0.45,-0.74,-0.45,-1.26c0.65,-0.17,1.33,-0.43,2.06,-0.77c0.72,-0.34,1.61,-0.92,2.68,-1.72l2.27,-1.68l2.07,0l0,19.62c0,1.01,0.25,1.66,0.77,1.93c0.51,0.27,1.14,0.4,1.88,0.4l1.59,0l0,1.36l-12.38,0m23.91,0.32c-1.62,0,-2.98,-0.27,-4.07,-0.82c-1.09,-0.55,-1.91,-1.29,-2.46,-2.22c-0.55,-0.93,-0.82,-1.96,-0.82,-3.08c0,-1.04,0.21,-1.91,0.65,-2.63c0.43,-0.71,1.02,-1.33,1.77,-1.85c0.74,-0.52,1.58,-1,2.51,-1.46c-1.23,-0.69,-2.24,-1.51,-3.02,-2.46c-0.78,-0.95,-1.17,-2.11,-1.17,-3.47c0,-0.99,0.23,-1.93,0.71,-2.82c0.47,-0.88,1.22,-1.6,2.25,-2.16c1.02,-0.55,2.37,-0.82,4.04,-0.82c2.03,0,3.61,0.52,4.72,1.57c1.11,1.05,1.67,2.38,1.67,4.01c0,1.42,-0.4,2.53,-1.2,3.33c-0.8,0.79,-1.86,1.51,-3.18,2.16c1.6,0.75,2.9,1.63,3.89,2.63c0.99,0.99,1.49,2.19,1.49,3.6c0,2.05,-0.7,3.66,-2.11,4.81c-1.4,1.14,-3.3,1.72,-5.68,1.72m0.81,-13.52c1.21,-0.6,2.03,-1.27,2.45,-2.01c0.42,-0.73,0.63,-1.66,0.63,-2.79c0,-0.67,-0.11,-1.31,-0.35,-1.91c-0.23,-0.6,-0.62,-1.1,-1.16,-1.49c-0.54,-0.38,-1.26,-0.58,-2.17,-0.58c-1.21,0,-2.14,0.36,-2.79,1.1c-0.65,0.73,-0.97,1.66,-0.97,2.79c0,1.16,0.36,2.11,1.1,2.82c0.73,0.71,1.83,1.4,3.28,2.07m-0.65,12.02c1.4,0,2.54,-0.4,3.39,-1.21c0.85,-0.81,1.28,-1.84,1.28,-3.1c0,-1.1,-0.42,-2.06,-1.28,-2.89c-0.85,-0.82,-2.33,-1.68,-4.43,-2.59c-1.01,0.54,-1.83,1.25,-2.43,2.14c-0.6,0.88,-0.91,1.93,-0.91,3.15c0,1.34,0.36,2.43,1.1,3.26c0.73,0.83,1.83,1.25,3.28,1.25" fill="#000000" stroke="none" fill-opacity="1"/>
</g>
<g fill="none" stroke-linecap="butt" stroke-width="2.08">
<path d="M2338.58,1570.86l0,-1547.24"/>
<path d="M2338.58,1570.86l-12.5,0M2338.58,1474.16l-12.5,0M2338.58,1377.46l-12.5,0M2338.58,1280.75l-12.5,0M2338.58,1184.05l-12.5,0M2338.58,1087.35l-12.5,0M2338.58,990.64l-12.5,0M2338.58,893.94l-12.5,0M2338.58,797.24l-12.5,0M2338.58,700.54l-12.5,0M2338.58,603.83l-12.5,0M2338.58,507.13l-12.5,0M2338.58,410.43l-12.5,0M2338.58,313.73l-12.5,0M2338.58,217.02l-12.5,0M2338.58,120.32l-12.5,0M2338.58,23.62l-12.5,0"/>
<path d="M2338.58,1570.86l-25,0M2338.58,1184.05l-25,0M2338.58,797.24l-25,0M2338.58,410.43l-25,0M2338.58,23.62l-25,0"/>
<path d="M259.84,1570.86l2078.74,0"/>
<path d="M259.84,1570.86l0,-12.5M363.77,1570.86l0,-12.5M467.71,1570.86l0,-12.5M571.65,1570.86l0,-12.5M675.59,1570.86l0,-12.5M779.52,1570.86l0,-12.5M883.46,1570.86l0,-12.5M987.4,1570.86l0,-12.5M1091.33,1570.86l0,-12.5M1195.27,1570.86l0,-12.5M1299.21,1570.86l0,-12.5M1403.14,1570.86l0,-12.5M1507.08,1570.86l0,-12.5M1611.02,1570.86l0,-12.5M1714.96,1570.86l0,-12.5M1818.89,1570.86l0,-12.5M1922.83,1570.86l0,-12.5M2026.77,1570.86l0,-12.5M2130.7,1570.86l0,-12.5M2234.64,1570.86l0,-12.5M2338.58,1570.86l0,-12.5"/>
<path d="M259.84,1570.86l0,-25M779.52,1570.86l0,-25M1299.21,1570.86l0,-25M1818.89,1570.86l0,-25M2338.58,1570.86l0,-25"/>
</g>
<g fill="none" stroke-width="0.1">
<path d="m1278.55,1736.39c3.82,-0.15,7.72,-0.22,11.55,-0.22c5.62,0,11.25,0.22,16.87,0.22c6.45,0,4.95,-0.15,7.87,-0.22l0.3,-2.7c0.37,-3.15,0.97,-6.3,1.57,-9.37l-2.02,0l-1.2,4.5c-0.67,2.62,-1.35,3.52,-2.92,3.9c-1.42,0.37,-6.75,0.75,-11.25,0.75c-3.07,0,-5.1,-0.07,-9.82,-0.52c0,-0.9,0,-1.72,0.15,-2.62l3.22,-18.97l8.77,0c9.45,0,7.57,0.22,9.9,0.3l1.42,-3.37l-0.3,-0.52l-16.42,0.45l-2.77,0l3.15,-17.85c0.22,-1.2,0.37,-1.8,0.67,-2.4c4.2,-0.15,2.32,-0.15,9.75,-0.3c4.87,0,7.95,0.67,8.02,1.8l0.6,6.67l1.8,0c0.22,-4.8,0.75,-8.55,1.57,-11.4c-1.65,-0.15,-3.45,-0.22,-5.17,-0.22c-5.85,0,-11.77,0.22,-17.7,0.22c-4.05,0,-8.02,-0.07,-12,-0.22l-0.22,2.1l4.05,0.15c1.8,0.07,2.62,0.67,2.62,1.95c0,1.12,-0.22,3.37,-0.67,5.77l-6.52,37.8c-0.22,1.35,-1.2,1.87,-4.5,2.4l-0.37,1.95" fill="#000000" stroke="none" fill-opacity="1"/>
<path d="m259.87,1645.2c-2.96,0,-5.38,-0.83,-7.26,-2.49c-1.87,-1.66,-3.26,-3.99,-4.14,-6.99c-0.88,-2.99,-1.32,-6.5,-1.32,-10.51c0,-4.01,0.44,-7.49,1.32,-10.46c0.88,-2.96,2.26,-5.25,4.14,-6.88c1.87,-1.62,4.31,-2.43,7.31,-2.43c2.81,0,5.16,0.81,7.04,2.43c1.87,1.62,3.27,3.92,4.2,6.91c0.92,2.98,1.38,6.47,1.38,10.48c0,4.01,-0.46,7.5,-1.4,10.48c-0.93,2.98,-2.33,5.3,-4.2,6.96c-1.86,1.66,-4.21,2.49,-7.07,2.49m0,-2.92c2.63,0,4.47,-1.49,5.5,-4.49c1.02,-2.99,1.54,-7.17,1.54,-12.51c0,-5.38,-0.51,-9.54,-1.54,-12.49c-1.02,-2.94,-2.84,-4.41,-5.44,-4.41c-2.63,0,-4.48,1.47,-5.55,4.41c-1.06,2.94,-1.59,7.1,-1.59,12.49c0,5.34,0.52,9.52,1.57,12.51c1.04,2.99,2.89,4.49,5.52,4.49" fill="#000000" stroke="none" fill-opacity="1"/>
<path d="m762.45,1645.2c-2.67,0,-4.75,-0.28,-6.23,-0.86c-1.48,-0.57,-2.52,-1.29,-3.11,-2.14c-0.59,-0.84,-0.89,-1.67,-0.89,-2.46c0,-1.01,0.27,-1.79,0.83,-2.35c0.55,-0.55,1.41,-0.83,2.57,-0.83c0,1.55,0.54,2.85,1.62,3.9c1.08,1.04,2.72,1.57,4.93,1.57c1.48,0,2.8,-0.28,3.98,-0.86c1.17,-0.57,2.09,-1.53,2.76,-2.87c0.66,-1.33,1,-3.14,1,-5.41c0,-2.85,-0.74,-4.97,-2.24,-6.36c-1.49,-1.39,-3.49,-2.08,-5.98,-2.08c-1.87,0,-3.28,0.12,-4.22,0.37c-0.93,0.25,-1.75,0.52,-2.43,0.81l-1.3,-0.37l1.73,-19.24l18.1,0l0.27,8.18l-2.27,0l-0.21,-1.62c-0.1,-0.75,-0.33,-1.31,-0.67,-1.68c-0.34,-0.36,-1.09,-0.54,-2.24,-0.54l-10.51,0l-1.02,11.97c0.54,-0.18,1.33,-0.37,2.38,-0.56c1.04,-0.19,2.36,-0.29,3.95,-0.29c2.34,0,4.45,0.42,6.31,1.27c1.86,0.84,3.33,2.11,4.41,3.79c1.08,1.68,1.62,3.8,1.62,6.36c0,2.45,-0.51,4.61,-1.54,6.47c-1.03,1.86,-2.52,3.3,-4.47,4.33c-1.95,1.02,-4.31,1.54,-7.1,1.54m32.24,0c-2.96,0,-5.38,-0.83,-7.26,-2.49c-1.87,-1.66,-3.26,-3.99,-4.14,-6.99c-0.88,-2.99,-1.32,-6.5,-1.32,-10.51c0,-4.01,0.44,-7.49,1.32,-10.46c0.88,-2.96,2.26,-5.25,4.14,-6.88c1.87,-1.62,4.31,-2.43,7.31,-2.43c2.81,0,5.16,0.81,7.04,2.43c1.87,1.62,3.27,3.92,4.2,6.91c0.92,2.98,1.38,6.47,1.38,10.48c0,4.01,-0.46,7.5,-1.4,10.48c-0.93,2.98,-2.33,5.3,-4.2,6.96c-1.86,1.66,-4.21,2.49,-7.07,2.49m0,-2.92c2.63,0,4.47,-1.49,5.5,-4.49c1.02,-2.99,1.54,-7.17,1.54,-12.51c0,-5.38,-0.51,-9.54,-1.54,-12.49c-1.02,-2.94,-2.84,-4.41,-5.44,-4.41c-2.63,0,-4.48,1.47,-5.55,4.41c-1.06,2.94,-1.59,7.1,-1.59,12.49c0,5.34,0.52,9.52,1.57,12.51c1.04,2.99,2.89,4.49,5.52,4.49" fill="#000000" stroke="none" fill-opacity="1"/>
<path d="m1258.97,1644.66l0,-2.27l3.63,0c1.22,0,2.27,-0.22,3.14,-0.67c0.86,-0.45,1.3,-1.52,1.3,-3.22l0,-28.45c-1.37,1.66,-2.61,3.01,-3.71,4.06c-1.1,1.04,-2.19,1.57,-3.27,1.57c-0.79,0,-1.44,-0.27,-1.95,-0.81c-0.5,-0.54,-0.75,-1.24,-0.75,-2.11c1.08,-0.28,2.23,-0.72,3.44,-1.3c1.21,-0.57,2.7,-1.53,4.47,-2.87l3.79,-2.81l3.46,0l0,32.73c0,1.69,0.43,2.77,1.3,3.22c0.86,0.45,1.91,0.67,3.14,0.67l2.65,0l0,2.27l-20.65,0m40.27,0.54c-2.96,0,-5.38,-0.83,-7.26,-2.49c-1.87,-1.66,-3.26,-3.99,-4.14,-6.99c-0.88,-2.99,-1.32,-6.5,-1.32,-10.51c0,-4.01,0.44,-7.49,1.32,-10.46c0.88,-2.96,2.26,-5.25,4.14,-6.88c1.87,-1.62,4.31,-2.43,7.31,-2.43c2.81,0,5.16,0.81,7.04,2.43c1.87,1.62,3.27,3.92,4.2,6.91c0.92,2.98,1.38,6.47,1.38,10.48c0,4.01,-0.46,7.5,-1.4,10.48c-0.93,2.98,-2.33,5.3,-4.2,6.96c-1.86,1.66,-4.21,2.49,-7.07,2.49m0,-2.92c2.63,0,4.47,-1.49,5.5,-4.49c1.02,-2.99,1.54,-7.17,1.54,-12.51c0,-5.38,-0.51,-9.54,-1.54,-12.49c-1.02,-2.94,-2.84,-4.41,-5.44,-4.41c-2.63,0,-4.48,1.47,-5.55,4.41c-1.06,2.94,-1.59,7.1,-1.59,12.49c0,5.34,0.52,9.52,1.57,12.51c1.04,2.99,2.89,4.49,5.52,4.49m30.29,2.92c-2.96,0,-5.38,-0.83,-7.26,-2.49c-1.87,-1.66,-3.26,-3.99,-4.14,-6.99c-0.88,-2.99,-1.32,-6.5,-1.32,-10.51c0,-4.01,0.44,-7.49,1.32,-10.46c0.88,-2.96,2.26,-5.25,4.14,-6.88c1.87,-1.62,4.31,-2.43,7.31,-2.43c2.81,0,5.16,0.81,7.04,2.43c1.87,1.62,3.27,3.92,4.2,6.91c0.92,2.98,1.38,6.47,1.38,10.48c0,4.01,-0.46,7.5,-1.4,10.48c-0.93,2.98,-2.33,5.3,-4.2,6.96c-1.86,1.66,-4.21,2.49,-7.07,2.49m0,-2.92c2.63,0,4.47,-1.49,5.5,-4.49c1.02,-2.99,1.54,-7.17,1.54,-12.51c0,-5.38,-0.51,-9.54,-1.54,-12.49c-1.02,-2.94,-2.84,-4.41,-5.44,-4.41c-2.63,0,-4.48,1.47,-5.55,4.41c-1.06,2.94,-1.59,7.1,-1.59,12.49c0,5.34,0.52,9.52,1.57,12.51c1.04,2.99,2.89,4.49,5.52,4.49" fill="#000000" stroke="none" fill-opacity="1"/>
<path d="m1778.65,1644.66l0,-2.27l3.63,0c1.22,0,2.27,-0.22,3.14,-0.67c0.86,-0.45,1.3,-1.52,1.3,-3.22l0,-28.45c-1.37,1.66,-2.61,3.01,-3.71,4.06c-1.1,1.04,-2.19,1.57,-3.27,1.57c-0.79,0,-1.44,-0.27,-1.95,-0.81c-0.5,-0.54,-0.75,-1.24,-0.75,-2.11c1.08,-0.28,2.23,-0.72,3.44,-1.3c1.21,-0.57,2.7,-1.53,4.47,-2.87l3.79,-2.81l3.46,0l0,32.73c0,1.69,0.43,2.77,1.3,3.22c0.86,0.45,1.91,0.67,3.14,0.67l2.65,0l0,2.27l-20.65,0m38.31,0.54c-2.67,0,-4.75,-0.28,-6.23,-0.86c-1.48,-0.57,-2.52,-1.29,-3.11,-2.14c-0.59,-0.84,-0.89,-1.67,-0.89,-2.46c0,-1.01,0.27,-1.79,0.83,-2.35c0.55,-0.55,1.41,-0.83,2.57,-0.83c0,1.55,0.54,2.85,1.62,3.9c1.08,1.04,2.72,1.57,4.93,1.57c1.48,0,2.8,-0.28,3.98,-0.86c1.17,-0.57,2.09,-1.53,2.76,-2.87c0.66,-1.33,1,-3.14,1,-5.41c0,-2.85,-0.74,-4.97,-2.24,-6.36c-1.49,-1.39,-3.49,-2.08,-5.98,-2.08c-1.87,0,-3.28,0.12,-4.22,0.37c-0.93,0.25,-1.75,0.52,-2.43,0.81l-1.3,-0.37l1.73,-19.24l18.1,0l0.27,8.18l-2.27,0l-0.21,-1.62c-0.1,-0.75,-0.33,-1.31,-0.67,-1.68c-0.34,-0.36,-1.09,-0.54,-2.24,-0.54l-10.51,0l-1.02,11.97c0.54,-0.18,1.33,-0.37,2.38,-0.56c1.04,-0.19,2.36,-0.29,3.95,-0.29c2.34,0,4.45,0.42,6.31,1.27c1.86,0.84,3.33,2.11,4.41,3.79c1.08,1.68,1.62,3.8,1.62,6.36c0,2.45,-0.51,4.61,-1.54,6.47c-1.03,1.86,-2.52,3.3,-4.47,4.33c-1.95,1.02,-4.31,1.54,-7.1,1.54m32.24,0c-2.96,0,-5.38,-0.83,-7.26,-2.49c-1.87,-1.66,-3.26,-3.99,-4.14,-6.99c-0.88,-2.99,-1.32,-6.5,-1.32,-10.51c0,-4.01,0.44,-7.49,1.32,-10.46c0.88,-2.96,2.26,-5.25,4.14,-6.88c1.87,-1.62,4.31,-2.43,7.31,-2.43c2.81,0,5.16,0.81,7.04,2.43c1.87,1.62,3.27,3.92,4.2,6.91c0.92,2.98,1.38,6.47,1.38,10.48c0,4.01,-0.46,7.5,-1.4,10.48c-0.93,2.98,-2.33,5.3,-4.2,6.96c-1.86,1.66,-4.21,2.49,-7.07,2.49m0,-2.92c2.63,0,4.47,-1.49,5.5,-4.49c1.02,-2.99,1.54,-7.17,1.54,-12.51c0,-5.38,-0.51,-9.54,-1.54,-12.49c-1.02,-2.94,-2.84,-4.41,-5.44,-4.41c-2.63,0,-4.48,1.47,-5.55,4.41c-1.06,2.94,-1.59,7.1,-1.59,12.49c0,5.34,0.52,9.52,1.57,12.51c1.04,2.99,2.89,4.49,5.52,4.49" fill="#000000" stroke="none" fill-opacity="1"/>
<path d="m2274.62,1644.66l0,-3.95l9.05,-10.46c1.91,-2.24,3.43,-4.18,4.55,-5.82c1.12,-1.64,1.92,-3.2,2.41,-4.68c0.48,-1.48,0.73,-3.05,0.73,-4.71c0,-2.05,-0.44,-3.72,-1.32,-4.98c-0.88,-1.26,-2.28,-1.89,-4.2,-1.89c-1.62,0,-2.87,0.37,-3.74,1.13c-0.86,0.75,-1.45,1.74,-1.76,2.95c-0.3,1.21,-0.46,2.53,-0.46,3.98c-1.3,0,-2.4,-0.24,-3.3,-0.73c-0.9,-0.48,-1.35,-1.41,-1.35,-2.79c0,-2.09,0.89,-3.83,2.68,-5.2c1.78,-1.37,4.43,-2.05,7.94,-2.05c3.43,0,6.12,0.82,8.07,2.46c1.95,1.64,2.92,3.83,2.92,6.58c0,2.52,-0.79,4.99,-2.38,7.39c-1.58,2.4,-3.81,5.17,-6.66,8.31l-9.15,10.13l12.52,0c1.62,0,2.72,-0.41,3.3,-1.24c0.57,-0.83,0.99,-1.77,1.24,-2.81l0.21,-0.97l2.27,0l-0.27,9.37l-23.3,0m42.16,0.54c-2.96,0,-5.38,-0.83,-7.26,-2.49c-1.87,-1.66,-3.26,-3.99,-4.14,-6.99c-0.88,-2.99,-1.32,-6.5,-1.32,-10.51c0,-4.01,0.44,-7.49,1.32,-10.46c0.88,-2.96,2.26,-5.25,4.14,-6.88c1.87,-1.62,4.31,-2.43,7.31,-2.43c2.81,0,5.16,0.81,7.04,2.43c1.87,1.62,3.27,3.92,4.2,6.91c0.92,2.98,1.38,6.47,1.38,10.48c0,4.01,-0.46,7.5,-1.4,10.48c-0.93,2.98,-2.33,5.3,-4.2,6.96c-1.86,1.66,-4.21,2.49,-7.07,2.49m0,-2.92c2.63,0,4.47,-1.49,5.5,-4.49c1.02,-2.99,1.54,-7.17,1.54,-12.51c0,-5.38,-0.51,-9.54,-1.54,-12.49c-1.02,-2.94,-2.84,-4.41,-5.44,-4.41c-2.63,0,-4.48,1.47,-5.55,4.41c-1.06,2.94,-1.59,7.1,-1.59,12.49c0,5.34,0.52,9.52,1.57,12.51c1.04,2.99,2.89,4.49,5.52,4.49m30.29,2.92c-2.96,0,-5.38,-0.83,-7.26,-2.49c-1.87,-1.66,-3.26,-3.99,-4.14,-6.99c-0.88,-2.99,-1.32,-6.5,-1.32,-10.51c0,-4.01,0.44,-7.49,1.32,-10.46c0.88,-2.96,2.26,-5.25,4.14,-6.88c1.87,-1.62,4.31,-2.43,7.31,-2.43c2.81,0,5.16,0.81,7.04,2.43c1.87,1.62,3.27,3.92,4.2,6.91c0.92,2.98,1.38,6.47,1.38,10.48c0,4.01,-0.46,7.5,-1.4,10.48c-0.93,2.98,-2.33,5.3,-4.2,6.96c-1.86,1.66,-4.21,2.49,-7.07,2.49m0,-2.92c2.63,0,4.47,-1.49,5.5,-4.49c1.02,-2.99,1.54,-7.17,1.54,-12.51c0,-5.38,-0.51,-9.54,-1.54,-12.49c-1.02,-2.94,-2.84,-4.41,-5.44,-4.41c-2.63,0,-4.48,1.47,-5.55,4.41c-1.06,2.94,-1.59,7.1,-1.59,12.49c0,5.34,0.52,9.52,1.57,12.51c1.04,2.99,2.89,4.49,5.52,4.49" fill="#000000" stroke="none" fill-opacity="1"/>
</g>
<g fill="none" stroke-linecap="butt" stroke-width="2.08">
<path d="M259.84,23.62l2078.74,0"/>
<path d="M259.84,23.62l0,12.5M363.77,23.62l0,12.5M467.71,23.62l0,12.5M571.65,23.62l0,12.5M675.59,23.62l0,12.5M779.52,23.62l0,12.5M883.46,23.62l0,12.5M987.4,23.62l0,12.5M1091.33,23.62l0,12.5M1195.27,23.62l0,12.5M1299.21,23.62l0,12.5M1403.14,23.62l0,12.5M1507.08,23.62l0,12.5M1611.02,23.62l0,12.5M1714.96,23.62l0,12.5M1818.89,23.62l0,12.5M1922.83,23.62l0,12.5M2026.77,23.62l0,12.5M2130.7,23.62l0,12.5M2234.64,23.62l0,12.5M2338.58,23.62l0,12.5"/>
<path d="M259.84,23.62l0,25M779.52,23.62l0,25M1299.21,23.62l0,25M1818.89,23.62l0,25M2338.58,23.62l0,25"/>
</g>
</g>
</g>
</svg>
